<svg width="60" height="60" viewBox="0 0 60 60" fill="none" xmlns="http://www.w3.org/2000/svg">
<circle cx="30" cy="30" r="30" fill="#047AFF"/>
<path d="M29.9995 15.3464C24.0768 15.3464 19.2754 20.1478 19.2754 26.0706C19.2754 31.9934 24.0768 36.7947 29.9995 36.7947C35.9223 36.7947 40.7237 31.9934 40.7237 26.0706C40.7237 21.9488 38.3983 18.3701 34.9879 16.5748C34.631 16.3869 34.2623 16.2186 33.883 16.0712" stroke="white" stroke-width="2" stroke-linecap="round"/>
<circle cx="29.9997" cy="26.0705" r="7.8698" stroke="white" stroke-width="2"/>
<path d="M29.7134 36.8058L26.1817 42.9228C25.7699 43.6361 24.7205 43.5735 24.3964 42.8162L23.5606 40.8633L21.4514 41.1159C20.6335 41.2139 20.0546 40.3364 20.4664 39.623L23.437 34.4779" stroke="white" stroke-width="2" stroke-linejoin="round"/>
<path d="M30.2471 36.5779L33.8928 42.8926C34.3079 43.6114 35.3675 43.5409 35.6836 42.7733L36.4956 40.8011L38.6095 41.084C39.4323 41.1941 40.0232 40.3117 39.6082 39.5928L36.6395 34.451" stroke="white" stroke-width="2" stroke-linejoin="round"/>
<path d="M30.0001 22.4817L31.0205 24.9729L33.5891 25.2234L31.6511 27.0136L32.2183 29.6597L30.0001 28.2748L27.782 29.6597L28.3492 27.0136L26.4111 25.2234L28.9798 24.9729L30.0001 22.4817Z" stroke="white" stroke-width="2" stroke-linejoin="round"/>
</svg>
