<svg width="60" height="60" viewBox="0 0 60 60" fill="none" xmlns="http://www.w3.org/2000/svg">
<circle cx="30" cy="30" r="30" fill="#047AFF"/>
<path d="M17.4395 26.9398C17.4395 27.4921 17.8872 27.9398 18.4395 27.9398C18.9917 27.9398 19.4395 27.4921 19.4395 26.9398H17.4395ZM21.4395 18.7598H41.2795V16.7598H21.4395V18.7598ZM43.2795 20.7598V31.0798H45.2795V20.7598H43.2795ZM41.2795 33.0798H27.9595V35.0798H41.2795V33.0798ZM19.4395 26.9398V20.7598H17.4395V26.9398H19.4395ZM43.2795 31.0798C43.2795 32.1843 42.384 33.0798 41.2795 33.0798V35.0798C43.4886 35.0798 45.2795 33.2889 45.2795 31.0798H43.2795ZM41.2795 18.7598C42.384 18.7598 43.2795 19.6552 43.2795 20.7598H45.2795C45.2795 18.5506 43.4886 16.7598 41.2795 16.7598V18.7598ZM21.4395 16.7598C19.2303 16.7598 17.4395 18.5506 17.4395 20.7598H19.4395C19.4395 19.6552 20.3349 18.7598 21.4395 18.7598V16.7598Z" fill="white"/>
<path d="M18.4395 24.5596H24.5595M44.2795 24.5596H26.5995" stroke="white" stroke-width="2" stroke-linecap="round"/>
<path d="M44.2793 21.1597H18.4393" stroke="white" stroke-width="2" stroke-linecap="round"/>
<circle cx="39.5195" cy="29.3198" r="2.04" fill="white"/>
<circle cx="36.7998" cy="29.3198" r="1.04" stroke="white" stroke-width="2"/>
<rect x="15.7197" y="32.7197" width="12.24" height="9.52" rx="3" stroke="white" stroke-width="2"/>
<path d="M17.7598 32.04C17.7598 29.7866 19.5864 27.96 21.8398 27.96V27.96C24.0931 27.96 25.9198 29.7866 25.9198 32.04V32.72H17.7598V32.04Z" stroke="white" stroke-width="2"/>
<circle cx="21.8395" cy="36.1198" r="1.36" fill="white"/>
<path d="M21.8398 36.7998V39.1798" stroke="white" stroke-width="2" stroke-linecap="round"/>
</svg>
