<svg width="60" height="60" viewBox="0 0 60 60" fill="none" xmlns="http://www.w3.org/2000/svg">
<circle cx="30" cy="30" r="30" fill="#047AFF"/>
<path d="M35.4398 27.9599V33.3999M31.0198 18.4399H24.8398C23.183 18.4399 21.8398 19.7831 21.8398 21.4399V23.8799M35.4398 35.7799V41.2799C35.4398 42.9368 34.0967 44.2799 32.4398 44.2799H24.8398C23.183 44.2799 21.8398 42.9368 21.8398 41.2799V26.0897" stroke="white" stroke-width="2" stroke-linecap="round"/>
<path d="M21.8398 40.1997H35.4398" stroke="white" stroke-width="2"/>
<path d="M28.6211 42.251H28.6583" stroke="white" stroke-width="2" stroke-linecap="round"/>
<circle cx="37.4797" cy="21.1599" r="6.8" stroke="white" stroke-width="2"/>
<path d="M36.8256 25.4386V24.7056C36.2036 24.6358 35.7054 24.4168 35.331 24.0487C34.9565 23.6806 34.7661 23.1983 34.7598 22.6017H35.826C35.8324 22.9 35.9212 23.1634 36.0926 23.3918C36.2639 23.614 36.5083 23.7631 36.8256 23.8393V21.545C36.7748 21.5323 36.7209 21.5164 36.6638 21.4974C36.613 21.4783 36.559 21.4593 36.5019 21.4402C35.9878 21.2689 35.6007 21.0467 35.3405 20.7738C35.0866 20.5009 34.9597 20.1423 34.9597 19.6981C34.9533 19.1777 35.1215 18.7524 35.4642 18.4224C35.807 18.0924 36.2608 17.8988 36.8256 17.8417V17.0801H37.473V17.8512C38.0251 17.9147 38.4694 18.1146 38.8058 18.451C39.1421 18.7873 39.3135 19.2094 39.3198 19.7171H38.2536C38.2473 19.5077 38.1774 19.3109 38.0442 19.1269C37.9172 18.9365 37.7268 18.8064 37.473 18.7366V20.7738C37.5237 20.7929 37.5745 20.8119 37.6253 20.831C37.6761 20.8437 37.7268 20.8595 37.7776 20.8786C38.1076 20.9865 38.4028 21.1166 38.663 21.2689C38.9232 21.4212 39.1294 21.6211 39.2818 21.8686C39.4404 22.1162 39.5198 22.4303 39.5198 22.8111C39.5198 23.1285 39.4436 23.4267 39.2913 23.706C39.139 23.9789 38.9105 24.2074 38.6058 24.3914C38.3012 24.5755 37.9236 24.6834 37.473 24.7151V25.4386H36.8256ZM36.0069 19.6124C36.0069 19.8663 36.0799 20.063 36.2258 20.2026C36.3718 20.3359 36.5717 20.4533 36.8256 20.5549V18.708C36.5844 18.7524 36.3877 18.854 36.2354 19.0126C36.083 19.165 36.0069 19.3649 36.0069 19.6124ZM38.4535 22.8778C38.4535 22.5668 38.3615 22.3319 38.1774 22.1733C37.9934 22.0083 37.7586 21.8718 37.473 21.7639V23.8583C37.784 23.8202 38.0251 23.7123 38.1965 23.5346C38.3678 23.3569 38.4535 23.138 38.4535 22.8778Z" fill="white"/>
<path d="M24.5596 27.96H27.9596" stroke="white" stroke-width="2" stroke-linecap="round"/>
<path d="M24.5596 30.6797H32.3796" stroke="white" stroke-width="2" stroke-linecap="round"/>
</svg>
