<svg width="169" height="169" viewBox="0 0 169 169" fill="none" xmlns="http://www.w3.org/2000/svg">
<circle cx="84.5" cy="84.5" r="84.5" fill="white" fill-opacity="0.16"/>
<path fill-rule="evenodd" clip-rule="evenodd" d="M68.125 62.5V65.3125H60.6738C57.0738 65.3125 54.0588 68.0275 53.68 71.6087L48.9438 116.609C48.8408 117.589 48.9449 118.58 49.2495 119.517C49.554 120.454 50.0522 121.317 50.7116 122.049C51.3711 122.781 52.1771 123.367 53.0773 123.767C53.9776 124.168 54.9521 124.375 55.9375 124.375H114.063C115.048 124.375 116.022 124.168 116.923 123.767C117.823 123.367 118.629 122.781 119.288 122.049C119.948 121.317 120.446 120.454 120.751 119.517C121.055 118.58 121.159 117.589 121.056 116.609L116.32 71.6087C116.138 69.8805 115.323 68.2808 114.032 67.1182C112.74 65.9555 111.064 65.3122 109.326 65.3125H101.875V62.5C101.875 58.0245 100.097 53.7322 96.9325 50.5676C93.7678 47.4029 89.4756 45.625 85 45.625C80.5245 45.625 76.2323 47.4029 73.0676 50.5676C69.9029 53.7322 68.125 58.0245 68.125 62.5ZM85 51.25C82.0164 51.25 79.1549 52.4353 77.0451 54.545C74.9353 56.6548 73.75 59.5163 73.75 62.5V65.3125H96.25V62.5C96.25 59.5163 95.0648 56.6548 92.955 54.545C90.8452 52.4353 87.9837 51.25 85 51.25ZM73.75 82.1875C73.75 85.1712 74.9353 88.0327 77.0451 90.1425C79.1549 92.2522 82.0164 93.4375 85 93.4375C87.9837 93.4375 90.8452 92.2522 92.955 90.1425C95.0648 88.0327 96.25 85.1712 96.25 82.1875V79.375C96.25 78.6291 96.5464 77.9137 97.0738 77.3863C97.6013 76.8588 98.3166 76.5625 99.0625 76.5625C99.8085 76.5625 100.524 76.8588 101.051 77.3863C101.579 77.9137 101.875 78.6291 101.875 79.375V82.1875C101.875 86.663 100.097 90.9552 96.9325 94.1199C93.7678 97.2846 89.4756 99.0625 85 99.0625C80.5245 99.0625 76.2323 97.2846 73.0676 94.1199C69.9029 90.9552 68.125 86.663 68.125 82.1875V79.375C68.125 78.6291 68.4214 77.9137 68.9488 77.3863C69.4763 76.8588 70.1916 76.5625 70.9375 76.5625C71.6835 76.5625 72.3988 76.8588 72.9263 77.3863C73.4537 77.9137 73.75 78.6291 73.75 79.375V82.1875Z" fill="white"/>
<circle cx="116.5" cy="58.5" r="17.5" fill="#EB5757"/>
<path d="M105.726 60.168V58.884H107.982V56.808H109.29V58.884H111.534V60.168H109.29V62.244H107.982V60.168H105.726ZM115.659 63.144C115.075 63.144 114.583 63.032 114.183 62.808C113.783 62.576 113.471 62.276 113.247 61.908C113.023 61.54 112.891 61.144 112.851 60.72H114.279C114.343 61.088 114.495 61.372 114.735 61.572C114.983 61.772 115.295 61.872 115.671 61.872C116.207 61.872 116.639 61.628 116.967 61.14C117.295 60.644 117.471 59.892 117.495 58.884C117.303 59.212 117.011 59.484 116.619 59.7C116.235 59.916 115.811 60.024 115.347 60.024C114.883 60.024 114.447 59.912 114.039 59.688C113.631 59.464 113.299 59.148 113.043 58.74C112.787 58.332 112.659 57.852 112.659 57.3C112.659 56.796 112.783 56.328 113.031 55.896C113.279 55.464 113.623 55.116 114.063 54.852C114.503 54.588 115.019 54.456 115.611 54.456C116.243 54.456 116.775 54.572 117.207 54.804C117.639 55.036 117.983 55.348 118.239 55.74C118.503 56.132 118.691 56.568 118.803 57.048C118.923 57.528 118.983 58.02 118.983 58.524C118.983 59.46 118.851 60.276 118.587 60.972C118.331 61.66 117.951 62.196 117.447 62.58C116.951 62.956 116.355 63.144 115.659 63.144ZM115.707 58.728C116.003 58.728 116.271 58.664 116.511 58.536C116.751 58.4 116.939 58.224 117.075 58.008C117.211 57.784 117.279 57.536 117.279 57.264C117.279 56.832 117.127 56.476 116.823 56.196C116.527 55.916 116.151 55.776 115.695 55.776C115.247 55.776 114.875 55.916 114.579 56.196C114.283 56.468 114.135 56.816 114.135 57.24C114.135 57.688 114.283 58.048 114.579 58.32C114.875 58.592 115.251 58.728 115.707 58.728ZM123.024 63.144C122.44 63.144 121.948 63.032 121.548 62.808C121.148 62.576 120.836 62.276 120.612 61.908C120.388 61.54 120.256 61.144 120.216 60.72H121.644C121.708 61.088 121.86 61.372 122.1 61.572C122.348 61.772 122.66 61.872 123.036 61.872C123.572 61.872 124.004 61.628 124.332 61.14C124.66 60.644 124.836 59.892 124.86 58.884C124.668 59.212 124.376 59.484 123.984 59.7C123.6 59.916 123.176 60.024 122.712 60.024C122.248 60.024 121.812 59.912 121.404 59.688C120.996 59.464 120.664 59.148 120.408 58.74C120.152 58.332 120.024 57.852 120.024 57.3C120.024 56.796 120.148 56.328 120.396 55.896C120.644 55.464 120.988 55.116 121.428 54.852C121.868 54.588 122.384 54.456 122.976 54.456C123.608 54.456 124.14 54.572 124.572 54.804C125.004 55.036 125.348 55.348 125.604 55.74C125.868 56.132 126.056 56.568 126.168 57.048C126.288 57.528 126.348 58.02 126.348 58.524C126.348 59.46 126.216 60.276 125.952 60.972C125.696 61.66 125.316 62.196 124.812 62.58C124.316 62.956 123.72 63.144 123.024 63.144ZM123.072 58.728C123.368 58.728 123.636 58.664 123.876 58.536C124.116 58.4 124.304 58.224 124.44 58.008C124.576 57.784 124.644 57.536 124.644 57.264C124.644 56.832 124.492 56.476 124.188 56.196C123.892 55.916 123.516 55.776 123.06 55.776C122.612 55.776 122.24 55.916 121.944 56.196C121.648 56.468 121.5 56.816 121.5 57.24C121.5 57.688 121.648 58.048 121.944 58.32C122.24 58.592 122.616 58.728 123.072 58.728Z" fill="white"/>
</svg>
