<svg width="80" height="80" viewBox="0 0 80 80" fill="none" xmlns="http://www.w3.org/2000/svg">
<circle cx="40" cy="40" r="40" fill="#44D3E7"/>
<path d="M40.0001 19.6479C31.774 19.6479 25.1055 26.3165 25.1055 34.5426C25.1055 42.7687 31.774 49.4372 40.0001 49.4372C48.2262 49.4372 54.8947 42.7687 54.8947 34.5426C54.8947 28.8179 51.6651 23.8475 46.9284 21.354C46.4328 21.0931 45.9206 20.8593 45.3938 20.6546" stroke="white" stroke-width="2" stroke-linecap="round"/>
<circle cx="40.0006" cy="34.5426" r="10.9303" stroke="white" stroke-width="2"/>
<path d="M39.602 49.4526L34.3084 58.6213C33.8966 59.3347 32.8471 59.2721 32.523 58.5148L31.0565 55.0879L27.3555 55.5313C26.5376 55.6292 25.9586 54.7517 26.3705 54.0384L30.8848 46.2194" stroke="white" stroke-width="2" stroke-linejoin="round"/>
<path d="M40.3438 49.136L45.8027 58.5911C46.2177 59.31 47.2774 59.2394 47.5934 58.4719L49.0222 55.0016L52.742 55.4993C53.5647 55.6094 54.1557 54.7271 53.7406 54.0082L49.2222 46.182" stroke="white" stroke-width="2" stroke-linejoin="round"/>
<path d="M40.0003 29.5579L41.4175 33.0179L44.9851 33.3659L42.2933 35.8522L43.0811 39.5273L40.0003 37.6039L36.9196 39.5273L37.7074 35.8522L35.0156 33.3659L38.5832 33.0179L40.0003 29.5579Z" stroke="white" stroke-width="2" stroke-linejoin="round"/>
</svg>
