<svg width="109" height="106" viewBox="0 0 109 106" fill="none" xmlns="http://www.w3.org/2000/svg">
<path opacity="0.1" d="M19.0664 38.3625C19.0664 29.2042 26.4907 21.7799 35.649 21.7799H59.1565C68.3148 21.7799 75.7391 29.2042 75.7391 38.3625V61.87C75.7391 71.0283 68.3148 78.4526 59.1565 78.4526H35.649C26.4907 78.4526 19.0664 71.0283 19.0664 61.87V38.3625Z" stroke="#047AFF" stroke-width="3"/>
<path d="M76.251 97.1615C76.251 92.0546 80.3909 87.9147 85.4978 87.9147H98.8187C103.926 87.9147 108.066 92.0546 108.066 97.1615V110.482C108.066 115.589 103.926 119.729 98.8187 119.729H85.4978C80.3909 119.729 76.251 115.589 76.251 110.482V97.1615Z" stroke="#44D3E7" stroke-width="2"/>
<path d="M29.0127 42.2804C29.0127 36.451 33.7384 31.7253 39.5678 31.7253H55.2394C61.0688 31.7253 65.7945 36.451 65.7945 42.2804V57.9521C65.7945 63.7815 61.0688 68.5071 55.2394 68.5071H39.5678C33.7384 68.5071 29.0127 63.7815 29.0127 57.9521V42.2804Z" stroke="#047AFF" stroke-width="3"/>
<path opacity="0.3" d="M21.0498 95.5035C21.0498 93.7823 22.4451 92.387 24.1663 92.387H28.8678C30.589 92.387 31.9843 93.7823 31.9843 95.5035V100.205C31.9843 101.926 30.589 103.322 28.8678 103.322H24.1663C22.4451 103.322 21.0498 101.926 21.0498 100.205V95.5035Z" stroke="white"/>
<path d="M1 17.1676C1 15.3777 2.38013 14 3.99397 14H9.18612C10.8 14 12.1801 15.3777 12.1801 17.1676V22.5855C12.1801 24.3755 10.8 25.7531 9.18612 25.7531H3.99397C2.38013 25.7531 1 24.3755 1 22.5855V17.1676Z" stroke="#44D3E7" stroke-width="2"/>
<path opacity="0.12" d="M62.3203 11.2387C62.3203 5.24668 67.1778 0.38916 73.1699 0.38916H87.2744C93.2664 0.38916 98.1239 5.24668 98.1239 11.2387V25.3432C98.1239 31.3353 93.2664 36.1928 87.2744 36.1928H73.1699C67.1778 36.1928 62.3203 31.3353 62.3203 25.3432V11.2387Z" fill="#44D3E7"/>
<path d="M98.5 52.946C98.5 49.386 101.386 46.5 104.946 46.5H113.976C117.536 46.5 120.422 49.386 120.422 52.946V61.9759C120.422 65.5359 117.536 68.4219 113.976 68.4219H104.946C101.386 68.4219 98.5 65.5359 98.5 61.9759V52.946Z" stroke="#44D3E7"/>
</svg>
