<svg width="700" height="237" viewBox="0 0 700 237" fill="none" xmlns="http://www.w3.org/2000/svg">
<path d="M539.5 62.3636C539.5 43.1207 555.233 27.5 574.667 27.5H622.333C641.767 27.5 657.5 43.1207 657.5 62.3636V109.636C657.5 128.879 641.767 144.5 622.333 144.5H574.667C555.233 144.5 539.5 128.879 539.5 109.636V62.3636Z" stroke="#F1F1F5" stroke-width="3"/>
<path d="M651 165.152C651 157.336 657.336 151 665.152 151H684.848C692.664 151 699 157.336 699 165.152V184.848C699 192.664 692.664 199 684.848 199H665.152C657.336 199 651 192.664 651 184.848V165.152Z" stroke="#44D3E7" stroke-width="2"/>
<path d="M563.021 71.3246C563.021 59.7048 572.44 50.2852 584.06 50.2852H613.361C624.981 50.2852 634.401 59.7048 634.401 71.3246V100.626C634.401 112.246 624.981 121.665 613.361 121.665H584.06C572.44 121.665 563.021 112.246 563.021 100.626V71.3246Z" stroke="#047AFF" stroke-width="3"/>
<path opacity="0.3" d="M549.004 170.836C549.004 167.378 551.807 164.574 555.266 164.574H564.056C567.514 164.574 570.318 167.378 570.318 170.836V179.626C570.318 183.085 567.514 185.888 564.056 185.888H555.266C551.807 185.888 549.004 183.085 549.004 179.626V170.836Z" stroke="white"/>
<path d="M504 19.1818C504 15.2154 507.215 12 511.182 12H521.818C525.785 12 529 15.2154 529 19.1818V29.8182C529 33.7846 525.785 37 521.818 37H511.182C507.215 37 504 33.7846 504 29.8182V19.1818Z" stroke="#44D3E7" stroke-width="2"/>
<path d="M630 15.7576C630 7.05491 637.055 0 645.758 0H666.242C674.945 0 682 7.05491 682 15.7576V36.2424C682 44.9451 674.945 52 666.242 52H645.758C637.055 52 630 44.9451 630 36.2424V15.7576Z" fill="#F1F1F5"/>
<path d="M49 157.364C49 142.803 60.8034 131 75.3636 131H109.636C124.197 131 136 142.803 136 157.364V191.636C136 206.197 124.197 218 109.636 218H75.3636C60.8034 218 49 206.197 49 191.636V157.364Z" fill="#F1F1F5"/>
<path d="M33 201.455C33 193.472 39.4715 187 47.4545 187H67.5455C75.5285 187 82 193.472 82 201.455V221.545C82 229.528 75.5285 236 67.5455 236H47.4545C39.4715 236 33 229.528 33 221.545V201.455Z" stroke="#047AFF" stroke-width="2"/>
<path d="M1 88.697C1 83.8938 4.89377 80 9.69697 80H22.303C27.1062 80 31 83.8938 31 88.697V101.303C31 106.106 27.1062 110 22.303 110H9.69697C4.89377 110 1 106.106 1 101.303V88.697Z" stroke="#44D3E7" stroke-width="2"/>
</svg>
