<svg width="82" height="82" viewBox="0 0 82 82" fill="none" xmlns="http://www.w3.org/2000/svg">
<circle cx="41" cy="41" r="40" fill="#047AFF" stroke="white" stroke-width="2"/>
<path d="M52.0497 32.9167C52.1163 33.9333 52.033 35.0833 51.833 36.3667L50.6163 44.1833C49.583 50.7 46.5663 52.9 40.0497 51.8833L32.233 50.65C29.983 50.3 28.2497 49.7 26.983 48.8C24.5663 47.1167 23.8663 44.35 24.533 40.0833L25.7663 32.2667C26.7997 25.75 29.8163 23.55 36.333 24.5667L44.1497 25.8C49.383 26.6167 51.833 28.75 52.0497 32.9167Z" stroke="white" stroke-width="2" stroke-linecap="round" stroke-linejoin="round"/>
<path d="M55.1667 43.45L52.6667 50.9667C50.5834 57.2334 47.2501 58.9 40.9834 56.8167L33.4667 54.3167C29.6834 53.0667 27.5834 51.3334 26.9834 48.8C28.2501 49.7 29.9834 50.3 32.2334 50.65L40.0501 51.8834C46.5667 52.9 49.5834 50.7 50.6167 44.1834L51.8334 36.3667C52.0334 35.0834 52.1167 33.9334 52.0501 32.9167C56.0334 35.0334 56.9001 38.2334 55.1667 43.45Z" stroke="white" stroke-width="2" stroke-linecap="round" stroke-linejoin="round"/>
<path d="M34.733 35.9667C36.3346 35.9667 37.633 34.6683 37.633 33.0667C37.633 31.4651 36.3346 30.1667 34.733 30.1667C33.1314 30.1667 31.833 31.4651 31.833 33.0667C31.833 34.6683 33.1314 35.9667 34.733 35.9667Z" stroke="white" stroke-width="2" stroke-linecap="round" stroke-linejoin="round"/>
</svg>
