<svg width="254" height="186" viewBox="0 0 254 186" fill="none" xmlns="http://www.w3.org/2000/svg">
<rect width="254" height="186" rx="18" fill="white"/>
<path d="M22 84L230 84" stroke="#EAEAEE" stroke-dasharray="2 6"/>
<path d="M22 104L230 104" stroke="#EAEAEE" stroke-dasharray="2 6"/>
<path d="M22 124L230 124" stroke="#EAEAEE" stroke-dasharray="2 6"/>
<path d="M22 144L230 144" stroke="#EAEAEE" stroke-dasharray="2 6"/>
<path d="M22 164L230 164" stroke="#EAEAEE" stroke-dasharray="2 6"/>
<path d="M85.7 37.24C84.2867 37.24 83.0733 36.94 82.06 36.34C81.0467 35.7267 80.2667 34.88 79.72 33.8C79.1733 32.7067 78.9 31.4467 78.9 30.02C78.9 28.5933 79.1733 27.3333 79.72 26.24C80.2667 25.1467 81.0467 24.2933 82.06 23.68C83.0733 23.0667 84.2867 22.76 85.7 22.76C87.38 22.76 88.7533 23.18 89.82 24.02C90.9 24.8467 91.5733 26.0133 91.84 27.52H89.02C88.8467 26.76 88.4733 26.1667 87.9 25.74C87.34 25.3 86.5933 25.08 85.66 25.08C84.3667 25.08 83.3533 25.52 82.62 26.4C81.8867 27.28 81.52 28.4867 81.52 30.02C81.52 31.5533 81.8867 32.76 82.62 33.64C83.3533 34.5067 84.3667 34.94 85.66 34.94C86.5933 34.94 87.34 34.74 87.9 34.34C88.4733 33.9267 88.8467 33.36 89.02 32.64H91.84C91.5733 34.08 90.9 35.2067 89.82 36.02C88.7533 36.8333 87.38 37.24 85.7 37.24ZM98.8061 37.24C97.8461 37.24 96.9794 37.02 96.2061 36.58C95.4461 36.14 94.8394 35.5333 94.3861 34.76C93.9461 33.9733 93.7261 33.0667 93.7261 32.04C93.7261 31.0133 93.9528 30.1133 94.4061 29.34C94.8594 28.5533 95.4661 27.94 96.2261 27.5C96.9994 27.06 97.8661 26.84 98.8261 26.84C99.7728 26.84 100.626 27.06 101.386 27.5C102.159 27.94 102.766 28.5533 103.206 29.34C103.659 30.1133 103.886 31.0133 103.886 32.04C103.886 33.0667 103.659 33.9733 103.206 34.76C102.766 35.5333 102.159 36.14 101.386 36.58C100.613 37.02 99.7528 37.24 98.8061 37.24ZM98.8061 35.02C99.4728 35.02 100.053 34.7733 100.546 34.28C101.039 33.7733 101.286 33.0267 101.286 32.04C101.286 31.0533 101.039 30.3133 100.546 29.82C100.053 29.3133 99.4794 29.06 98.8261 29.06C98.1461 29.06 97.5594 29.3133 97.0661 29.82C96.5861 30.3133 96.3461 31.0533 96.3461 32.04C96.3461 33.0267 96.5861 33.7733 97.0661 34.28C97.5594 34.7733 98.1394 35.02 98.8061 35.02ZM106.175 37V27.08H108.435L108.635 28.76C108.942 28.1733 109.382 27.7067 109.955 27.36C110.542 27.0133 111.228 26.84 112.015 26.84C113.242 26.84 114.195 27.2267 114.875 28C115.555 28.7733 115.895 29.9067 115.895 31.4V37H113.335V31.64C113.335 30.7867 113.162 30.1333 112.815 29.68C112.468 29.2267 111.928 29 111.195 29C110.475 29 109.882 29.2533 109.415 29.76C108.962 30.2667 108.735 30.9733 108.735 31.88V37H106.175ZM120.925 37L117.285 27.08H119.965L122.485 34.58L125.005 27.08H127.685L124.025 37H120.925ZM133.632 37.24C132.632 37.24 131.745 37.0267 130.972 36.6C130.198 36.1733 129.592 35.5733 129.152 34.8C128.712 34.0267 128.492 33.1333 128.492 32.12C128.492 31.0933 128.705 30.18 129.132 29.38C129.572 28.58 130.172 27.96 130.932 27.52C131.705 27.0667 132.612 26.84 133.652 26.84C134.625 26.84 135.485 27.0533 136.232 27.48C136.978 27.9067 137.558 28.4933 137.972 29.24C138.398 29.9733 138.612 30.7933 138.612 31.7C138.612 31.8467 138.605 32 138.592 32.16C138.592 32.32 138.585 32.4867 138.572 32.66H131.032C131.085 33.4333 131.352 34.04 131.832 34.48C132.325 34.92 132.918 35.14 133.612 35.14C134.132 35.14 134.565 35.0267 134.912 34.8C135.272 34.56 135.538 34.2533 135.712 33.88H138.312C138.125 34.5067 137.812 35.08 137.372 35.6C136.945 36.1067 136.412 36.5067 135.772 36.8C135.145 37.0933 134.432 37.24 133.632 37.24ZM133.652 28.92C133.025 28.92 132.472 29.1 131.992 29.46C131.512 29.8067 131.205 30.34 131.072 31.06H136.012C135.972 30.4067 135.732 29.8867 135.292 29.5C134.852 29.1133 134.305 28.92 133.652 28.92ZM140.765 37V27.08H143.045L143.285 28.94C143.645 28.3 144.132 27.7933 144.745 27.42C145.372 27.0333 146.105 26.84 146.945 26.84V29.54H146.225C145.665 29.54 145.165 29.6267 144.725 29.8C144.285 29.9733 143.938 30.2733 143.685 30.7C143.445 31.1267 143.325 31.72 143.325 32.48V37H140.765ZM152.795 37.24C151.915 37.24 151.141 37.1 150.475 36.82C149.808 36.5267 149.275 36.1267 148.875 35.62C148.475 35.1133 148.235 34.5267 148.155 33.86H150.735C150.815 34.2467 151.028 34.58 151.375 34.86C151.735 35.1267 152.195 35.26 152.755 35.26C153.315 35.26 153.721 35.1467 153.975 34.92C154.241 34.6933 154.375 34.4333 154.375 34.14C154.375 33.7133 154.188 33.4267 153.815 33.28C153.441 33.12 152.921 32.9667 152.255 32.82C151.828 32.7267 151.395 32.6133 150.955 32.48C150.515 32.3467 150.108 32.18 149.735 31.98C149.375 31.7667 149.081 31.5 148.855 31.18C148.628 30.8467 148.515 30.44 148.515 29.96C148.515 29.08 148.861 28.34 149.555 27.74C150.261 27.14 151.248 26.84 152.515 26.84C153.688 26.84 154.621 27.1133 155.315 27.66C156.021 28.2067 156.441 28.96 156.575 29.92H154.155C154.008 29.1867 153.455 28.82 152.495 28.82C152.015 28.82 151.641 28.9133 151.375 29.1C151.121 29.2867 150.995 29.52 150.995 29.8C150.995 30.0933 151.188 30.3267 151.575 30.5C151.961 30.6733 152.475 30.8333 153.115 30.98C153.808 31.14 154.441 31.32 155.015 31.52C155.601 31.7067 156.068 31.9933 156.415 32.38C156.761 32.7533 156.935 33.2933 156.935 34C156.948 34.6133 156.788 35.1667 156.455 35.66C156.121 36.1533 155.641 36.54 155.015 36.82C154.388 37.1 153.648 37.24 152.795 37.24ZM160.582 25.54C160.116 25.54 159.729 25.4 159.422 25.12C159.129 24.84 158.982 24.4867 158.982 24.06C158.982 23.6333 159.129 23.2867 159.422 23.02C159.729 22.74 160.116 22.6 160.582 22.6C161.049 22.6 161.429 22.74 161.722 23.02C162.029 23.2867 162.182 23.6333 162.182 24.06C162.182 24.4867 162.029 24.84 161.722 25.12C161.429 25.4 161.049 25.54 160.582 25.54ZM159.302 37V27.08H161.862V37H159.302ZM169.294 37.24C168.334 37.24 167.468 37.02 166.694 36.58C165.934 36.14 165.328 35.5333 164.874 34.76C164.434 33.9733 164.214 33.0667 164.214 32.04C164.214 31.0133 164.441 30.1133 164.894 29.34C165.348 28.5533 165.954 27.94 166.714 27.5C167.488 27.06 168.354 26.84 169.314 26.84C170.261 26.84 171.114 27.06 171.874 27.5C172.648 27.94 173.254 28.5533 173.694 29.34C174.148 30.1133 174.374 31.0133 174.374 32.04C174.374 33.0667 174.148 33.9733 173.694 34.76C173.254 35.5333 172.648 36.14 171.874 36.58C171.101 37.02 170.241 37.24 169.294 37.24ZM169.294 35.02C169.961 35.02 170.541 34.7733 171.034 34.28C171.528 33.7733 171.774 33.0267 171.774 32.04C171.774 31.0533 171.528 30.3133 171.034 29.82C170.541 29.3133 169.968 29.06 169.314 29.06C168.634 29.06 168.048 29.3133 167.554 29.82C167.074 30.3133 166.834 31.0533 166.834 32.04C166.834 33.0267 167.074 33.7733 167.554 34.28C168.048 34.7733 168.628 35.02 169.294 35.02ZM176.663 37V27.08H178.923L179.123 28.76C179.43 28.1733 179.87 27.7067 180.443 27.36C181.03 27.0133 181.717 26.84 182.503 26.84C183.73 26.84 184.683 27.2267 185.363 28C186.043 28.7733 186.383 29.9067 186.383 31.4V37H183.823V31.64C183.823 30.7867 183.65 30.1333 183.303 29.68C182.957 29.2267 182.417 29 181.683 29C180.963 29 180.37 29.2533 179.903 29.76C179.45 30.2667 179.223 30.9733 179.223 31.88V37H176.663Z" fill="#02043A"/>
<path d="M78.84 55.556V54.31H81.486V51.832H82.774V54.31H85.42V55.556H82.774V58.048H81.486V55.556H78.84ZM91.2272 59V50.88L89.6452 51.244V50.152L91.8152 49.2H92.7672V59H91.2272ZM94.2822 59V57.936C94.9169 57.432 95.5236 56.9233 96.1022 56.41C96.6809 55.8967 97.1942 55.3927 97.6422 54.898C98.0996 54.394 98.4589 53.904 98.7202 53.428C98.9816 52.9427 99.1122 52.476 99.1122 52.028C99.1122 51.7293 99.0609 51.4493 98.9582 51.188C98.8556 50.9173 98.6876 50.7027 98.4542 50.544C98.2209 50.376 97.9082 50.292 97.5162 50.292C96.9282 50.292 96.4849 50.4787 96.1862 50.852C95.8969 51.2253 95.7569 51.6733 95.7662 52.196H94.3242C94.3336 51.5053 94.4782 50.9267 94.7582 50.46C95.0476 49.9933 95.4302 49.6387 95.9062 49.396C96.3916 49.1533 96.9376 49.032 97.5442 49.032C98.4682 49.032 99.2056 49.2933 99.7562 49.816C100.316 50.3293 100.596 51.048 100.596 51.972C100.596 52.5227 100.461 53.0687 100.19 53.61C99.9289 54.1513 99.5836 54.674 99.1542 55.178C98.7342 55.6727 98.2816 56.1393 97.7962 56.578C97.3109 57.0167 96.8489 57.4133 96.4102 57.768H100.89V59H94.2822ZM101.328 60.652L102.14 57.348H103.61L102.322 60.652H101.328ZM108.077 59.168C107.433 59.168 106.883 59.042 106.425 58.79C105.968 58.538 105.609 58.202 105.347 57.782C105.095 57.362 104.941 56.9047 104.885 56.41H106.271C106.355 56.8953 106.556 57.2687 106.873 57.53C107.191 57.7913 107.597 57.922 108.091 57.922C108.773 57.922 109.333 57.6047 109.771 56.97C110.219 56.326 110.457 55.3413 110.485 54.016C110.261 54.4267 109.911 54.7767 109.435 55.066C108.969 55.3553 108.427 55.5 107.811 55.5C107.261 55.5 106.743 55.3693 106.257 55.108C105.772 54.8467 105.38 54.4827 105.081 54.016C104.783 53.54 104.633 52.98 104.633 52.336C104.633 51.7667 104.773 51.23 105.053 50.726C105.333 50.222 105.725 49.816 106.229 49.508C106.743 49.1907 107.349 49.032 108.049 49.032C108.768 49.032 109.375 49.1673 109.869 49.438C110.364 49.7087 110.761 50.068 111.059 50.516C111.358 50.964 111.573 51.468 111.703 52.028C111.843 52.588 111.913 53.162 111.913 53.75C111.913 54.8327 111.759 55.78 111.451 56.592C111.153 57.404 110.719 58.0387 110.149 58.496C109.58 58.944 108.889 59.168 108.077 59.168ZM108.147 54.226C108.539 54.226 108.889 54.1373 109.197 53.96C109.505 53.7827 109.748 53.5493 109.925 53.26C110.112 52.9613 110.205 52.6347 110.205 52.28C110.205 51.8973 110.112 51.5613 109.925 51.272C109.748 50.9733 109.501 50.74 109.183 50.572C108.875 50.404 108.525 50.32 108.133 50.32C107.741 50.32 107.391 50.404 107.083 50.572C106.775 50.74 106.528 50.9733 106.341 51.272C106.164 51.5613 106.075 51.8927 106.075 52.266C106.075 52.8633 106.271 53.3393 106.663 53.694C107.055 54.0487 107.55 54.226 108.147 54.226ZM117.273 59.168C116.386 59.168 115.621 58.958 114.977 58.538C114.342 58.1087 113.852 57.516 113.507 56.76C113.171 55.9947 113.003 55.108 113.003 54.1C113.003 53.092 113.171 52.21 113.507 51.454C113.852 50.6887 114.342 50.096 114.977 49.676C115.621 49.2467 116.386 49.032 117.273 49.032C118.16 49.032 118.92 49.2467 119.555 49.676C120.19 50.096 120.675 50.6887 121.011 51.454C121.356 52.21 121.529 53.092 121.529 54.1C121.529 55.108 121.356 55.9947 121.011 56.76C120.675 57.516 120.19 58.1087 119.555 58.538C118.92 58.958 118.16 59.168 117.273 59.168ZM117.273 57.838C117.805 57.838 118.276 57.6887 118.687 57.39C119.107 57.0913 119.434 56.662 119.667 56.102C119.9 55.542 120.017 54.8747 120.017 54.1C120.017 53.3253 119.9 52.658 119.667 52.098C119.434 51.538 119.107 51.1087 118.687 50.81C118.276 50.5113 117.805 50.362 117.273 50.362C116.732 50.362 116.256 50.5113 115.845 50.81C115.434 51.1087 115.112 51.538 114.879 52.098C114.646 52.658 114.529 53.3253 114.529 54.1C114.529 54.8747 114.646 55.542 114.879 56.102C115.112 56.662 115.434 57.0913 115.845 57.39C116.256 57.6887 116.732 57.838 117.273 57.838ZM124.793 53.876C124.354 53.876 123.958 53.778 123.603 53.582C123.258 53.386 122.982 53.1107 122.777 52.756C122.572 52.392 122.469 51.958 122.469 51.454C122.469 50.9593 122.572 50.5347 122.777 50.18C122.982 49.816 123.262 49.536 123.617 49.34C123.972 49.144 124.368 49.046 124.807 49.046C125.236 49.046 125.624 49.144 125.969 49.34C126.324 49.536 126.604 49.816 126.809 50.18C127.014 50.5347 127.117 50.9593 127.117 51.454C127.117 51.958 127.014 52.392 126.809 52.756C126.604 53.1107 126.324 53.386 125.969 53.582C125.624 53.778 125.232 53.876 124.793 53.876ZM124.093 59L129.707 49.2H131.163L125.563 59H124.093ZM124.793 52.812C125.092 52.812 125.348 52.7 125.563 52.476C125.787 52.2427 125.899 51.902 125.899 51.454C125.899 51.006 125.792 50.67 125.577 50.446C125.362 50.2127 125.101 50.096 124.793 50.096C124.494 50.096 124.233 50.2127 124.009 50.446C123.785 50.67 123.673 51.006 123.673 51.454C123.673 51.902 123.78 52.2427 123.995 52.476C124.219 52.7 124.485 52.812 124.793 52.812ZM130.547 59.168C130.108 59.168 129.712 59.07 129.357 58.874C129.012 58.678 128.736 58.4027 128.531 58.048C128.326 57.684 128.223 57.25 128.223 56.746C128.223 56.2513 128.326 55.822 128.531 55.458C128.736 55.094 129.016 54.814 129.371 54.618C129.726 54.422 130.122 54.324 130.561 54.324C130.99 54.324 131.378 54.422 131.723 54.618C132.078 54.814 132.358 55.094 132.563 55.458C132.768 55.822 132.871 56.2513 132.871 56.746C132.871 57.25 132.768 57.684 132.563 58.048C132.358 58.4027 132.078 58.678 131.723 58.874C131.378 59.07 130.986 59.168 130.547 59.168ZM130.547 58.09C130.846 58.09 131.102 57.978 131.317 57.754C131.541 57.53 131.653 57.194 131.653 56.746C131.653 56.298 131.546 55.962 131.331 55.738C131.116 55.5047 130.855 55.388 130.547 55.388C130.248 55.388 129.987 55.5047 129.763 55.738C129.539 55.962 129.427 56.298 129.427 56.746C129.427 57.194 129.534 57.53 129.749 57.754C129.973 57.978 130.239 58.09 130.547 58.09Z" fill="#44D3E7"/>
<g filter="url(#filter0_d_93_221)">
<rect x="20" y="20" width="44" height="44" rx="14" fill="#44D3E7"/>
<rect x="20" y="20" width="44" height="44" rx="14" fill="url(#paint0_linear_93_221)"/>
<rect x="20.5" y="20.5" width="43" height="43" rx="13.5" stroke="white" stroke-opacity="0.2"/>
</g>
<path fill-rule="evenodd" clip-rule="evenodd" d="M41.1811 42.8284L41.4325 43.0778C42.4342 44.0623 43.3802 44.8885 44.0449 45.3467C44.0551 45.3569 44.7246 45.8012 44.9817 45.9148C45.3623 46.0701 45.7934 46.0939 46.1928 45.9827C46.5 45.8811 46.7666 45.7188 46.9911 45.4943C47.1594 45.3097 47.3616 44.9299 47.4948 44.6478L47.6013 44.409C48.2904 42.8118 48.9919 39.1426 48.9214 37.3983L48.9197 37.2731L48.8979 36.7006C48.844 36.2996 48.6578 35.9297 48.3587 35.6306C48.0907 35.3627 47.741 35.1765 47.361 35.1235C47.2418 35.1023 47.073 35.0912 46.9268 35.0853L46.3781 35.0728C44.5212 35.0606 41.2131 35.7468 39.7436 36.3477C39.7342 36.3383 38.8222 36.7129 38.5058 37.0091L38.4649 37.0499C37.9952 37.5197 37.8242 38.2266 38.0328 38.8841C38.0899 39.0638 38.263 39.3546 38.4219 39.603L38.7261 40.068C39.2527 40.7782 40.1405 41.7878 41.1811 42.8284ZM35.6255 46.2274C35.0385 46.8144 35.0431 47.7709 35.6359 48.3637C36.2286 48.9564 37.1851 48.961 37.7722 48.374L40.1566 45.5269C40.6171 45.0664 40.6142 44.3169 40.1485 43.8511C39.6835 43.3861 38.9331 43.3825 38.4726 43.843L35.6255 46.2274Z" fill="white"/>
<rect x="22" y="137" width="10" height="27" rx="5" fill="url(#paint1_linear_93_221)"/>
<rect x="44" y="126" width="10" height="38" rx="5" fill="url(#paint2_linear_93_221)"/>
<rect x="66" y="119" width="10" height="45" rx="5" fill="url(#paint3_linear_93_221)"/>
<rect x="88" y="116" width="10" height="48" rx="5" fill="url(#paint4_linear_93_221)"/>
<rect x="110" y="112" width="10" height="52" rx="5" fill="url(#paint5_linear_93_221)"/>
<rect x="132" y="102" width="10" height="62" rx="5" fill="url(#paint6_linear_93_221)"/>
<rect x="154" y="94" width="10" height="70" rx="5" fill="url(#paint7_linear_93_221)"/>
<rect x="176" y="97" width="10" height="67" rx="5" fill="url(#paint8_linear_93_221)"/>
<rect x="198" y="82" width="10" height="82" rx="5" fill="url(#paint9_linear_93_221)"/>
<rect x="220" y="73" width="10" height="91" rx="5" fill="url(#paint10_linear_93_221)"/>
<defs>
<filter id="filter0_d_93_221" x="16" y="16" width="52" height="52" filterUnits="userSpaceOnUse" color-interpolation-filters="sRGB">
<feFlood flood-opacity="0" result="BackgroundImageFix"/>
<feColorMatrix in="SourceAlpha" type="matrix" values="0 0 0 0 0 0 0 0 0 0 0 0 0 0 0 0 0 0 127 0" result="hardAlpha"/>
<feMorphology radius="4" operator="dilate" in="SourceAlpha" result="effect1_dropShadow_93_221"/>
<feOffset/>
<feComposite in2="hardAlpha" operator="out"/>
<feColorMatrix type="matrix" values="0 0 0 0 0.266667 0 0 0 0 0.827451 0 0 0 0 0.905882 0 0 0 0.22 0"/>
<feBlend mode="normal" in2="BackgroundImageFix" result="effect1_dropShadow_93_221"/>
<feBlend mode="normal" in="SourceGraphic" in2="effect1_dropShadow_93_221" result="shape"/>
</filter>
<linearGradient id="paint0_linear_93_221" x1="42" y1="20" x2="42" y2="64" gradientUnits="userSpaceOnUse">
<stop stop-color="white" stop-opacity="0.24"/>
<stop offset="1" stop-color="white" stop-opacity="0"/>
</linearGradient>
<linearGradient id="paint1_linear_93_221" x1="27" y1="137" x2="27" y2="165.035" gradientUnits="userSpaceOnUse">
<stop stop-color="#047AFF"/>
<stop offset="1" stop-color="#05ACF2"/>
</linearGradient>
<linearGradient id="paint2_linear_93_221" x1="49" y1="126" x2="49" y2="165.457" gradientUnits="userSpaceOnUse">
<stop stop-color="#047AFF"/>
<stop offset="1" stop-color="#05ACF2"/>
</linearGradient>
<linearGradient id="paint3_linear_93_221" x1="71" y1="119" x2="71" y2="165.725" gradientUnits="userSpaceOnUse">
<stop stop-color="#047AFF"/>
<stop offset="1" stop-color="#05ACF2"/>
</linearGradient>
<linearGradient id="paint4_linear_93_221" x1="93" y1="116" x2="93" y2="165.84" gradientUnits="userSpaceOnUse">
<stop stop-color="#047AFF"/>
<stop offset="1" stop-color="#05ACF2"/>
</linearGradient>
<linearGradient id="paint5_linear_93_221" x1="115" y1="112" x2="115" y2="165.993" gradientUnits="userSpaceOnUse">
<stop stop-color="#047AFF"/>
<stop offset="1" stop-color="#05ACF2"/>
</linearGradient>
<linearGradient id="paint6_linear_93_221" x1="137" y1="102" x2="137" y2="166.377" gradientUnits="userSpaceOnUse">
<stop stop-color="#047AFF"/>
<stop offset="1" stop-color="#05ACF2"/>
</linearGradient>
<linearGradient id="paint7_linear_93_221" x1="159" y1="94" x2="159" y2="166.683" gradientUnits="userSpaceOnUse">
<stop stop-color="#047AFF"/>
<stop offset="1" stop-color="#05ACF2"/>
</linearGradient>
<linearGradient id="paint8_linear_93_221" x1="181" y1="97" x2="181" y2="166.568" gradientUnits="userSpaceOnUse">
<stop stop-color="#047AFF"/>
<stop offset="1" stop-color="#05ACF2"/>
</linearGradient>
<linearGradient id="paint9_linear_93_221" x1="203" y1="82" x2="203" y2="167.143" gradientUnits="userSpaceOnUse">
<stop stop-color="#047AFF"/>
<stop offset="1" stop-color="#05ACF2"/>
</linearGradient>
<linearGradient id="paint10_linear_93_221" x1="225" y1="73" x2="225" y2="167.488" gradientUnits="userSpaceOnUse">
<stop stop-color="#047AFF"/>
<stop offset="1" stop-color="#05ACF2"/>
</linearGradient>
</defs>
</svg>
