<svg width="141" height="28" viewBox="0 0 141 28" fill="none" xmlns="http://www.w3.org/2000/svg">
<g clip-path="url(#clip0_147_1238)">
<path d="M11.4538 4.57175C9.80553 4.57175 9.32898 5.3028 9.32898 6.91522V9.59005H13.7255L13.2849 13.9114H9.33069V27.026H4.05448V13.9114H0.5V9.59005H4.05448V6.98866C4.05448 2.62968 5.81208 0.327216 10.7159 0.327216C11.7435 0.324825 12.7704 0.385801 13.7904 0.509978V4.57688L11.4538 4.57175Z" fill="#1877F2"/>
<path d="M14.0908 17.7581C14.0908 12.8867 16.3984 9.21777 21.2339 9.21777C23.8711 9.21777 25.4818 10.574 26.2522 12.2581V9.59013H31.3063V27.026H26.2522V24.3888C25.5194 26.0747 23.8711 27.3933 21.2339 27.3933C16.3984 27.3933 14.0908 23.7295 14.0908 18.853V17.7581ZM19.3653 18.9315C19.3653 21.5312 20.3167 23.2529 22.7711 23.2529C24.9336 23.2529 26.0318 21.6781 26.0318 19.1877V17.437C26.0318 14.9466 24.9336 13.3718 22.7711 13.3718C20.3167 13.3718 19.3653 15.0935 19.3653 17.6932V18.9315Z" fill="#1877F2"/>
<path d="M42.2959 9.22363C44.3456 9.22363 46.2877 9.66431 47.3501 10.3954L46.1784 14.1326C45.0794 13.6093 43.8786 13.3339 42.6614 13.3264C39.8039 13.3264 38.5621 14.9747 38.5621 17.7964V18.8212C38.5621 21.643 39.8073 23.2912 42.6614 23.2912C43.8786 23.2836 45.0794 23.0084 46.1784 22.485L47.3501 26.2206C46.2877 26.9533 44.3473 27.394 42.2959 27.394C36.1042 27.394 33.2842 24.0599 33.2842 18.7119V17.9057C33.2842 12.5578 36.1042 9.22363 42.2959 9.22363Z" fill="#1877F2"/>
<path d="M48.0459 18.9742V17.437C48.0459 12.4921 50.8659 9.23828 56.6186 9.23828C62.04 9.23828 64.4211 12.5348 64.4211 17.3704V20.1545H53.3187C53.4297 22.5356 54.4921 23.598 57.418 23.598C59.3977 23.598 61.4849 23.1949 63.0239 22.5356L63.9889 26.1481C62.5969 26.8826 59.7393 27.4309 57.213 27.4309C50.5362 27.4292 48.0459 24.0984 48.0459 18.9742ZM53.3204 16.7025H59.6949V16.2635C59.6949 14.3591 58.9262 12.8474 56.6203 12.8474C54.2376 12.8491 53.3204 14.3522 53.3204 16.6957V16.7025Z" fill="#1877F2"/>
<path d="M83.9729 18.8582C83.9729 23.7296 81.6294 27.3985 76.799 27.3985C74.1617 27.3985 72.3307 26.0799 71.5979 24.394V27.0313H66.6172V0.834704L71.8917 0.356445V12.0054C72.6604 10.4682 74.3462 9.2213 76.8007 9.2213C81.6362 9.2213 83.9746 12.8851 83.9746 17.7616L83.9729 18.8582ZM78.6984 17.6489C78.6984 15.1944 77.747 13.3634 75.219 13.3634C73.0566 13.3634 71.8849 14.9006 71.8849 17.3927V19.2237C71.8849 21.7141 73.0566 23.253 75.219 23.253C77.747 23.253 78.6984 21.422 78.6984 18.9675V17.6489Z" fill="#1877F2"/>
<path d="M85.7383 18.7478V17.8699C85.7383 12.8499 88.5959 9.22363 94.4204 9.22363C100.245 9.22363 103.104 12.8499 103.104 17.8699V18.7478C103.104 23.7661 100.246 27.394 94.4221 27.394C88.5976 27.394 85.7383 23.7661 85.7383 18.7478ZM97.828 17.5026C97.828 15.195 96.8749 13.364 94.4119 13.364C91.9489 13.364 91.0043 15.195 91.0043 17.5026V19.115C91.0043 21.4226 91.9574 23.2537 94.4119 23.2537C96.8664 23.2537 97.828 21.4226 97.828 19.115V17.5026Z" fill="#1877F2"/>
<path d="M104.857 18.7478V17.8699C104.857 12.8499 107.715 9.22363 113.54 9.22363C119.364 9.22363 122.222 12.8499 122.222 17.8699V18.7478C122.222 23.7661 119.364 27.394 113.54 27.394C107.715 27.394 104.857 23.7661 104.857 18.7478ZM116.947 17.5026C116.947 15.195 115.994 13.364 113.54 13.364C111.085 13.364 110.134 15.195 110.134 17.5026V19.115C110.134 21.4226 111.085 23.2537 113.54 23.2537C115.994 23.2537 116.947 21.4226 116.947 19.115V17.5026Z" fill="#1877F2"/>
<path d="M129.474 17.9051L134.675 9.59024H140.279L134.822 18.1989L140.5 27.0262H134.896L129.474 18.4858V27.0262H124.198V0.834704L129.474 0.356445V17.9051Z" fill="#1877F2"/>
</g>
<defs>
<clipPath id="clip0_147_1238">
<rect width="141" height="28" fill="white"/>
</clipPath>
</defs>
</svg>
