<svg width="278" height="249" viewBox="0 0 278 249" fill="none" xmlns="http://www.w3.org/2000/svg">
<path d="M56.1426 113.336C56.1426 92.9865 72.6389 76.4902 92.9881 76.4902H142.837C163.186 76.4902 179.683 92.9865 179.683 113.336V163.185C179.683 183.534 163.186 200.03 142.837 200.03H92.9881C72.6389 200.03 56.1426 183.534 56.1426 163.185V113.336Z" stroke="white" stroke-width="3"/>
<path d="M177.965 238.023C177.965 226.575 187.246 217.294 198.694 217.294H226.942C238.39 217.294 247.671 226.575 247.671 238.023V266.271C247.671 277.719 238.39 287 226.942 287H198.694C187.246 287 177.965 277.719 177.965 266.271V238.023Z" stroke="#44D3E7" stroke-width="2"/>
<path d="M77.2324 121.644C77.2324 108.354 88.0061 97.5801 101.296 97.5801H134.529C147.819 97.5801 158.593 108.354 158.593 121.644V154.877C158.593 168.167 147.819 178.94 134.529 178.94H101.296C88.0061 178.94 77.2324 168.167 77.2324 154.877V121.644Z" stroke="#44D3E7" stroke-width="3"/>
<path opacity="0.3" d="M61.4688 234.507C61.4688 230.548 64.6785 227.338 68.6379 227.338H78.6077C82.5671 227.338 85.7768 230.548 85.7768 234.507V244.477C85.7768 248.436 82.5671 251.646 78.6077 251.646H68.6379C64.6785 251.646 61.4688 248.436 61.4688 244.477V234.507Z" stroke="white"/>
<path d="M1.77246 28.2811C1.77246 23.9119 5.15635 20.4434 9.24195 20.4434H20.2523C24.3379 20.4434 27.7218 23.9119 27.7218 28.2811V39.7701C27.7218 44.1393 24.3379 47.6079 20.2523 47.6079H9.24195C5.15635 47.6079 1.77246 44.1393 1.77246 39.7701V28.2811Z" stroke="#44D3E7" stroke-width="2"/>
<path d="M149.548 55.8179C149.548 43.1113 159.849 32.8105 172.555 32.8105H202.465C215.171 32.8105 225.472 43.1113 225.472 55.8179V85.7274C225.472 98.4339 215.171 108.735 202.465 108.735H172.555C159.849 108.735 149.548 98.4339 149.548 85.7274V55.8179Z" fill="white" fill-opacity="0.16"/>
<path d="M277.12 14.7295C277.12 6.87079 283.491 0.5 291.35 0.5H310.498C318.357 0.5 324.728 6.87079 324.728 14.7295V33.878C324.728 41.7367 318.357 48.1075 310.498 48.1075H291.35C283.491 48.1075 277.12 41.7367 277.12 33.878V14.7295Z" stroke="#44D3E7"/>
</svg>
