<svg width="64" height="71" viewBox="0 0 64 71" fill="none" xmlns="http://www.w3.org/2000/svg">
<g clip-path="url(#clip0_227_10560)">
<path d="M5.51562 55.38L32.4092 68.9715L58.2816 55.38V2.23145H5.51562V55.38Z" fill="white"/>
<path d="M58.826 2.43457L4.9707 56.3269L32.8856 70.0536L58.826 56.8679V2.43457Z" fill="#F2F3F2"/>
<path d="M3.74414 19.9479V56.5298L4.69733 57.0032L31.591 70.5946L32.408 71.0003L33.225 70.5946L59.1654 57.0032L60.1186 56.5298V0.473633H3.74414V19.9479ZM5.51435 55.5155V2.23173H58.3484V55.5155L32.408 69.107L5.51435 55.5155Z" fill="#DCDEDC"/>
<path d="M31.932 3.11078C32.2044 3.11078 32.4767 3.11078 32.7491 3.17839L31.932 4.73363C30.7065 4.66601 29.6171 5.61268 29.5491 6.82982C29.481 8.04697 30.4342 9.12887 31.6597 9.19649H31.932C32.4767 9.19649 33.0214 8.99363 33.4299 8.65554L34.315 10.1432C33.6342 10.6165 32.8171 10.887 31.932 10.887C29.7533 10.9546 27.915 9.33173 27.8469 7.16792C27.7788 5.00411 29.4129 3.17839 31.5916 3.11078H31.932ZM34.7235 6.42411L35.7448 8.11459L34.7235 9.73744L33.7703 8.11459H31.7959L32.8171 6.42411H34.7235ZM33.0895 5.81554C33.0895 5.54506 33.1576 5.27459 33.2937 5.07173C33.4299 4.86887 33.7023 4.66601 33.9065 4.53078L34.0427 4.46316C34.315 4.32792 34.3831 4.2603 34.3831 4.12506C34.3831 3.98982 34.1788 3.85459 34.0427 3.85459C33.7703 3.85459 33.5661 3.98982 33.4299 4.2603L33.0895 3.9222C33.1576 3.78697 33.2937 3.65173 33.4299 3.51649C33.6342 3.38125 33.8384 3.38125 34.0427 3.38125C34.2469 3.38125 34.5193 3.44887 34.6554 3.58411C34.7916 3.71935 34.9278 3.9222 34.9278 4.12506C34.9278 4.46316 34.7235 4.73363 34.315 4.86887L34.1108 5.00411C33.9065 5.13935 33.7703 5.20697 33.7022 5.40982H34.9278V5.88316L33.0895 5.81554ZM31.932 14.2679L38.4001 10.6165V0.473633H25.3959V10.5489L31.932 14.2679ZM61.4129 38.2051H2.45118L0.272461 42.9384L2.45118 47.6717H61.4129L63.5235 42.9384L61.4129 38.2051Z" fill="#FF492C"/>
<path d="M12.9975 35.1626C12.9566 35.1626 12.9226 35.1491 12.8953 35.122C12.8681 35.0905 12.8545 35.0544 12.8545 35.0138V26.7913C12.8545 26.7508 12.8681 26.7147 12.8953 26.6831C12.9226 26.6561 12.9566 26.6426 12.9975 26.6426H14.4341C14.4749 26.6426 14.509 26.6561 14.5362 26.6831C14.568 26.7147 14.5839 26.7508 14.5839 26.7913V33.6276C14.5839 33.6682 14.6043 33.6885 14.6451 33.6885H18.6485C18.6894 33.6885 18.7257 33.702 18.7575 33.7291C18.7847 33.7606 18.7983 33.7967 18.7983 33.8372V35.0138C18.7983 35.0544 18.7847 35.0905 18.7575 35.122C18.7257 35.1491 18.6894 35.1626 18.6485 35.1626H12.9975ZM25.3277 31.3894C25.3776 31.696 25.3935 32.0408 25.3753 32.424C25.3708 32.5232 25.3186 32.5728 25.2187 32.5728H21.4332C21.3833 32.5728 21.3674 32.5931 21.3856 32.6336C21.4083 32.7959 21.4514 32.9582 21.5149 33.1205C21.7283 33.5713 22.1617 33.7967 22.8153 33.7967C23.3373 33.7922 23.7504 33.5825 24.0545 33.1678C24.0863 33.1182 24.1226 33.0934 24.1634 33.0934C24.1907 33.0934 24.2202 33.1092 24.2519 33.1408L25.1302 34.0063C25.1711 34.0469 25.1915 34.0829 25.1915 34.1145C25.1915 34.1325 25.1756 34.1663 25.1439 34.2159C24.8761 34.545 24.5288 34.8019 24.1022 34.9868C23.68 35.1671 23.2148 35.2572 22.7064 35.2572C22.0029 35.2572 21.4083 35.0995 20.9226 34.7839C20.4369 34.4684 20.0874 34.0266 19.8741 33.4586C19.7016 33.0529 19.6153 32.5209 19.6153 31.8628C19.6153 31.4165 19.6766 31.0243 19.7992 30.6862C19.9898 30.1092 20.3189 29.6494 20.7864 29.3068C21.2585 28.9687 21.8168 28.7996 22.4613 28.7996C23.2783 28.7996 23.9342 29.034 24.429 29.5029C24.9237 29.9717 25.2233 30.6005 25.3277 31.3894ZM22.4749 30.2805C21.9575 30.2805 21.617 30.5194 21.4536 30.9972C21.4219 31.1054 21.3946 31.2362 21.3719 31.3894C21.3719 31.43 21.3924 31.4503 21.4332 31.4503H23.5507C23.6006 31.4503 23.6165 31.43 23.5983 31.3894C23.5575 31.155 23.537 31.0423 23.537 31.0513C23.4644 30.8079 23.3373 30.6186 23.1558 30.4833C22.9697 30.3481 22.7427 30.2805 22.4749 30.2805ZM28.8953 28.8064C29.4264 28.8064 29.9007 28.8988 30.3183 29.0836C30.7359 29.2639 31.0604 29.5141 31.2919 29.8342C31.5234 30.1498 31.6392 30.5014 31.6392 30.8891V35.0138C31.6392 35.0544 31.6256 35.0905 31.5983 35.122C31.5711 35.1491 31.537 35.1626 31.4962 35.1626H30.0596C30.0187 35.1626 29.9847 35.1491 29.9575 35.122C29.9257 35.0905 29.9098 35.0544 29.9098 35.0138V34.6149C29.9098 34.5923 29.903 34.5765 29.8894 34.5675C29.8712 34.5585 29.8553 34.5653 29.8417 34.5878C29.4968 35.0341 28.9453 35.2572 28.1873 35.2572C27.5473 35.2572 27.0321 35.104 26.6417 34.7974C26.2468 34.4909 26.0494 34.0356 26.0494 33.4315C26.0494 32.8094 26.2718 32.3248 26.7166 31.9777C27.1569 31.6351 27.7856 31.4638 28.6026 31.4638H29.8485C29.8894 31.4638 29.9098 31.4435 29.9098 31.403V31.1325C29.9098 30.8665 29.8281 30.6569 29.6647 30.5036C29.5013 30.3549 29.2562 30.2805 28.9294 30.2805C28.6797 30.2805 28.4709 30.3256 28.303 30.4157C28.1351 30.5059 28.0261 30.6321 27.9762 30.7944C27.9535 30.8845 27.9013 30.9251 27.8196 30.9161L26.3353 30.72C26.2355 30.702 26.1901 30.6659 26.1992 30.6118C26.2309 30.2692 26.3671 29.9604 26.6077 29.6854C26.8483 29.4105 27.1683 29.1963 27.5677 29.0431C27.9626 28.8853 28.4051 28.8064 28.8953 28.8064ZM28.6502 33.9792C28.9997 33.9792 29.297 33.8868 29.5422 33.702C29.7873 33.5172 29.9098 33.2783 29.9098 32.9852V32.5457C29.9098 32.5051 29.8894 32.4849 29.8485 32.4849H28.9702C28.6026 32.4849 28.3144 32.5547 28.1056 32.6945C27.8968 32.8297 27.7924 33.0236 27.7924 33.276C27.7924 33.4969 27.8695 33.6682 28.0239 33.7899C28.1782 33.9161 28.387 33.9792 28.6502 33.9792ZM36.766 26.7913C36.766 26.7508 36.7796 26.7147 36.8068 26.6831C36.8341 26.6561 36.8681 26.6426 36.909 26.6426H38.3456C38.3864 26.6426 38.4204 26.6561 38.4477 26.6831C38.4749 26.7147 38.4885 26.7508 38.4885 26.7913V35.0138C38.4885 35.0544 38.4749 35.0905 38.4477 35.122C38.4204 35.1491 38.3864 35.1626 38.3456 35.1626H36.909C36.8681 35.1626 36.8341 35.1491 36.8068 35.122C36.7796 35.0905 36.766 35.0544 36.766 35.0138V34.6149C36.766 34.5923 36.7569 34.5788 36.7387 34.5743C36.7206 34.5698 36.7047 34.5743 36.6911 34.5878C36.3461 35.0341 35.8763 35.2572 35.2817 35.2572C34.7098 35.2572 34.2173 35.0995 33.8043 34.7839C33.3912 34.4684 33.0939 34.0356 32.9124 33.4856C32.7762 33.0619 32.7081 32.5705 32.7081 32.0115C32.7081 31.4345 32.7807 30.9319 32.926 30.5036C33.1166 29.9807 33.4139 29.5682 33.8179 29.2662C34.2219 28.9597 34.7212 28.8064 35.3158 28.8064C35.9058 28.8064 36.3643 29.0092 36.6911 29.415C36.7047 29.442 36.7206 29.451 36.7387 29.442C36.7569 29.433 36.766 29.4172 36.766 29.3947V26.7913ZM36.5073 33.2625C36.6707 32.965 36.7524 32.5547 36.7524 32.0318C36.7524 31.4909 36.6616 31.0649 36.48 30.7538C36.2939 30.4383 36.0216 30.2805 35.663 30.2805C35.2772 30.2805 34.9867 30.4383 34.7915 30.7538C34.5873 31.0739 34.4851 31.5044 34.4851 32.0453C34.4851 32.5322 34.5714 32.9379 34.7439 33.2625C34.9481 33.6141 35.25 33.7899 35.6494 33.7899C36.017 33.7899 36.303 33.6141 36.5073 33.2625ZM45.3651 31.3894C45.4151 31.696 45.4309 32.0408 45.4128 32.424C45.4083 32.5232 45.3561 32.5728 45.2562 32.5728H41.4707C41.4207 32.5728 41.4048 32.5931 41.423 32.6336C41.4457 32.7959 41.4888 32.9582 41.5524 33.1205C41.7657 33.5713 42.1992 33.7967 42.8528 33.7967C43.3748 33.7922 43.7878 33.5825 44.0919 33.1678C44.1237 33.1182 44.16 33.0934 44.2009 33.0934C44.2281 33.0934 44.2576 33.1092 44.2894 33.1408L45.1677 34.0063C45.2085 34.0469 45.229 34.0829 45.229 34.1145C45.229 34.1325 45.2131 34.1663 45.1813 34.2159C44.9135 34.545 44.5663 34.8019 44.1396 34.9868C43.7175 35.1671 43.2522 35.2572 42.7439 35.2572C42.0403 35.2572 41.4457 35.0995 40.96 34.7839C40.4743 34.4684 40.1248 34.0266 39.9115 33.4586C39.739 33.0529 39.6528 32.5209 39.6528 31.8628C39.6528 31.4165 39.7141 31.0243 39.8366 30.6862C40.0273 30.1092 40.3563 29.6494 40.8239 29.3068C41.2959 28.9687 41.8542 28.7996 42.4987 28.7996C43.3158 28.7996 43.9717 29.034 44.4664 29.5029C44.9612 29.9717 45.2607 30.6005 45.3651 31.3894ZM42.5124 30.2805C41.9949 30.2805 41.6545 30.5194 41.4911 30.9972C41.4593 31.1054 41.4321 31.2362 41.4094 31.3894C41.4094 31.43 41.4298 31.4503 41.4707 31.4503H43.5881C43.638 31.4503 43.6539 31.43 43.6358 31.3894C43.5949 31.155 43.5745 31.0423 43.5745 31.0513C43.5019 30.8079 43.3748 30.6186 43.1932 30.4833C43.0071 30.3481 42.7802 30.2805 42.5124 30.2805ZM49.6205 28.8199C49.9155 28.8199 50.147 28.8763 50.3149 28.989C50.383 29.025 50.408 29.0859 50.3898 29.1715L50.1311 30.5645C50.1265 30.6591 50.0698 30.6862 49.9609 30.6456C49.8383 30.6051 49.6953 30.5848 49.5319 30.5848C49.4684 30.5848 49.3799 30.5938 49.2664 30.6118C48.9714 30.6344 48.7217 30.7403 48.5175 30.9296C48.3132 31.1235 48.2111 31.3782 48.2111 31.6937V35.0138C48.2111 35.0544 48.1975 35.0905 48.1702 35.122C48.1385 35.1491 48.1022 35.1626 48.0613 35.1626H46.6315C46.5907 35.1626 46.5543 35.1491 46.5226 35.122C46.4953 35.0905 46.4817 35.0544 46.4817 35.0138V29.0498C46.4817 29.0092 46.4953 28.9754 46.5226 28.9484C46.5543 28.9213 46.5907 28.9078 46.6315 28.9078H48.0613C48.1022 28.9078 48.1385 28.9213 48.1702 28.9484C48.1975 28.9754 48.2111 29.0092 48.2111 29.0498V29.5164C48.2111 29.5389 48.2179 29.5547 48.2315 29.5637C48.2497 29.5727 48.2633 29.5682 48.2724 29.5502C48.6082 29.0633 49.0576 28.8199 49.6205 28.8199Z" fill="#252530"/>
<path d="M21.2426 45.5751C21.1927 45.5751 21.1609 45.5526 21.1473 45.5075L19.9082 40.9297L19.9014 40.9027C19.9014 40.8621 19.9263 40.8418 19.9763 40.8418H20.6435C20.6934 40.8418 20.7252 40.8643 20.7388 40.9094L21.515 43.9928C21.5195 44.0064 21.5263 44.0131 21.5354 44.0131C21.5445 44.0131 21.5513 44.0064 21.5558 43.9928L22.298 40.9094C22.3116 40.8643 22.3411 40.8418 22.3865 40.8418H23.0401C23.09 40.8418 23.1218 40.8643 23.1354 40.9094L23.9252 43.9996C23.9297 44.0131 23.9365 44.0199 23.9456 44.0199C23.9547 44.0199 23.9615 44.0131 23.966 43.9996L24.7286 40.9094C24.7422 40.8643 24.774 40.8418 24.8239 40.8418H25.4571C25.5207 40.8418 25.5456 40.8711 25.532 40.9297L24.3541 45.5075C24.3405 45.5526 24.3087 45.5751 24.2588 45.5751H23.6256C23.5757 45.5751 23.5439 45.5526 23.5303 45.5075L22.7337 42.2821C22.7292 42.2686 22.7224 42.2595 22.7133 42.255C22.7042 42.255 22.6974 42.2641 22.6929 42.2821L21.9303 45.5075C21.9167 45.5526 21.8872 45.5751 21.8418 45.5751H21.2426ZM26.2877 45.5751C26.2651 45.5751 26.2446 45.5661 26.2265 45.5481C26.2129 45.5346 26.206 45.5165 26.206 45.494V40.9229C26.206 40.9004 26.2129 40.8824 26.2265 40.8688C26.2446 40.8508 26.2651 40.8418 26.2877 40.8418H26.9141C26.9368 40.8418 26.955 40.8508 26.9686 40.8688C26.9868 40.8824 26.9958 40.9004 26.9958 40.9229V45.494C26.9958 45.5165 26.9868 45.5346 26.9686 45.5481C26.955 45.5661 26.9368 45.5751 26.9141 45.5751H26.2877ZM30.7609 40.9229C30.7609 40.9004 30.7678 40.8824 30.7814 40.8688C30.7995 40.8508 30.8199 40.8418 30.8426 40.8418H31.469C31.4917 40.8418 31.5099 40.8508 31.5235 40.8688C31.5417 40.8824 31.5507 40.9004 31.5507 40.9229V45.494C31.5507 45.5165 31.5417 45.5346 31.5235 45.5481C31.5099 45.5661 31.4917 45.5751 31.469 45.5751H30.8631C30.8177 45.5751 30.7859 45.5571 30.7678 45.521L28.8069 42.3294C28.7978 42.3159 28.7887 42.3091 28.7797 42.3091C28.7706 42.3136 28.766 42.3249 28.766 42.3429L28.7797 45.494C28.7797 45.5165 28.7706 45.5346 28.7524 45.5481C28.7388 45.5661 28.7207 45.5751 28.698 45.5751H28.0716C28.0489 45.5751 28.0285 45.5661 28.0103 45.5481C27.9967 45.5346 27.9899 45.5165 27.9899 45.494V40.9229C27.9899 40.9004 27.9967 40.8824 28.0103 40.8688C28.0285 40.8508 28.0489 40.8418 28.0716 40.8418H28.6775C28.7229 40.8418 28.7547 40.8598 28.7729 40.8959L30.7269 44.0875C30.736 44.101 30.7451 44.1055 30.7541 44.101C30.7632 44.101 30.7678 44.092 30.7678 44.074L30.7609 40.9229ZM35.6767 40.8418C35.6994 40.8418 35.7175 40.8508 35.7312 40.8688C35.7493 40.8824 35.7584 40.9004 35.7584 40.9229V41.4436C35.7584 41.4661 35.7493 41.4842 35.7312 41.4977C35.7175 41.5157 35.6994 41.5247 35.6767 41.5247H34.4239C34.4012 41.5247 34.3899 41.536 34.3899 41.5586V45.494C34.3899 45.5165 34.3831 45.5346 34.3695 45.5481C34.3513 45.5661 34.3309 45.5751 34.3082 45.5751H33.6818C33.6591 45.5751 33.6409 45.5661 33.6273 45.5481C33.6092 45.5346 33.6001 45.5165 33.6001 45.494V41.5586C33.6001 41.536 33.5887 41.5247 33.566 41.5247H32.3609C32.3382 41.5247 32.3178 41.5157 32.2997 41.4977C32.286 41.4842 32.2792 41.4661 32.2792 41.4436V40.9229C32.2792 40.9004 32.286 40.8824 32.2997 40.8688C32.3178 40.8508 32.3382 40.8418 32.3609 40.8418H35.6767ZM39.7141 41.4368C39.7141 41.4594 39.7051 41.4774 39.6869 41.4909C39.6733 41.509 39.6551 41.518 39.6324 41.518H37.3107C37.288 41.518 37.2767 41.5293 37.2767 41.5518V42.8163C37.2767 42.8388 37.288 42.8501 37.3107 42.8501H38.8699C38.8926 42.8501 38.913 42.8568 38.9312 42.8704C38.9448 42.8884 38.9516 42.9087 38.9516 42.9312V43.4451C38.9516 43.4677 38.9448 43.488 38.9312 43.506C38.913 43.5195 38.8926 43.5263 38.8699 43.5263H37.3107C37.288 43.5263 37.2767 43.5375 37.2767 43.5601V44.8651C37.2767 44.8877 37.288 44.8989 37.3107 44.8989H39.6324C39.6551 44.8989 39.6733 44.908 39.6869 44.926C39.7051 44.9395 39.7141 44.9575 39.7141 44.9801V45.494C39.7141 45.5165 39.7051 45.5346 39.6869 45.5481C39.6733 45.5661 39.6551 45.5751 39.6324 45.5751H36.5686C36.5459 45.5751 36.5255 45.5661 36.5073 45.5481C36.4937 45.5346 36.4869 45.5165 36.4869 45.494V40.9229C36.4869 40.9004 36.4937 40.8824 36.5073 40.8688C36.5255 40.8508 36.5459 40.8418 36.5686 40.8418H39.6324C39.6551 40.8418 39.6733 40.8508 39.6869 40.8688C39.7051 40.8824 39.7141 40.9004 39.7141 40.9229V41.4368ZM43.1933 45.5751C43.1479 45.5751 43.1161 45.5548 43.098 45.5143L42.1992 43.5668C42.1902 43.5488 42.1765 43.5398 42.1584 43.5398H41.3414C41.3187 43.5398 41.3073 43.5511 41.3073 43.5736V45.494C41.3073 45.5165 41.2982 45.5346 41.2801 45.5481C41.2665 45.5661 41.2483 45.5751 41.2256 45.5751H40.5992C40.5765 45.5751 40.5561 45.5661 40.538 45.5481C40.5243 45.5346 40.5175 45.5165 40.5175 45.494V40.9229C40.5175 40.9004 40.5243 40.8824 40.538 40.8688C40.5561 40.8508 40.5765 40.8418 40.5992 40.8418H42.4716C42.7485 40.8418 42.9936 40.8981 43.2069 41.0108C43.4202 41.1281 43.5859 41.2903 43.7039 41.4977C43.8219 41.7096 43.8809 41.9507 43.8809 42.2212C43.8809 42.5323 43.7992 42.796 43.6358 43.0124C43.477 43.2333 43.2546 43.3865 42.9686 43.4722C42.9595 43.4722 42.9527 43.4767 42.9482 43.4857C42.9436 43.4947 42.9436 43.5037 42.9482 43.5127L43.9082 45.4805C43.9172 45.4985 43.9218 45.512 43.9218 45.521C43.9218 45.5571 43.8968 45.5751 43.8469 45.5751H43.1933ZM41.3414 41.518C41.3187 41.518 41.3073 41.5293 41.3073 41.5518V42.8974C41.3073 42.92 41.3187 42.9312 41.3414 42.9312H42.3626C42.5805 42.9312 42.7575 42.8659 42.8937 42.7351C43.0253 42.6089 43.0912 42.4399 43.0912 42.228C43.0912 42.0161 43.0253 41.8448 42.8937 41.7141C42.7575 41.5834 42.5805 41.518 42.3626 41.518H41.3414Z" fill="white"/>
<path d="M22.8019 57.7872C22.7883 57.8007 22.7838 57.8142 22.7883 57.8278C22.7974 57.8413 22.811 57.8481 22.8292 57.8481H25.5049C25.5367 57.8481 25.5639 57.8593 25.5866 57.8819C25.6138 57.9044 25.6275 57.9315 25.6275 57.963V58.9164C25.6275 58.948 25.6138 58.975 25.5866 58.9976C25.5639 59.0201 25.5367 59.0314 25.5049 59.0314H21.0657C21.0294 59.0314 20.9999 59.0201 20.9772 58.9976C20.9545 58.975 20.9432 58.948 20.9432 58.9164V58.0103C20.9432 57.9517 20.9636 57.9022 21.0045 57.8616C21.3267 57.5505 21.6558 57.2102 21.9917 56.8405C22.3276 56.4709 22.5387 56.241 22.6249 56.1508C22.8065 55.9344 22.9926 55.7271 23.1832 55.5287C23.7823 54.8706 24.0819 54.3815 24.0819 54.0614C24.0819 53.8315 24.0002 53.6422 23.8368 53.4934C23.6734 53.3491 23.4601 53.277 23.1968 53.277C22.9335 53.277 22.7202 53.3491 22.5568 53.4934C22.3889 53.6422 22.3049 53.8382 22.3049 54.0817V54.3251C22.3049 54.3567 22.2936 54.3837 22.2709 54.4062C22.2482 54.4288 22.2209 54.4401 22.1892 54.4401H21.0249C20.9931 54.4401 20.9659 54.4288 20.9432 54.4062C20.916 54.3837 20.9023 54.3567 20.9023 54.3251V53.8653C20.925 53.5137 21.0385 53.2004 21.2428 52.9254C21.447 52.6549 21.7171 52.4475 22.053 52.3033C22.3934 52.159 22.7747 52.0869 23.1968 52.0869C23.6643 52.0869 24.0706 52.1748 24.4155 52.3506C24.7605 52.5219 25.026 52.7541 25.2121 53.0471C25.4028 53.3446 25.4981 53.6715 25.4981 54.0276C25.4981 54.3026 25.4277 54.5843 25.287 54.8728C25.1509 55.1613 24.9443 55.4724 24.6675 55.806C24.4632 56.0584 24.2431 56.3108 24.007 56.5633C23.771 56.8112 23.4192 57.1696 22.9517 57.6384L22.8019 57.7872ZM28.8343 59.1396C28.108 59.1396 27.5361 58.939 27.1185 58.5378C26.6964 58.1366 26.4853 57.5889 26.4853 56.8946V54.3048C26.4853 53.6241 26.6964 53.0854 27.1185 52.6887C27.5361 52.2875 28.108 52.0869 28.8343 52.0869C29.556 52.0869 30.1301 52.2875 30.5568 52.6887C30.9789 53.0854 31.19 53.6241 31.19 54.3048V56.8946C31.19 57.5889 30.9789 58.1366 30.5568 58.5378C30.1301 58.939 29.556 59.1396 28.8343 59.1396ZM28.8343 57.9562C29.1293 57.9562 29.3631 57.8661 29.5355 57.6858C29.7126 57.5055 29.8011 57.2643 29.8011 56.9622V54.2642C29.8011 53.9667 29.7126 53.7278 29.5355 53.5475C29.3631 53.3672 29.1293 53.277 28.8343 53.277C28.5438 53.277 28.3123 53.3672 28.1398 53.5475C27.9628 53.7278 27.8743 53.9667 27.8743 54.2642V56.9622C27.8743 57.2643 27.9628 57.5055 28.1398 57.6858C28.3123 57.8661 28.5438 57.9562 28.8343 57.9562ZM33.9543 57.7872C33.9406 57.8007 33.9384 57.8142 33.9474 57.8278C33.952 57.8413 33.9656 57.8481 33.9883 57.8481H36.664C36.6958 57.8481 36.7231 57.8593 36.7457 57.8819C36.7684 57.9044 36.7798 57.9315 36.7798 57.963V58.9164C36.7798 58.948 36.7684 58.975 36.7457 58.9976C36.7231 59.0201 36.6958 59.0314 36.664 59.0314H32.2181C32.1863 59.0314 32.1591 59.0201 32.1364 58.9976C32.1137 58.975 32.1023 58.948 32.1023 58.9164V58.0103C32.1023 57.9517 32.1205 57.9022 32.1568 57.8616C32.4836 57.5505 32.8127 57.2102 33.144 56.8405C33.4799 56.4709 33.691 56.241 33.7772 56.1508C33.9633 55.9344 34.1517 55.7271 34.3423 55.5287C34.9415 54.8706 35.2411 54.3815 35.2411 54.0614C35.2411 53.8315 35.1594 53.6422 34.996 53.4934C34.828 53.3491 34.6124 53.277 34.3492 53.277C34.0859 53.277 33.8726 53.3491 33.7092 53.4934C33.5457 53.6422 33.464 53.8382 33.464 54.0817V54.3251C33.464 54.3567 33.4527 54.3837 33.43 54.4062C33.4073 54.4288 33.3778 54.4401 33.3415 54.4401H32.1772C32.1455 54.4401 32.1182 54.4288 32.0955 54.4062C32.0728 54.3837 32.0615 54.3567 32.0615 54.3251V53.8653C32.0796 53.5137 32.1909 53.2004 32.3951 52.9254C32.5994 52.6549 32.8717 52.4475 33.2121 52.3033C33.5526 52.159 33.9316 52.0869 34.3492 52.0869C34.8167 52.0869 35.2229 52.1748 35.5679 52.3506C35.9174 52.5219 36.1852 52.7541 36.3713 53.0471C36.5574 53.3446 36.6504 53.6715 36.6504 54.0276C36.6504 54.3026 36.5823 54.5843 36.4462 54.8728C36.3055 55.1613 36.0967 55.4724 35.8198 55.806C35.6155 56.0584 35.3954 56.3108 35.1594 56.5633C34.9233 56.8112 34.5716 57.1696 34.104 57.6384L33.9543 57.7872ZM42.5738 56.0426C42.6056 56.0426 42.6351 56.0539 42.6623 56.0764C42.685 56.099 42.6964 56.126 42.6964 56.1576V57.1516C42.6964 57.1831 42.685 57.2102 42.6623 57.2327C42.6351 57.2553 42.6056 57.2665 42.5738 57.2665H42.1517C42.1199 57.2665 42.104 57.2823 42.104 57.3139V58.9164C42.104 58.948 42.0927 58.975 42.07 58.9976C42.0428 59.0201 42.0133 59.0314 41.9815 59.0314H40.8309C40.7945 59.0314 40.765 59.0201 40.7423 58.9976C40.7196 58.975 40.7083 58.948 40.7083 58.9164V57.3139C40.7083 57.2823 40.6924 57.2665 40.6606 57.2665H37.6309C37.5991 57.2665 37.5696 57.2553 37.5423 57.2327C37.5196 57.2102 37.5083 57.1831 37.5083 57.1516V56.3672C37.5083 56.3266 37.5196 56.277 37.5423 56.2184L39.3194 52.256C39.3466 52.1974 39.392 52.1681 39.4555 52.1681H40.6879C40.7333 52.1681 40.765 52.1793 40.7832 52.2019C40.8014 52.2244 40.7991 52.2582 40.7764 52.3033L39.1287 55.9818C39.1242 55.9953 39.1242 56.0088 39.1287 56.0223C39.1378 56.0359 39.1492 56.0426 39.1628 56.0426H40.6606C40.6924 56.0426 40.7083 56.0246 40.7083 55.9885V54.7781C40.7083 54.7421 40.7196 54.7128 40.7423 54.6902C40.765 54.6677 40.7945 54.6564 40.8309 54.6564H41.9815C42.0133 54.6564 42.0428 54.6677 42.07 54.6902C42.0927 54.7128 42.104 54.7421 42.104 54.7781V55.9885C42.104 56.0246 42.1199 56.0426 42.1517 56.0426H42.5738Z" fill="#252530"/>
</g>
<defs>
<clipPath id="clip0_227_10560">
<rect width="64" height="71" fill="white"/>
</clipPath>
</defs>
</svg>
