<svg width="121" height="121" viewBox="0 0 121 121" fill="none" xmlns="http://www.w3.org/2000/svg">
<g clip-path="url(#clip0_157_444)">
<mask id="mask0_157_444" style="mask-type:luminance" maskUnits="userSpaceOnUse" x="0" y="0" width="121" height="121">
<path d="M121 0H0V121H121V0Z" fill="white"/>
</mask>
<g mask="url(#mask0_157_444)">
<path fill-rule="evenodd" clip-rule="evenodd" d="M60.5 2.37628C28.3992 2.37628 2.37628 28.3992 2.37628 60.5C2.37628 92.6009 28.3992 118.624 60.5 118.624C92.6009 118.624 118.624 92.6009 118.624 60.5C118.624 28.3992 92.6009 2.37628 60.5 2.37628ZM0 60.5C0 27.0867 27.0867 0 60.5 0C93.9132 0 121 27.0867 121 60.5C121 93.9132 93.9132 121 60.5 121C27.0867 121 0 93.9132 0 60.5Z" fill="#545EA7"/>
<path d="M30.8903 40.3492C32.1598 40.3492 33.096 39.4598 33.096 38.243C33.096 37.026 32.1598 36.1367 30.8903 36.1367C29.6207 36.1367 28.6846 37.0318 28.6846 38.243C28.6846 39.4541 29.6207 40.3492 30.8903 40.3492ZM30.8903 39.6823C30.0654 39.6823 29.451 39.0796 29.451 38.243C29.451 37.4063 30.0654 36.8036 30.8903 36.8036C31.7153 36.8036 32.3296 37.4063 32.3296 38.243C32.3296 39.0796 31.7153 39.6823 30.8903 39.6823ZM37.477 36.8329V36.1952H34.4873V40.2907H35.2479V38.7227H37.2254V38.0791H35.2479V36.8329H37.477ZM41.7873 36.8329V36.1952H38.7976V40.2907H39.5582V38.7227H41.5357V38.0791H39.5582V36.8329H41.7873ZM43.1078 40.2907H43.8685V36.1952H43.1078V40.2907ZM47.4571 40.3492C48.1299 40.3492 48.7028 40.1093 49.0837 39.6647L48.5917 39.1966C48.2935 39.5243 47.925 39.6823 47.4978 39.6823C46.6495 39.6823 46.0352 39.0855 46.0352 38.243C46.0352 37.4004 46.6495 36.8036 47.4978 36.8036C47.925 36.8036 48.2935 36.9616 48.5917 37.2834L49.0837 36.8213C48.7028 36.3766 48.1299 36.1367 47.4626 36.1367C46.2049 36.1367 45.2688 37.0202 45.2688 38.243C45.2688 39.4657 46.2049 40.3492 47.4571 40.3492ZM50.397 40.2907H51.1576V36.1952H50.397V40.2907ZM55.9164 40.2907H56.7122L54.8633 36.1952H54.1144L52.2716 40.2907H53.0557L53.4594 39.3428H55.5071L55.9164 40.2907ZM53.7168 38.7461L54.4829 36.9558L55.2552 38.7461H53.7168ZM57.8178 40.2907H60.7199V39.6471H58.5784V36.1952H57.8178V40.2907ZM68.589 40.2907L68.5834 36.1952H67.9574L66.3598 38.91L64.7337 36.1952H64.1077V40.2907H64.8331V37.611L66.1789 39.8226H66.5178L67.8637 37.5759L67.8692 40.2907H68.589ZM71.041 39.653V38.5238H73.0183V37.8978H71.041V36.8329H73.2702V36.1952H70.2805V40.2907H73.3523V39.653H71.041ZM79.2664 40.2907L79.2609 36.1952H78.6349L77.0378 38.91L75.4111 36.1952H74.7852V40.2907H75.5106V37.611L76.8563 39.8226H77.1953L78.5412 37.5759L78.5474 40.2907H79.2664ZM83.8597 38.161C84.1759 37.9914 84.3866 37.6812 84.3866 37.2601C84.3866 36.6106 83.8597 36.1952 82.8769 36.1952H80.958V40.2907H82.994C84.0471 40.2907 84.5974 39.8811 84.5974 39.179C84.5974 38.6466 84.2992 38.3014 83.8597 38.161ZM82.7949 36.792C83.3218 36.792 83.6201 36.9792 83.6201 37.3595C83.6201 37.7339 83.3218 37.9211 82.7949 37.9211H81.7184V36.792H82.7949ZM82.9471 39.6939H81.7184V38.5121H82.9471C83.5201 38.5121 83.8308 38.6934 83.8308 39.1029C83.8308 39.5125 83.5201 39.6939 82.9471 39.6939ZM86.7551 39.653V38.5238H88.7325V37.8978H86.7551V36.8329H88.9831V36.1952H85.994V40.2907H89.0658V39.653H86.7551ZM93.9972 40.2907L93.0557 38.945C93.6108 38.7285 93.9269 38.2722 93.9269 37.652C93.9269 36.7452 93.2602 36.1952 92.1837 36.1952H90.4983V40.2907H91.2587V39.0972H92.1837C92.236 39.0972 92.2883 39.0972 92.3414 39.0913L93.1783 40.2907H93.9972ZM93.1603 37.652C93.1603 38.1669 92.8153 38.4712 92.1486 38.4712H91.2587V36.8388H92.1486C92.8153 36.8388 93.1603 37.1371 93.1603 37.652Z" fill="#545EA7"/>
<path d="M41.7788 80.7086C41.1855 80.7086 40.7166 80.9053 40.3719 81.2987C40.0297 81.6906 39.8586 82.2277 39.8586 82.9108C39.8586 83.6126 40.0235 84.1559 40.3534 84.54C40.6858 84.9217 41.1584 85.1122 41.7715 85.1122C42.1481 85.1122 42.5777 85.045 43.0602 84.91V85.4572C42.686 85.5962 42.2244 85.6664 41.6754 85.6664C40.8802 85.6664 40.266 85.4268 39.8327 84.9475C39.402 84.4674 39.1865 83.7859 39.1865 82.9029C39.1865 82.3502 39.29 81.8655 39.4967 81.4494C39.706 81.0341 40.0063 80.7132 40.3977 80.4884C40.7916 80.2628 41.2545 80.1504 41.7862 80.1504C42.3524 80.1504 42.8472 80.2534 43.2707 80.4587L43.0048 80.9943C42.5961 80.8038 42.1875 80.7086 41.7788 80.7086Z" fill="#545EA7"/>
<path d="M47.3749 83.5773C47.3749 84.233 47.2087 84.7459 46.8763 85.1152C46.544 85.4821 46.0848 85.6655 45.4989 85.6655C45.1371 85.6655 44.8157 85.5812 44.5352 85.4126C44.2545 85.2432 44.0378 85.002 43.8852 84.6858C43.7325 84.3704 43.6562 84.0012 43.6562 83.5773C43.6562 82.9215 43.8212 82.4118 44.1511 82.0472C44.481 81.6803 44.9389 81.4961 45.5248 81.4961C46.091 81.4961 46.5403 81.6842 46.8727 82.0582C47.2074 82.4321 47.3749 82.9387 47.3749 83.5773ZM44.2914 83.5773C44.2914 84.0917 44.3948 84.4828 44.6016 84.7522C44.8084 85.0215 45.1125 85.1558 45.5137 85.1558C45.915 85.1558 46.219 85.0223 46.4258 84.7553C46.635 84.486 46.7397 84.0933 46.7397 83.5773C46.7397 83.066 46.635 82.6788 46.4258 82.4141C46.219 82.1479 45.9125 82.0144 45.5063 82.0144C45.105 82.0144 44.8022 82.1448 44.5979 82.4063C44.3936 82.6686 44.2914 83.0589 44.2914 83.5773Z" fill="#545EA7"/>
<path d="M53.348 85.5921V82.9754C53.348 82.6553 53.2793 82.4157 53.1415 82.2564C53.0035 82.0948 52.7896 82.0144 52.4987 82.0144C52.1173 82.0144 51.8353 82.1229 51.6533 82.3407C51.4712 82.5585 51.3802 82.8934 51.3802 83.3462V85.5921H50.7671V82.9754C50.7671 82.6553 50.6978 82.4157 50.5599 82.2564C50.4226 82.0948 50.207 82.0144 49.9138 82.0144C49.5297 82.0144 49.2482 82.1292 49.0684 82.3595C48.8908 82.5867 48.8026 82.9614 48.8026 83.4821V85.5921H48.1895V81.5703H48.6881L48.7875 82.1206H48.8171C48.9327 81.9247 49.0952 81.7717 49.3046 81.6616C49.5162 81.5515 49.7525 81.4961 50.0137 81.4961C50.6465 81.4961 51.0597 81.724 51.2546 82.1792H51.2842C51.4048 81.9692 51.5796 81.8021 51.8085 81.6803C52.0375 81.5578 52.2982 81.4961 52.5914 81.4961C53.0493 81.4961 53.391 81.614 53.6177 81.8489C53.8467 82.0808 53.9612 82.4547 53.9612 82.9684V85.5921H53.348Z" fill="#545EA7"/>
<path d="M60.1201 85.5921V82.9754C60.1201 82.6553 60.0508 82.4157 59.913 82.2564C59.775 82.0948 59.5611 82.0144 59.2707 82.0144C58.8888 82.0144 58.6068 82.1229 58.4247 82.3407C58.2427 82.5585 58.1517 82.8934 58.1517 83.3462V85.5921H57.5386V82.9754C57.5386 82.6553 57.4699 82.4157 57.332 82.2564C57.1941 82.0948 56.9785 82.0144 56.6853 82.0144C56.3017 82.0144 56.0196 82.1292 55.8399 82.3595C55.6629 82.5867 55.5741 82.9614 55.5741 83.4821V85.5921H54.9609V81.5703H55.4596L55.5595 82.1206H55.5886C55.7047 81.9247 55.8673 81.7717 56.0761 81.6616C56.2877 81.5515 56.5245 81.4961 56.7853 81.4961C57.4179 81.4961 57.8318 81.724 58.0261 82.1792H58.0557C58.1763 81.9692 58.351 81.8021 58.58 81.6803C58.809 81.5578 59.0697 81.4961 59.3629 81.4961C59.8208 81.4961 60.1631 81.614 60.3892 81.8489C60.6182 82.0808 60.7327 82.4547 60.7327 82.9684V85.5921H60.1201Z" fill="#545EA7"/>
<path d="M62.3137 81.5684V84.1773C62.3137 84.5059 62.3891 84.7503 62.5388 84.9119C62.689 85.0735 62.9241 85.1539 63.2447 85.1539C63.6679 85.1539 63.9767 85.0391 64.1711 84.8088C64.3682 84.5793 64.4664 84.203 64.4664 83.6823V81.5684H65.0796V85.591H64.5737L64.4854 85.0516H64.4519C64.3263 85.2491 64.1515 85.4013 63.9276 85.5059C63.7059 85.6113 63.4524 85.6636 63.1671 85.6636C62.6745 85.6636 62.3054 85.5481 62.0592 85.3155C61.8151 85.0828 61.6934 84.7112 61.6934 84.1999V81.5684H62.3137Z" fill="#545EA7"/>
<path d="M68.8854 85.5921V82.9902C68.8854 82.6624 68.8106 82.418 68.6603 82.2564C68.5101 82.0948 68.2751 82.0144 67.9551 82.0144C67.5318 82.0144 67.2214 82.1284 67.0242 82.3556C66.8277 82.5835 66.7288 82.9582 66.7288 83.4821V85.5921H66.1162V81.5703H66.6143L66.7143 82.1206H66.7439C66.8695 81.9223 67.0454 81.7693 67.2716 81.6616C67.4983 81.5515 67.7507 81.4961 68.0288 81.4961C68.5163 81.4961 68.8832 81.614 69.1294 81.8489C69.3757 82.0808 69.4985 82.4547 69.4985 82.9684V85.5921H68.8854Z" fill="#545EA7"/>
<path d="M71.1099 85.5903H70.4973V81.5676H71.1099V85.5903ZM70.4453 80.4778C70.4453 80.3381 70.48 80.2366 70.5487 80.1734C70.6179 80.107 70.7039 80.0742 70.8072 80.0742C70.9054 80.0742 70.9909 80.107 71.0618 80.1734C71.1333 80.2397 71.169 80.3412 71.169 80.4778C71.169 80.6144 71.1333 80.7175 71.0618 80.7862C70.9909 80.8517 70.9054 80.8853 70.8072 80.8853C70.7039 80.8853 70.6179 80.8517 70.5487 80.7862C70.48 80.7175 70.4453 80.6144 70.4453 80.4778Z" fill="#545EA7"/>
<path d="M73.7636 85.6655C73.1774 85.6655 72.7233 85.4868 72.4006 85.13C72.0806 84.7701 71.9209 84.2619 71.9209 83.607C71.9209 82.934 72.0834 82.4141 72.4084 82.0472C72.7356 81.6803 73.2008 81.4961 73.8039 81.4961C73.9987 81.4961 74.193 81.5179 74.3874 81.5593C74.5817 81.6007 74.7347 81.6491 74.8453 81.7061L74.6571 82.2237C74.5214 82.169 74.374 82.1253 74.2137 82.0909C74.054 82.0542 73.9122 82.0355 73.7894 82.0355C72.9668 82.0355 72.5558 82.5578 72.5558 83.5991C72.5558 84.0933 72.6557 84.4727 72.8551 84.7373C73.0567 85.002 73.3549 85.1331 73.7485 85.1331C74.0859 85.1331 74.4321 85.0613 74.7861 84.9169V85.4563C74.5153 85.596 74.1746 85.6655 73.7636 85.6655Z" fill="#545EA7"/>
<path d="M77.9731 85.5914L77.8514 85.0184H77.8218C77.6202 85.2713 77.4181 85.4423 77.2165 85.5328C77.0172 85.621 76.767 85.6647 76.4666 85.6647C76.0656 85.6647 75.7501 85.5625 75.5211 85.3564C75.295 85.1511 75.1816 84.8583 75.1816 84.4789C75.1816 83.6671 75.8356 83.2416 77.1428 83.2026L77.8297 83.1807V82.9309C77.8297 82.6155 77.7604 82.3829 77.6225 82.233C77.4874 82.0824 77.2696 82.0059 76.9691 82.0059C76.6318 82.0059 76.2499 82.1089 75.8243 82.3142L75.6357 81.8482C75.8355 81.7404 76.0533 81.6561 76.2895 81.5952C76.5286 81.5336 76.767 81.5039 77.006 81.5039C77.4884 81.5039 77.8453 81.6093 78.0774 81.8224C78.3108 82.0355 78.4279 82.3767 78.4279 82.8466V85.5914H77.9731ZM76.5888 85.162C76.9703 85.162 77.2696 85.0582 77.4862 84.8498C77.7051 84.6421 77.8146 84.3509 77.8146 83.977V83.6132L77.2014 83.639C76.7139 83.6561 76.3621 83.7319 76.1454 83.8669C75.9311 83.9988 75.8243 84.2057 75.8243 84.4868C75.8243 84.7069 75.8909 84.8747 76.0237 84.9895C76.1589 85.105 76.3476 85.162 76.5888 85.162Z" fill="#545EA7"/>
<path d="M80.7367 85.1641C80.8444 85.1641 80.949 85.1563 81.0505 85.1414C81.1512 85.125 81.2308 85.1071 81.2901 85.0899V85.5567C81.2238 85.588 81.1254 85.6137 80.9951 85.6332C80.867 85.6551 80.7507 85.666 80.6477 85.666C79.8647 85.666 79.4736 85.2562 79.4736 84.4365V82.0446H78.8936V81.7511L79.4736 81.4974L79.732 80.6387H80.0864V81.5708H81.2605V82.0446H80.0864V84.4107C80.0864 84.6535 80.1441 84.8393 80.2597 84.9689C80.3752 85.0993 80.5345 85.1641 80.7367 85.1641Z" fill="#545EA7"/>
<path d="M82.4503 85.5903H81.8367V81.5676H82.4503V85.5903ZM81.7852 80.4778C81.7852 80.3381 81.8195 80.2366 81.8882 80.1734C81.9577 80.107 82.0435 80.0742 82.1466 80.0742C82.2457 80.0742 82.33 80.107 82.4019 80.1734C82.4729 80.2397 82.5088 80.3412 82.5088 80.4778C82.5088 80.6144 82.4729 80.7175 82.4019 80.7862C82.33 80.8517 82.2457 80.8853 82.1466 80.8853C82.0435 80.8853 81.9577 80.8517 81.8882 80.7862C81.8195 80.7175 81.7852 80.6144 81.7852 80.4778Z" fill="#545EA7"/>
<path d="M86.9819 83.5773C86.9819 84.233 86.8164 84.7459 86.483 85.1152C86.1513 85.4821 85.6923 85.6655 85.106 85.6655C84.7446 85.6655 84.4229 85.5812 84.1427 85.4126C83.8616 85.2432 83.6446 85.002 83.4924 84.6858C83.3402 84.3704 83.2637 84.0012 83.2637 83.5773C83.2637 82.9215 83.4284 82.4118 83.7578 82.0472C84.088 81.6803 84.5463 81.4961 85.1318 81.4961C85.6977 81.4961 86.1474 81.6842 86.4799 82.0582C86.814 82.4321 86.9819 82.9387 86.9819 83.5773ZM83.8983 83.5773C83.8983 84.0917 84.0022 84.4828 84.209 84.7522C84.4151 85.0215 84.7196 85.1558 85.1208 85.1558C85.5221 85.1558 85.8257 85.0223 86.0334 84.7553C86.2418 84.486 86.3472 84.0933 86.3472 83.5773C86.3472 83.066 86.2418 82.6788 86.0334 82.4141C85.8257 82.1479 85.5197 82.0144 85.1138 82.0144C84.7118 82.0144 84.4089 82.1448 84.2051 82.4063C84.0006 82.6686 83.8983 83.0589 83.8983 83.5773Z" fill="#545EA7"/>
<path d="M90.5627 85.5921V82.9902C90.5627 82.6624 90.487 82.418 90.3371 82.2564C90.1872 82.0948 89.9515 82.0144 89.6314 82.0144C89.2083 82.0144 88.8984 82.1284 88.7016 82.3556C88.5041 82.5835 88.4058 82.9582 88.4058 83.4821V85.5921H87.793V81.5703H88.2918L88.3909 82.1206H88.4206C88.5463 81.9223 88.7219 81.7693 88.9491 81.6616C89.1755 81.5515 89.4276 81.4961 89.7063 81.4961C90.1935 81.4961 90.5596 81.614 90.8063 81.8489C91.0522 82.0808 91.1755 82.4547 91.1755 82.9684V85.5921H90.5627Z" fill="#545EA7"/>
<path d="M94.7857 84.4953C94.7857 84.8693 94.6444 85.1581 94.3641 85.3611C94.0839 85.564 93.6896 85.6655 93.183 85.6655C92.6459 85.6655 92.2275 85.5812 91.9269 85.4126V84.8474C92.1213 84.945 92.3298 85.0223 92.5515 85.0785C92.7755 85.1347 92.991 85.1628 93.1971 85.1628C93.5171 85.1628 93.7638 85.1128 93.9363 85.0121C94.1081 84.9099 94.1939 84.7545 94.1939 84.5469C94.1939 84.3899 94.1252 84.2565 93.9871 84.1464C93.852 84.034 93.5866 83.9013 93.19 83.7506C92.813 83.6109 92.5452 83.4891 92.3852 83.3868C92.2275 83.2814 92.1088 83.1628 92.03 83.0301C91.9543 82.8989 91.916 82.7404 91.916 82.5578C91.916 82.2299 92.0503 81.9715 92.318 81.7826C92.5866 81.5921 92.9551 81.4961 93.4227 81.4961C93.8583 81.4961 94.2837 81.5851 94.6998 81.7615L94.482 82.2564C94.0761 82.0902 93.7084 82.0066 93.3782 82.0066C93.0878 82.0066 92.8684 82.0519 92.7209 82.1425C92.5733 82.233 92.4992 82.3579 92.4992 82.5164C92.4992 82.6241 92.5265 82.7162 92.5811 82.792C92.6373 82.8677 92.7271 82.9403 92.8497 83.009C92.973 83.0777 93.2095 83.176 93.5593 83.3056C94.0394 83.4797 94.3626 83.6546 94.5304 83.831C94.6998 84.0074 94.7857 84.2283 94.7857 84.4953Z" fill="#545EA7"/>
<path d="M41.7779 89.7945C41.1846 89.7945 40.7156 89.992 40.371 90.3854C40.0288 90.7773 39.8577 91.3144 39.8577 91.9967C39.8577 92.6985 40.0226 93.2418 40.3525 93.6259C40.6849 94.0076 41.1575 94.1989 41.7705 94.1989C42.1472 94.1989 42.5767 94.1318 43.0593 93.9967V94.5439C42.6851 94.6829 42.2235 94.7531 41.6745 94.7531C40.8793 94.7531 40.2651 94.5127 39.8318 94.0334C39.401 93.5541 39.1855 92.8726 39.1855 91.9897C39.1855 91.437 39.289 90.9522 39.4958 90.5361C39.705 90.1208 40.0054 89.8 40.3968 89.5744C40.7907 89.3495 41.2536 89.2363 41.7853 89.2363C42.3515 89.2363 42.8463 89.3402 43.2697 89.5455L43.0039 90.081C42.5952 89.8905 42.1866 89.7945 41.7779 89.7945Z" fill="#545EA7"/>
<path d="M47.3749 92.6644C47.3749 93.3201 47.2087 93.8322 46.8763 94.2023C46.544 94.5692 46.0848 94.7526 45.4989 94.7526C45.1371 94.7526 44.8157 94.6675 44.5352 94.4989C44.2545 94.3303 44.0378 94.0883 43.8852 93.7729C43.7325 93.4575 43.6562 93.0875 43.6562 92.6644C43.6562 92.0087 43.8212 91.4981 44.1511 91.1343C44.481 90.7667 44.9389 90.584 45.5248 90.584C46.091 90.584 46.5403 90.7706 46.8727 91.1445C47.2074 91.5192 47.3749 92.0258 47.3749 92.6644ZM44.2914 92.6644C44.2914 93.1781 44.3948 93.5692 44.6016 93.8385C44.8084 94.1078 45.1125 94.2421 45.5137 94.2421C45.915 94.2421 46.219 94.1086 46.4258 93.8424C46.635 93.5731 46.7397 93.1812 46.7397 92.6644C46.7397 92.1531 46.635 91.7651 46.4258 91.5012C46.219 91.2343 45.9125 91.1008 45.5063 91.1008C45.105 91.1008 44.8022 91.2319 44.5979 91.4942C44.3936 91.755 44.2914 92.1453 44.2914 92.6644Z" fill="#545EA7"/>
<path d="M48.7648 90.6582V93.2679C48.7648 93.5958 48.8398 93.8401 48.99 94.0017C49.1402 94.1633 49.3752 94.2437 49.6951 94.2437C50.1185 94.2437 50.4278 94.1289 50.6221 93.8987C50.8193 93.6691 50.9176 93.2937 50.9176 92.773V90.6582H51.5307V94.6809H51.0247L50.936 94.1414H50.9025C50.7773 94.3397 50.6026 94.4912 50.3781 94.5966C50.157 94.7012 49.9035 94.7542 49.6175 94.7542C49.125 94.7542 48.756 94.6379 48.5097 94.4053C48.2662 94.1734 48.1445 93.8011 48.1445 93.2898V90.6582H48.7648Z" fill="#545EA7"/>
<path d="M55.341 94.6792V92.0774C55.341 91.7487 55.2656 91.5044 55.1154 91.3428C54.9652 91.182 54.7301 91.1008 54.4101 91.1008C53.9868 91.1008 53.6769 91.2147 53.4798 91.4427C53.2827 91.6699 53.1844 92.0454 53.1844 92.5692V94.6792H52.5713V90.6566H53.07L53.1693 91.2077H53.1989C53.3245 91.0094 53.5005 90.8564 53.7272 90.7487C53.9533 90.6386 54.2057 90.584 54.4844 90.584C54.9713 90.584 55.3382 90.7011 55.5845 90.9361C55.8307 91.1687 55.9541 91.5411 55.9541 92.0547V94.6792H55.341Z" fill="#545EA7"/>
<path d="M58.5663 94.7534C57.98 94.7534 57.5261 94.5746 57.2033 94.2171C56.8833 93.858 56.7236 93.3498 56.7236 92.6948C56.7236 92.0219 56.8861 91.502 57.2111 91.1351C57.5383 90.7674 58.0035 90.584 58.6066 90.584C58.8015 90.584 58.9958 90.6051 59.1901 90.6472C59.3845 90.6886 59.5375 90.737 59.648 90.7932L59.4598 91.3108C59.3241 91.2569 59.1767 91.2132 59.0165 91.1788C58.8567 91.1421 58.7149 91.1234 58.592 91.1234C57.7695 91.1234 57.3585 91.6449 57.3585 92.687C57.3585 93.1812 57.4585 93.5606 57.6578 93.8244C57.8594 94.0891 58.1576 94.221 58.5513 94.221C58.8886 94.221 59.2348 94.1484 59.5888 94.0048V94.5442C59.3179 94.6839 58.9774 94.7534 58.5663 94.7534Z" fill="#545EA7"/>
<path d="M60.9057 94.6801H60.2926V90.6582H60.9057V94.6801ZM60.2412 89.5677C60.2412 89.4287 60.2752 89.3272 60.3445 89.2632C60.4132 89.1976 60.4998 89.1641 60.603 89.1641C60.7013 89.1641 60.7862 89.1976 60.8577 89.2632C60.9292 89.3296 60.9649 89.431 60.9649 89.5677C60.9649 89.705 60.9292 89.8081 60.8577 89.876C60.7862 89.9424 60.7013 89.9751 60.603 89.9751C60.4998 89.9751 60.4132 89.9424 60.3445 89.876C60.2752 89.8081 60.2412 89.705 60.2412 89.5677Z" fill="#545EA7"/>
<path d="M62.5526 94.6811H61.9395V88.9707H62.5526V94.6811Z" fill="#545EA7"/>
<path d="M30.1074 78.4414H30.8109V96.4446H30.1074V78.4414Z" fill="#545EA7"/>
<path d="M65.7234 60.7911C64.7412 60.7911 63.9633 61.0384 63.1447 61.4511C63.1447 59.1007 63.1854 57.0803 63.2262 56.2969L58.4372 57.2451V57.6991L58.8873 57.7398C59.5424 57.8225 59.8288 58.2346 59.8695 59.1007C60.0337 60.8323 59.9924 70.0266 59.8695 71.5109C61.1389 71.7996 62.5304 72.0056 63.9225 72.0056C67.7292 72.0056 69.9808 69.6558 69.9808 65.9038C70.0623 62.9353 68.1793 60.7911 65.7234 60.7911ZM64.0448 71.2635C63.7583 71.2635 63.4312 71.2222 63.2262 71.1814C63.1447 70.1506 63.1034 65.9038 63.1034 62.1519C63.554 61.9866 63.8405 61.9866 64.209 61.9866C65.7642 61.9866 66.6649 63.8008 66.6649 66.1099C66.7057 69.0371 65.6006 71.2635 64.0448 71.2635ZM40.4671 60.915L39.7302 61.121C39.0753 58.936 38.0519 57.6991 36.128 57.6991H33.631C33.5082 59.1007 33.4673 61.4097 33.4673 63.8422L35.1456 63.8008C36.2508 63.7595 36.7011 62.9353 36.9877 61.6985H37.6016V66.8107H36.9877C36.7011 65.5738 36.2508 64.7491 35.1456 64.7083L33.4673 64.667C33.4673 66.522 33.5492 68.0476 33.5901 68.9958C33.7129 70.3566 34.0813 70.9748 35.0228 71.0988L35.8824 71.1814V71.7996H27.8184V71.1814L28.4733 71.0988C29.4149 70.9748 29.7832 70.3566 29.906 68.9958C30.1107 66.7694 30.1107 62.0692 29.906 59.4721C29.7832 58.1112 29.4149 57.4924 28.4733 57.3691L27.8184 57.2864V56.6682H40.3852L40.4671 60.915ZM44.4786 60.6676C48.0396 60.6676 49.8411 63.1 49.8411 66.3159C49.8411 69.4497 47.8352 72.0056 44.2739 72.0056C40.7126 72.0056 38.9116 69.5732 38.9116 66.3573C38.9116 63.2235 40.9173 60.6676 44.4786 60.6676ZM44.3148 61.3684C42.7184 61.3684 42.3091 63.5121 42.3091 66.3573C42.3091 69.1198 43.005 71.3462 44.4786 71.3462C46.075 71.3462 46.4843 69.2023 46.4843 66.3573C46.4843 63.5948 45.7884 61.3684 44.3148 61.3684ZM70.9222 66.4399C70.9222 63.4709 72.7638 60.6676 76.4483 60.6676C79.4364 60.6676 80.8697 62.894 80.8697 65.8212H74.1967C74.1147 68.4597 75.4655 70.4393 78.0035 70.4393C79.1093 70.4393 79.7229 70.1506 80.4193 69.6558L80.7471 70.0266C80.0094 71.0574 78.4544 72.0469 76.407 72.0469C73.2145 72.0469 70.9222 69.7379 70.9222 66.4399ZM74.2375 65.0791L77.5942 64.9964C77.5942 63.5121 77.3898 61.3684 76.1618 61.3684C74.9746 61.3684 74.2788 63.3887 74.2375 65.0791ZM89.5067 64.0069L88.9743 64.1309C88.4013 62.2339 87.5005 61.4097 86.2311 61.4097C85.3724 61.4097 84.7581 62.0692 84.7581 63.0174C84.7581 63.9662 85.4544 64.4609 87.4599 65.2438C89.3428 65.9859 90.0797 66.8107 90.0797 68.3363C90.0797 70.604 88.36 72.0056 85.495 72.0056C84.1445 72.0056 82.63 71.7169 81.7292 71.3462L81.6472 68.2123L82.1788 68.0889C82.9571 70.2739 83.9805 71.0988 85.3311 71.0988C86.4771 71.0988 87.0914 70.2739 87.0914 69.4084C87.0914 68.5423 86.6004 68.0476 84.7994 67.3881C83.1203 66.7694 81.8923 66.0272 81.8923 64.1309C81.8923 62.2753 83.5301 60.7089 86.1906 60.7089C87.4185 60.7089 88.6059 60.915 89.4248 61.2857L89.5067 64.0069ZM57.9866 63.9248C56.5543 62.9353 54.9986 63.3887 54.6713 63.9248C54.5484 65.6978 54.5893 68.3776 54.7121 69.7379C54.7942 70.6453 55.0393 71.0161 55.6943 71.0988L56.5543 71.1401V71.7583H49.9226V71.1814L50.3732 71.1401C51.0283 71.0574 51.3147 70.6453 51.3554 69.7792C51.4783 68.2949 51.5191 65.2438 51.3554 63.5121C51.2734 62.6053 51.0283 62.2339 50.3732 62.1106L49.9226 62.0692V61.6158L54.6713 60.6676L54.63 63.1827C55.7356 60.585 57.9459 60.2549 59.133 60.9971L57.9866 63.9248Z" fill="#545EA7"/>
<path d="M53.2043 27.4458L54.7517 25.9728C55.5547 25.2197 55.7116 24.7066 55.7116 24.1439C55.7116 23.1176 54.9008 22.4805 53.6427 22.4805C52.6911 22.4805 51.8882 22.8363 51.4414 23.4404L52.1947 24.0197C52.5175 23.6059 52.9888 23.4156 53.5516 23.4156C54.2637 23.4156 54.6278 23.7218 54.6278 24.2514C54.6278 24.5742 54.5283 24.9135 53.9655 25.4514L51.6648 27.6362V28.3562H55.935V27.4458H53.2043ZM58.9482 28.4389C60.3302 28.4389 61.3733 27.3631 61.3733 25.4596C61.3733 23.5563 60.3302 22.4805 58.9482 22.4805C57.5745 22.4805 56.5319 23.5563 56.5319 25.4596C56.5319 27.3631 57.5745 28.4389 58.9482 28.4389ZM58.9482 27.5038C58.1619 27.5038 57.6158 26.8582 57.6158 25.4596C57.6158 24.0611 58.1619 23.4156 58.9482 23.4156C59.7428 23.4156 60.2889 24.0611 60.2889 25.4596C60.2889 26.8582 59.7428 27.5038 58.9482 27.5038ZM63.5651 27.4458L65.1125 25.9728C65.9155 25.2197 66.0724 24.7066 66.0724 24.1439C66.0724 23.1176 65.2616 22.4805 64.0035 22.4805C63.0519 22.4805 62.249 22.8363 61.8022 23.4404L62.5555 24.0197C62.8782 23.6059 63.3496 23.4156 63.9124 23.4156C64.6244 23.4156 64.9885 23.7218 64.9885 24.2514C64.9885 24.5742 64.8891 24.9135 64.3263 25.4514L62.0255 27.6362V28.3562H66.2958V27.4458H63.5651Z" fill="#545EA7"/>
<path d="M48.4798 26.1246V25.0078H28.377V26.1246H48.4798Z" fill="#545EA7"/>
<path d="M94.2735 26.1246V25.0078H74.1709V26.1246H94.2735Z" fill="#545EA7"/>
<path d="M69.1634 24.965C69.2363 24.9593 69.3093 24.9565 69.3822 24.9565C69.6908 24.9565 69.9685 25.0266 70.2153 25.1669C70.4678 25.3016 70.6669 25.4951 70.8128 25.7475C70.9643 26 71.04 26.2889 71.04 26.6143C71.04 26.9678 70.9503 27.2819 70.7707 27.5568C70.5912 27.8317 70.3332 28.0477 69.9965 28.2048C69.6599 28.3619 69.2672 28.4404 68.8184 28.4404C68.2798 28.4404 67.7525 28.3282 67.2363 28.1038V27.3127C67.8534 27.5203 68.3724 27.6241 68.7932 27.6241C69.1915 27.6241 69.4972 27.5372 69.7104 27.3633C69.9292 27.1838 70.0386 26.9313 70.0386 26.6059C70.0386 25.9888 69.6459 25.6803 68.8605 25.6803C68.608 25.6803 68.3359 25.697 68.0442 25.7307V25.0828L69.702 23.2819H67.3205V22.4824H70.796V23.2482L69.1634 24.965Z" fill="#545EA7"/>
</g>
</g>
<defs>
<clipPath id="clip0_157_444">
<rect width="121" height="121" fill="white"/>
</clipPath>
</defs>
</svg>
