<svg width="28" height="29" viewBox="0 0 28 29" fill="none" xmlns="http://www.w3.org/2000/svg">
<path d="M20.0249 20.3998C21.046 22.1717 22.0558 23.9235 23.0647 25.6734C18.5969 29.0939 11.6459 29.5073 6.50011 25.5683C0.578494 21.0318 -0.394777 13.2912 2.77557 7.71915C6.42192 1.31013 13.2455 -0.107257 17.6388 0.932063C17.52 1.19018 14.8887 6.64908 14.8887 6.64908C14.8887 6.64908 14.6807 6.66275 14.563 6.66502C13.2644 6.72006 12.2972 7.02222 11.2606 7.5582C10.1232 8.15169 9.14851 9.01472 8.42169 10.0719C7.69487 11.129 7.23804 12.3481 7.09114 13.6225C6.93785 14.915 7.11657 16.2252 7.61042 17.4295C8.02797 18.4475 8.61861 19.3517 9.41044 20.1151C10.6251 21.2872 12.0706 22.013 13.7461 22.2533C15.3328 22.4811 16.8588 22.2556 18.2887 21.537C18.8251 21.2679 19.2813 20.9707 19.8147 20.563C19.8826 20.5189 19.943 20.4631 20.0249 20.3998Z" fill="#FF492C"/>
<path d="M20.0348 4.86013C19.7755 4.60504 19.5352 4.3697 19.2961 4.13283C19.1533 3.99162 19.0159 3.84472 18.8698 3.70693C18.8174 3.6572 18.7559 3.58926 18.7559 3.58926C18.7559 3.58926 18.8056 3.48373 18.8269 3.44046C19.1067 2.87904 19.5451 2.4687 20.0651 2.14226C20.6402 1.77853 21.3102 1.59346 21.9904 1.61045C22.8608 1.62753 23.6701 1.84428 24.353 2.42809C24.8571 2.85892 25.1156 3.40553 25.1611 4.05805C25.2371 5.15886 24.7815 6.00194 23.877 6.5903C23.3455 6.93649 22.7724 7.2041 22.1977 7.52106C21.8807 7.69605 21.6097 7.84978 21.2999 8.16636C21.0274 8.48408 21.0141 8.78358 21.0141 8.78358L25.1315 8.77826V10.6121H18.776C18.776 10.6121 18.776 10.4868 18.776 10.4348C18.7517 9.53365 18.8569 8.68564 19.2695 7.86725C19.6491 7.11641 20.239 6.56677 20.9477 6.14352C21.4935 5.81745 22.0682 5.53997 22.6152 5.21542C22.9527 5.01538 23.1911 4.72196 23.1892 4.29643C23.1892 3.93127 22.9234 3.60672 22.5439 3.50537C21.6488 3.26395 20.7378 3.64923 20.264 4.46839C20.1949 4.58796 20.1243 4.70677 20.0348 4.86013Z" fill="#FF492C"/>
<path d="M27.9984 18.4512L24.5286 12.459H17.6622L14.1699 18.5131H21.0868L24.5001 24.4768L27.9984 18.4512Z" fill="#FF492C"/>
</svg>
