<svg width="83" height="91" viewBox="0 0 83 91" fill="none" xmlns="http://www.w3.org/2000/svg">
<g clip-path="url(#clip0_157_518)">
<path d="M7.15332 70.9794L42.031 88.3994L75.5842 70.9794V2.85938H7.15332V70.9794Z" fill="white"/>
<path d="M76.2899 3.11914L6.44629 72.1925L42.6484 89.7858L76.2899 72.8858V3.11914Z" fill="#F2F3F2"/>
<path d="M4.85547 25.5655V72.4521L6.09164 73.0588L40.9693 90.4788L42.0289 90.9988L43.0885 90.4788L76.7299 73.0588L77.9661 72.4521V0.605469H4.85547V25.5655ZM7.15121 71.1521V2.8588H75.6704V71.1521L42.0289 88.5721L7.15121 71.1521Z" fill="#DCDEDC"/>
<path d="M41.412 3.98547C41.7652 3.98547 42.1184 3.98547 42.4716 4.07214L41.412 6.06547C39.8227 5.9788 38.4099 7.19214 38.3216 8.75214C38.2333 10.3121 39.4695 11.6988 41.0588 11.7855H41.412C42.1184 11.7855 42.8248 11.5255 43.3546 11.0921L44.5025 12.9988C43.6195 13.6055 42.5599 13.9521 41.412 13.9521C38.5865 14.0388 36.2025 11.9588 36.1142 9.18547C36.0259 6.41214 38.145 4.07214 40.9705 3.98547H41.412ZM45.0322 8.23214L46.3567 10.3988L45.0322 12.4788L43.7961 10.3988H41.2354L42.5599 8.23214H45.0322ZM42.9131 7.45214C42.9131 7.10547 43.0014 6.7588 43.178 6.4988C43.3546 6.2388 43.7078 5.9788 43.9727 5.80547L44.1493 5.7188C44.5025 5.54547 44.5907 5.4588 44.5907 5.28547C44.5907 5.11214 44.3259 4.9388 44.1493 4.9388C43.7961 4.9388 43.5312 5.11214 43.3546 5.4588L42.9131 5.02547C43.0014 4.85214 43.178 4.6788 43.3546 4.50547C43.6195 4.33214 43.8844 4.33214 44.1493 4.33214C44.4142 4.33214 44.7673 4.4188 44.9439 4.59214C45.1205 4.76547 45.2971 5.02547 45.2971 5.28547C45.2971 5.7188 45.0322 6.06547 44.5025 6.2388L44.2376 6.41214C43.9727 6.58547 43.7961 6.67214 43.7078 6.93214H45.2971V7.5388L42.9131 7.45214ZM41.412 18.2855L49.8003 13.6055V0.605469H32.9354V13.5188L41.412 18.2855ZM79.645 48.9655H3.17905L0.353516 55.0321L3.17905 61.0988H79.645L82.3822 55.0321L79.645 48.9655Z" fill="#FF492C"/>
<path d="M16.8563 45.0645C16.8033 45.0645 16.7592 45.0472 16.7239 45.0125C16.6886 44.9721 16.6709 44.9259 16.6709 44.8739V34.3352C16.6709 34.2832 16.6886 34.237 16.7239 34.1965C16.7592 34.1619 16.8033 34.1445 16.8563 34.1445H18.7194C18.7724 34.1445 18.8165 34.1619 18.8519 34.1965C18.8931 34.237 18.9137 34.2832 18.9137 34.3352V43.0972C18.9137 43.1492 18.9402 43.1752 18.9931 43.1752H24.185C24.238 43.1752 24.2851 43.1925 24.3263 43.2272C24.3616 43.2676 24.3793 43.3139 24.3793 43.3659V44.8739C24.3793 44.9259 24.3616 44.9721 24.3263 45.0125C24.2851 45.0472 24.238 45.0645 24.185 45.0645H16.8563ZM32.8471 40.2285C32.9118 40.6214 32.9324 41.0634 32.9089 41.5545C32.903 41.6816 32.8353 41.7452 32.7058 41.7452H27.7964C27.7317 41.7452 27.7111 41.7712 27.7346 41.8232C27.7641 42.0312 27.82 42.2392 27.9024 42.4472C28.1791 43.025 28.7412 43.3139 29.5889 43.3139C30.2658 43.3081 30.8015 43.0394 31.1959 42.5079C31.2371 42.4443 31.2842 42.4125 31.3372 42.4125C31.3725 42.4125 31.4108 42.4328 31.452 42.4732L32.591 43.5825C32.644 43.6345 32.6705 43.6808 32.6705 43.7212C32.6705 43.7443 32.6499 43.7876 32.6087 43.8512C32.2614 44.273 31.811 44.6023 31.2577 44.8392C30.7103 45.0703 30.1069 45.1859 29.4476 45.1859C28.5352 45.1859 27.7641 44.9836 27.1342 44.5792C26.5043 44.1748 26.0511 43.6085 25.7744 42.8805C25.5507 42.3605 25.4389 41.6788 25.4389 40.8352C25.4389 40.2632 25.5183 39.7605 25.6773 39.3272C25.9245 38.5876 26.3513 37.9983 26.9576 37.5592C27.5698 37.1259 28.2938 36.9092 29.1297 36.9092C30.1893 36.9092 31.0399 37.2096 31.6815 37.8105C32.3232 38.4114 32.7117 39.2174 32.8471 40.2285ZM29.1474 38.8072C28.4763 38.8072 28.0348 39.1134 27.8229 39.7259C27.7817 39.8645 27.7464 40.0321 27.717 40.2285C27.717 40.2805 27.7435 40.3065 27.7964 40.3065H30.5425C30.6072 40.3065 30.6278 40.2805 30.6043 40.2285C30.5513 39.9281 30.5248 39.7836 30.5248 39.7952C30.4306 39.4832 30.2658 39.2405 30.0304 39.0672C29.789 38.8939 29.4947 38.8072 29.1474 38.8072ZM37.4739 36.9179C38.1626 36.9179 38.7777 37.0363 39.3193 37.2732C39.8609 37.5043 40.2817 37.825 40.582 38.2352C40.8822 38.6396 41.0323 39.0903 41.0323 39.5872V44.8739C41.0323 44.9259 41.0146 44.9721 40.9793 45.0125C40.944 45.0472 40.8998 45.0645 40.8469 45.0645H38.9838C38.9308 45.0645 38.8866 45.0472 38.8513 45.0125C38.8101 44.9721 38.7895 44.9259 38.7895 44.8739V44.3625C38.7895 44.3336 38.7807 44.3134 38.763 44.3019C38.7395 44.2903 38.7189 44.299 38.7012 44.3279C38.2538 44.8999 37.5386 45.1859 36.5556 45.1859C35.7256 45.1859 35.0575 44.9894 34.5512 44.5965C34.0391 44.2036 33.783 43.6201 33.783 42.8459C33.783 42.0485 34.0715 41.4274 34.6483 40.9825C35.2193 40.5434 36.0346 40.3239 37.0942 40.3239H38.71C38.763 40.3239 38.7895 40.2979 38.7895 40.2459V39.8992C38.7895 39.5583 38.6836 39.2896 38.4716 39.0932C38.2597 38.9025 37.9419 38.8072 37.518 38.8072C37.1943 38.8072 36.9235 38.865 36.7057 38.9805C36.4879 39.0961 36.3466 39.2579 36.2819 39.4659C36.2524 39.5814 36.1847 39.6334 36.0788 39.6219L34.1539 39.3705C34.0244 39.3474 33.9655 39.3012 33.9773 39.2319C34.0185 38.7928 34.1951 38.397 34.5071 38.0445C34.8191 37.6921 35.2341 37.4176 35.7521 37.2212C36.2642 37.019 36.8381 36.9179 37.4739 36.9179ZM37.156 43.5479C37.6093 43.5479 37.9948 43.4294 38.3127 43.1925C38.6306 42.9556 38.7895 42.6494 38.7895 42.2739V41.7105C38.7895 41.6585 38.763 41.6325 38.71 41.6325H37.571C37.0942 41.6325 36.7204 41.7221 36.4496 41.9012C36.1788 42.0745 36.0434 42.323 36.0434 42.6465C36.0434 42.9296 36.1435 43.1492 36.3437 43.3052C36.5438 43.467 36.8146 43.5479 37.156 43.5479ZM47.6811 34.3352C47.6811 34.2832 47.6988 34.237 47.7341 34.1965C47.7694 34.1619 47.8136 34.1445 47.8665 34.1445H49.7296C49.7826 34.1445 49.8267 34.1619 49.8621 34.1965C49.8974 34.237 49.915 34.2832 49.915 34.3352V44.8739C49.915 44.9259 49.8974 44.9721 49.8621 45.0125C49.8267 45.0472 49.7826 45.0645 49.7296 45.0645H47.8665C47.8136 45.0645 47.7694 45.0472 47.7341 45.0125C47.6988 44.9721 47.6811 44.9259 47.6811 44.8739V44.3625C47.6811 44.3336 47.6693 44.3163 47.6458 44.3105C47.6222 44.3048 47.6016 44.3105 47.584 44.3279C47.1366 44.8999 46.5273 45.1859 45.7562 45.1859C45.0145 45.1859 44.3758 44.9836 43.8402 44.5792C43.3045 44.1748 42.9189 43.6201 42.6834 42.9152C42.5069 42.3721 42.4186 41.7423 42.4186 41.0259C42.4186 40.2863 42.5127 39.6421 42.7011 39.0932C42.9483 38.423 43.3339 37.8943 43.8578 37.5072C44.3817 37.1143 45.0292 36.9179 45.8004 36.9179C46.5656 36.9179 47.1602 37.1779 47.584 37.6979C47.6016 37.7325 47.6222 37.7441 47.6458 37.7325C47.6693 37.721 47.6811 37.7008 47.6811 37.6719V34.3352ZM47.3456 42.6292C47.5575 42.2479 47.6635 41.7221 47.6635 41.0519C47.6635 40.3585 47.5457 39.8125 47.3103 39.4139C47.0689 39.0094 46.7157 38.8072 46.2507 38.8072C45.7503 38.8072 45.3736 39.0094 45.1205 39.4139C44.8556 39.8241 44.7231 40.3759 44.7231 41.0692C44.7231 41.6932 44.835 42.2132 45.0587 42.6292C45.3236 43.0799 45.715 43.3052 46.233 43.3052C46.7098 43.3052 47.0807 43.0799 47.3456 42.6292ZM58.8331 40.2285C58.8979 40.6214 58.9185 41.0634 58.8949 41.5545C58.8891 41.6816 58.8214 41.7452 58.6919 41.7452H53.7825C53.7177 41.7452 53.6971 41.7712 53.7207 41.8232C53.7501 42.0312 53.806 42.2392 53.8885 42.4472C54.1651 43.025 54.7273 43.3139 55.5749 43.3139C56.2519 43.3081 56.7876 43.0394 57.182 42.5079C57.2232 42.4443 57.2703 42.4125 57.3232 42.4125C57.3586 42.4125 57.3968 42.4328 57.438 42.4732L58.5771 43.5825C58.63 43.6345 58.6565 43.6808 58.6565 43.7212C58.6565 43.7443 58.6359 43.7876 58.5947 43.8512C58.2474 44.273 57.7971 44.6023 57.2438 44.8392C56.6963 45.0703 56.093 45.1859 55.4337 45.1859C54.5213 45.1859 53.7501 44.9836 53.1203 44.5792C52.4904 44.1748 52.0371 43.6085 51.7605 42.8805C51.5368 42.3605 51.4249 41.6788 51.4249 40.8352C51.4249 40.2632 51.5044 39.7605 51.6633 39.3272C51.9106 38.5876 52.3374 37.9983 52.9437 37.5592C53.5559 37.1259 54.2799 36.9092 55.1158 36.9092C56.1754 36.9092 57.026 37.2096 57.6676 37.8105C58.3092 38.4114 58.6977 39.2174 58.8331 40.2285ZM55.1334 38.8072C54.4624 38.8072 54.0209 39.1134 53.809 39.7259C53.7678 39.8645 53.7325 40.0321 53.703 40.2285C53.703 40.2805 53.7295 40.3065 53.7825 40.3065H56.5286C56.5933 40.3065 56.6139 40.2805 56.5904 40.2285C56.5374 39.9281 56.5109 39.7836 56.5109 39.7952C56.4167 39.4832 56.2519 39.2405 56.0164 39.0672C55.7751 38.8939 55.4808 38.8072 55.1334 38.8072ZM64.3517 36.9352C64.7344 36.9352 65.0346 37.0074 65.2524 37.1519C65.3407 37.1981 65.3731 37.2761 65.3495 37.3859L65.014 39.1712C65.0081 39.2925 64.9345 39.3272 64.7932 39.2752C64.6343 39.2232 64.4489 39.1972 64.237 39.1972C64.1545 39.1972 64.0398 39.2088 63.8926 39.2319C63.51 39.2608 63.1862 39.3965 62.9213 39.6392C62.6564 39.8876 62.524 40.2141 62.524 40.6185V44.8739C62.524 44.9259 62.5063 44.9721 62.471 45.0125C62.4298 45.0472 62.3827 45.0645 62.3297 45.0645H60.4755C60.4225 45.0645 60.3754 45.0472 60.3342 45.0125C60.2989 44.9721 60.2812 44.9259 60.2812 44.8739V37.2299C60.2812 37.1779 60.2989 37.1345 60.3342 37.0999C60.3754 37.0652 60.4225 37.0479 60.4755 37.0479H62.3297C62.3827 37.0479 62.4298 37.0652 62.471 37.0999C62.5063 37.1345 62.524 37.1779 62.524 37.2299V37.8279C62.524 37.8568 62.5328 37.877 62.5505 37.8885C62.574 37.9001 62.5917 37.8943 62.6035 37.8712C63.0391 37.2472 63.6218 36.9352 64.3517 36.9352Z" fill="#252530"/>
<path d="M27.549 58.4124C27.4843 58.4124 27.4431 58.3835 27.4254 58.3257L25.8184 52.4584L25.8096 52.4237C25.8096 52.3717 25.8419 52.3457 25.9067 52.3457H26.772C26.8368 52.3457 26.878 52.3746 26.8956 52.4324L27.9022 56.3844C27.9081 56.4017 27.9169 56.4104 27.9287 56.4104C27.9405 56.4104 27.9493 56.4017 27.9552 56.3844L28.9177 52.4324C28.9353 52.3746 28.9736 52.3457 29.0324 52.3457H29.8801C29.9449 52.3457 29.9861 52.3746 30.0037 52.4324L31.028 56.393C31.0339 56.4104 31.0427 56.419 31.0545 56.419C31.0662 56.419 31.0751 56.4104 31.081 56.393L32.0699 52.4324C32.0875 52.3746 32.1288 52.3457 32.1935 52.3457H33.0147C33.0971 52.3457 33.1295 52.3833 33.1118 52.4584L31.5842 58.3257C31.5666 58.3835 31.5254 58.4124 31.4606 58.4124H30.6395C30.5747 58.4124 30.5335 58.3835 30.5158 58.3257L29.4828 54.1917C29.4769 54.1744 29.468 54.1628 29.4563 54.157C29.4445 54.157 29.4357 54.1686 29.4298 54.1917L28.4408 58.3257C28.4232 58.3835 28.3849 58.4124 28.3261 58.4124H27.549ZM34.0919 58.4124C34.0625 58.4124 34.036 58.4008 34.0124 58.3777C33.9948 58.3604 33.986 58.3373 33.986 58.3084V52.4497C33.986 52.4208 33.9948 52.3977 34.0124 52.3804C34.036 52.3573 34.0625 52.3457 34.0919 52.3457H34.9043C34.9337 52.3457 34.9572 52.3573 34.9749 52.3804C34.9984 52.3977 35.0102 52.4208 35.0102 52.4497V58.3084C35.0102 58.3373 34.9984 58.3604 34.9749 58.3777C34.9572 58.4008 34.9337 58.4124 34.9043 58.4124H34.0919ZM39.8931 52.4497C39.8931 52.4208 39.9019 52.3977 39.9196 52.3804C39.9431 52.3573 39.9696 52.3457 39.999 52.3457H40.8114C40.8408 52.3457 40.8644 52.3573 40.882 52.3804C40.9056 52.3977 40.9173 52.4208 40.9173 52.4497V58.3084C40.9173 58.3373 40.9056 58.3604 40.882 58.3777C40.8644 58.4008 40.8408 58.4124 40.8114 58.4124H40.0255C39.9667 58.4124 39.9255 58.3893 39.9019 58.343L37.3589 54.2524C37.3472 54.235 37.3354 54.2264 37.3236 54.2264C37.3118 54.2321 37.306 54.2466 37.306 54.2697L37.3236 58.3084C37.3236 58.3373 37.3118 58.3604 37.2883 58.3777C37.2706 58.4008 37.2471 58.4124 37.2177 58.4124H36.4053C36.3759 58.4124 36.3494 58.4008 36.3258 58.3777C36.3082 58.3604 36.2994 58.3373 36.2994 58.3084V52.4497C36.2994 52.4208 36.3082 52.3977 36.3258 52.3804C36.3494 52.3573 36.3759 52.3457 36.4053 52.3457H37.1912C37.25 52.3457 37.2912 52.3688 37.3148 52.415L39.8489 56.5057C39.8607 56.523 39.8725 56.5288 39.8843 56.523C39.896 56.523 39.9019 56.5115 39.9019 56.4884L39.8931 52.4497ZM46.2682 52.3457C46.2976 52.3457 46.3212 52.3573 46.3388 52.3804C46.3624 52.3977 46.3741 52.4208 46.3741 52.4497V53.117C46.3741 53.1459 46.3624 53.169 46.3388 53.1864C46.3212 53.2095 46.2976 53.221 46.2682 53.221H44.6435C44.6141 53.221 44.5994 53.2355 44.5994 53.2644V58.3084C44.5994 58.3373 44.5905 58.3604 44.5729 58.3777C44.5493 58.4008 44.5228 58.4124 44.4934 58.4124H43.6811C43.6516 58.4124 43.6281 58.4008 43.6104 58.3777C43.5869 58.3604 43.5751 58.3373 43.5751 58.3084V53.2644C43.5751 53.2355 43.5604 53.221 43.531 53.221H41.9681C41.9386 53.221 41.9122 53.2095 41.8886 53.1864C41.871 53.169 41.8621 53.1459 41.8621 53.117V52.4497C41.8621 52.4208 41.871 52.3977 41.8886 52.3804C41.9122 52.3573 41.9386 52.3457 41.9681 52.3457H46.2682ZM51.5042 53.1084C51.5042 53.1373 51.4925 53.1604 51.4689 53.1777C51.4513 53.2008 51.4277 53.2124 51.3983 53.2124H48.3873C48.3579 53.2124 48.3432 53.2268 48.3432 53.2557V54.8764C48.3432 54.9053 48.3579 54.9197 48.3873 54.9197H50.4094C50.4388 54.9197 50.4653 54.9284 50.4888 54.9457C50.5065 54.9688 50.5153 54.9948 50.5153 55.0237V55.6824C50.5153 55.7113 50.5065 55.7373 50.4888 55.7604C50.4653 55.7777 50.4388 55.7864 50.4094 55.7864H48.3873C48.3579 55.7864 48.3432 55.8008 48.3432 55.8297V57.5024C48.3432 57.5313 48.3579 57.5457 48.3873 57.5457H51.3983C51.4277 57.5457 51.4513 57.5573 51.4689 57.5804C51.4925 57.5977 51.5042 57.6208 51.5042 57.6497V58.3084C51.5042 58.3373 51.4925 58.3604 51.4689 58.3777C51.4513 58.4008 51.4277 58.4124 51.3983 58.4124H47.4249C47.3955 58.4124 47.369 58.4008 47.3454 58.3777C47.3278 58.3604 47.3189 58.3373 47.3189 58.3084V52.4497C47.3189 52.4208 47.3278 52.3977 47.3454 52.3804C47.369 52.3573 47.3955 52.3457 47.4249 52.3457H51.3983C51.4277 52.3457 51.4513 52.3573 51.4689 52.3804C51.4925 52.3977 51.5042 52.4208 51.5042 52.4497V53.1084ZM56.0163 58.4124C55.9574 58.4124 55.9162 58.3864 55.8927 58.3344L54.7271 55.8384C54.7153 55.8153 54.6977 55.8037 54.6741 55.8037H53.6146C53.5851 55.8037 53.5704 55.8181 53.5704 55.847V58.3084C53.5704 58.3373 53.5586 58.3604 53.5351 58.3777C53.5174 58.4008 53.4939 58.4124 53.4645 58.4124H52.6521C52.6227 58.4124 52.5962 58.4008 52.5727 58.3777C52.555 58.3604 52.5462 58.3373 52.5462 58.3084V52.4497C52.5462 52.4208 52.555 52.3977 52.5727 52.3804C52.5962 52.3573 52.6227 52.3457 52.6521 52.3457H55.0803C55.4394 52.3457 55.7573 52.4179 56.0339 52.5624C56.3106 52.7126 56.5255 52.9206 56.6785 53.1864C56.8316 53.4579 56.9081 53.767 56.9081 54.1137C56.9081 54.5124 56.8021 54.8504 56.5902 55.1277C56.3842 55.4108 56.0957 55.6073 55.7249 55.717C55.7131 55.717 55.7043 55.7228 55.6984 55.7344C55.6925 55.7459 55.6925 55.7575 55.6984 55.769L56.9434 58.291C56.9552 58.3141 56.9611 58.3315 56.9611 58.343C56.9611 58.3893 56.9287 58.4124 56.8639 58.4124H56.0163ZM53.6146 53.2124C53.5851 53.2124 53.5704 53.2268 53.5704 53.2557V54.9804C53.5704 55.0093 53.5851 55.0237 53.6146 55.0237H54.939C55.2216 55.0237 55.4512 54.9399 55.6278 54.7724C55.7985 54.6106 55.8838 54.3939 55.8838 54.1224C55.8838 53.8508 55.7985 53.6313 55.6278 53.4637C55.4512 53.2961 55.2216 53.2124 54.939 53.2124H53.6146Z" fill="white"/>
<path d="M29.5709 74.0638C29.5533 74.0811 29.5474 74.0985 29.5533 74.1158C29.565 74.1331 29.5827 74.1418 29.6063 74.1418H33.0764C33.1176 74.1418 33.1529 74.1563 33.1823 74.1851C33.2176 74.214 33.2353 74.2487 33.2353 74.2891V75.5111C33.2353 75.5516 33.2176 75.5863 33.1823 75.6151C33.1529 75.644 33.1176 75.6585 33.0764 75.6585H27.3193C27.2722 75.6585 27.234 75.644 27.2046 75.6151C27.1751 75.5863 27.1604 75.5516 27.1604 75.5111V74.3498C27.1604 74.2747 27.1869 74.2111 27.2399 74.1591C27.6578 73.7605 28.0846 73.3243 28.5202 72.8505C28.9558 72.3767 29.2295 72.082 29.3414 71.9665C29.5768 71.6891 29.8182 71.4234 30.0654 71.1691C30.8424 70.3256 31.2309 69.6987 31.2309 69.2885C31.2309 68.9938 31.125 68.7511 30.9131 68.5605C30.7011 68.3756 30.4245 68.2831 30.0831 68.2831C29.7416 68.2831 29.465 68.3756 29.2531 68.5605C29.0353 68.7511 28.9264 69.0025 28.9264 69.3145V69.6265C28.9264 69.6669 28.9116 69.7016 28.8822 69.7305C28.8528 69.7594 28.8175 69.7738 28.7763 69.7738H27.2664C27.2252 69.7738 27.1898 69.7594 27.1604 69.7305C27.1251 69.7016 27.1074 69.6669 27.1074 69.6265V69.0371C27.1369 68.5865 27.284 68.1849 27.5489 67.8325C27.8138 67.4858 28.1641 67.22 28.5997 67.0351C29.0411 66.8503 29.5356 66.7578 30.0831 66.7578C30.6894 66.7578 31.2162 66.8705 31.6636 67.0958C32.111 67.3154 32.4553 67.6129 32.6967 67.9885C32.9439 68.3698 33.0675 68.7887 33.0675 69.2451C33.0675 69.5976 32.9763 69.9587 32.7938 70.3285C32.6172 70.6983 32.3494 71.0969 31.9903 71.5245C31.7254 71.848 31.4399 72.1716 31.1338 72.4951C30.8277 72.8129 30.3715 73.2723 29.7652 73.8731L29.5709 74.0638ZM37.3941 75.7971C36.4523 75.7971 35.7106 75.54 35.169 75.0258C34.6216 74.5116 34.3478 73.8096 34.3478 72.9198V69.6005C34.3478 68.728 34.6216 68.0376 35.169 67.5291C35.7106 67.0149 36.4523 66.7578 37.3941 66.7578C38.3301 66.7578 39.0747 67.0149 39.6281 67.5291C40.1755 68.0376 40.4492 68.728 40.4492 69.6005V72.9198C40.4492 73.8096 40.1755 74.5116 39.6281 75.0258C39.0747 75.54 38.3301 75.7971 37.3941 75.7971ZM37.3941 74.2805C37.7767 74.2805 38.0799 74.1649 38.3036 73.9338C38.5332 73.7027 38.648 73.3936 38.648 73.0065V69.5485C38.648 69.1671 38.5332 68.8609 38.3036 68.6298C38.0799 68.3987 37.7767 68.2831 37.3941 68.2831C37.0174 68.2831 36.7172 68.3987 36.4935 68.6298C36.2639 68.8609 36.1491 69.1671 36.1491 69.5485V73.0065C36.1491 73.3936 36.2639 73.7027 36.4935 73.9338C36.7172 74.1649 37.0174 74.2805 37.3941 74.2805ZM44.0341 74.0638C44.0165 74.0811 44.0135 74.0985 44.0253 74.1158C44.0312 74.1331 44.0488 74.1418 44.0783 74.1418H47.5484C47.5896 74.1418 47.6249 74.1563 47.6543 74.1851C47.6838 74.214 47.6985 74.2487 47.6985 74.2891V75.5111C47.6985 75.5516 47.6838 75.5863 47.6543 75.6151C47.6249 75.644 47.5896 75.6585 47.5484 75.6585H41.7825C41.7413 75.6585 41.706 75.644 41.6766 75.6151C41.6471 75.5863 41.6324 75.5516 41.6324 75.5111V74.3498C41.6324 74.2747 41.656 74.2111 41.7031 74.1591C42.1269 73.7605 42.5537 73.3243 42.9834 72.8505C43.419 72.3767 43.6927 72.082 43.8045 71.9665C44.0459 71.6891 44.2902 71.4234 44.5374 71.1691C45.3144 70.3256 45.703 69.6987 45.703 69.2885C45.703 68.9938 45.597 68.7511 45.3851 68.5605C45.1673 68.3756 44.8877 68.2831 44.5463 68.2831C44.2048 68.2831 43.9282 68.3756 43.7163 68.5605C43.5043 68.7511 43.3984 69.0025 43.3984 69.3145V69.6265C43.3984 69.6669 43.3837 69.7016 43.3542 69.7305C43.3248 69.7594 43.2865 69.7738 43.2394 69.7738H41.7296C41.6883 69.7738 41.653 69.7594 41.6236 69.7305C41.5942 69.7016 41.5794 69.6669 41.5794 69.6265V69.0371C41.603 68.5865 41.7472 68.1849 42.0121 67.8325C42.277 67.4858 42.6302 67.22 43.0717 67.0351C43.5132 66.8503 44.0047 66.7578 44.5463 66.7578C45.1526 66.7578 45.6794 66.8705 46.1268 67.0958C46.58 67.3154 46.9274 67.6129 47.1687 67.9885C47.41 68.3698 47.5307 68.7887 47.5307 69.2451C47.5307 69.5976 47.4424 69.9587 47.2658 70.3285C47.0833 70.6983 46.8126 71.0969 46.4535 71.5245C46.1886 71.848 45.9031 72.1716 45.597 72.4951C45.2909 72.8129 44.8347 73.2723 44.2284 73.8731L44.0341 74.0638ZM55.2126 71.8278C55.2538 71.8278 55.2921 71.8423 55.3274 71.8711C55.3569 71.9 55.3716 71.9347 55.3716 71.9751V73.2491C55.3716 73.2896 55.3569 73.3243 55.3274 73.3531C55.2921 73.382 55.2538 73.3965 55.2126 73.3965H54.6652C54.624 73.3965 54.6034 73.4167 54.6034 73.4571V75.5111C54.6034 75.5516 54.5887 75.5863 54.5592 75.6151C54.5239 75.644 54.4856 75.6585 54.4444 75.6585H52.9522C52.9051 75.6585 52.8669 75.644 52.8374 75.6151C52.808 75.5863 52.7933 75.5516 52.7933 75.5111V73.4571C52.7933 73.4167 52.7727 73.3965 52.7315 73.3965H48.8022C48.761 73.3965 48.7227 73.382 48.6874 73.3531C48.658 73.3243 48.6433 73.2896 48.6433 73.2491V72.2438C48.6433 72.1918 48.658 72.1283 48.6874 72.0531L50.992 66.9745C51.0273 66.8994 51.0862 66.8618 51.1686 66.8618H52.7668C52.8256 66.8618 52.8669 66.8763 52.8904 66.9051C52.9139 66.934 52.911 66.9774 52.8816 67.0351L50.7448 71.7498C50.7389 71.7671 50.7389 71.7845 50.7448 71.8018C50.7565 71.8191 50.7712 71.8278 50.7889 71.8278H52.7315C52.7727 71.8278 52.7933 71.8047 52.7933 71.7585V70.2071C52.7933 70.1609 52.808 70.1234 52.8374 70.0945C52.8669 70.0656 52.9051 70.0511 52.9522 70.0511H54.4444C54.4856 70.0511 54.5239 70.0656 54.5592 70.0945C54.5887 70.1234 54.6034 70.1609 54.6034 70.2071V71.7585C54.6034 71.8047 54.624 71.8278 54.6652 71.8278H55.2126Z" fill="#252530"/>
</g>
<defs>
<clipPath id="clip0_157_518">
<rect width="83" height="91" fill="white"/>
</clipPath>
</defs>
</svg>
