<svg width="82" height="82" viewBox="0 0 82 82" fill="none" xmlns="http://www.w3.org/2000/svg">
<circle cx="41" cy="41" r="40" fill="#047AFF" stroke="white" stroke-width="2"/>
<path d="M54.2829 37.6667H27.6162V51C27.6162 56 29.2829 57.6667 34.2829 57.6667H47.6162C52.6162 57.6667 54.2829 56 54.2829 51V37.6667Z" stroke="white" stroke-width="2" stroke-miterlimit="10" stroke-linecap="round" stroke-linejoin="round"/>
<path d="M56.8337 32.6666V34.3333C56.8337 36.1666 55.9503 37.6666 53.5003 37.6666H28.5003C25.9503 37.6666 25.167 36.1666 25.167 34.3333V32.6666C25.167 30.8333 25.9503 29.3333 28.5003 29.3333H53.5003C55.9503 29.3333 56.8337 30.8333 56.8337 32.6666Z" stroke="white" stroke-width="2" stroke-miterlimit="10" stroke-linecap="round" stroke-linejoin="round"/>
<path d="M40.4 29.3334H31.2C30.6333 28.7167 30.65 27.7667 31.25 27.1667L33.6166 24.8C34.2333 24.1834 35.25 24.1834 35.8666 24.8L40.4 29.3334Z" stroke="white" stroke-width="2" stroke-miterlimit="10" stroke-linecap="round" stroke-linejoin="round"/>
<path d="M50.783 29.3334H41.583L46.1163 24.8C46.733 24.1834 47.7497 24.1834 48.3663 24.8L50.733 27.1667C51.333 27.7667 51.3497 28.7167 50.783 29.3334Z" stroke="white" stroke-width="2" stroke-miterlimit="10" stroke-linecap="round" stroke-linejoin="round"/>
<path d="M35.9004 37.6667V46.2334C35.9004 47.5667 37.3671 48.35 38.4837 47.6334L40.0504 46.6C40.6171 46.2334 41.3337 46.2334 41.8837 46.6L43.3671 47.6C44.4671 48.3334 45.9504 47.55 45.9504 46.2167V37.6667H35.9004Z" stroke="white" stroke-width="2" stroke-miterlimit="10" stroke-linecap="round" stroke-linejoin="round"/>
</svg>
