<svg width="80" height="80" viewBox="0 0 80 80" fill="none" xmlns="http://www.w3.org/2000/svg">
<rect width="80" height="80" rx="24" fill="white" fill-opacity="0.2"/>
<rect x="1" y="1" width="78" height="78" rx="23" stroke="white" stroke-opacity="0.2" stroke-width="2"/>
<path d="M40.0003 60.8337C51.5063 60.8337 60.8337 51.5063 60.8337 40.0003C60.8337 28.4944 51.5063 19.167 40.0003 19.167C28.4944 19.167 19.167 28.4944 19.167 40.0003C19.167 51.5063 28.4944 60.8337 40.0003 60.8337Z" stroke="white" stroke-width="2" stroke-linecap="round" stroke-linejoin="round"/>
<path d="M31.6667 21.25H33.75C29.6875 33.4167 29.6875 46.5833 33.75 58.75H31.6667" stroke="white" stroke-width="2" stroke-linecap="round" stroke-linejoin="round"/>
<path d="M46.25 21.25C50.3125 33.4167 50.3125 46.5833 46.25 58.75" stroke="white" stroke-width="2" stroke-linecap="round" stroke-linejoin="round"/>
<path d="M21.25 48.3333V46.25C33.4167 50.3125 46.5833 50.3125 58.75 46.25V48.3333" stroke="white" stroke-width="2" stroke-linecap="round" stroke-linejoin="round"/>
<path d="M21.25 33.75C33.4167 29.6875 46.5833 29.6875 58.75 33.75" stroke="white" stroke-width="2" stroke-linecap="round" stroke-linejoin="round"/>
</svg>
