<svg width="85" height="94" viewBox="0 0 85 94" fill="none" xmlns="http://www.w3.org/2000/svg">
<g clip-path="url(#clip0_157_498)">
<path d="M43.2424 91.3479L5.99609 73.1226V12.3095C8.99505 11.9615 11.832 10.787 14.1783 8.92225C16.5245 7.05749 18.2839 4.57879 19.2525 1.77344H65.6769C66.6556 4.61056 68.4418 7.11365 70.8245 8.98696C73.2072 10.8603 76.0869 12.0255 79.1232 12.345V73.1226L43.2424 91.3479Z" fill="white"/>
<path d="M6.33008 73.1244L43.1694 91.3497L78.6705 73.1067V12.3468C75.719 11.9492 72.9188 10.8232 70.5322 9.07422L6.33008 73.1244Z" fill="#F7F8F7"/>
<path d="M80.478 10.6425H80.3604C77.1968 10.637 74.128 9.58257 71.6525 7.65054C69.1769 5.7185 67.4402 3.02234 66.7242 0L18.0843 0C17.3683 3.00905 15.6415 5.69456 13.1814 7.62482C10.7213 9.55507 7.67087 10.6179 4.52051 10.6425V74.6927L5.80455 75.3313L42.1014 93.459L43.1865 94L44.2625 93.4413L79.221 75.3135L80.478 74.6661V12.4163V10.6425ZM43.1684 91.3482L6.32902 73.1229V12.3098C9.30667 11.9523 12.1194 10.7721 14.4392 8.90662C16.7591 7.04118 18.4905 4.56743 19.4317 1.77375H65.3588C66.3112 4.60167 68.0721 7.10157 70.432 8.9758C72.7918 10.85 75.6511 12.0196 78.6694 12.3453V73.1229L43.1684 91.3482Z" fill="#E9E9EA"/>
<mask id="mask0_157_498" style="mask-type:luminance" maskUnits="userSpaceOnUse" x="0" y="50" width="85" height="14">
<path d="M82.0973 50.543H2.90266L0 57.1945L2.90266 63.8461H82.0973L85 57.1945L82.0973 50.543Z" fill="white"/>
</mask>
<g mask="url(#mask0_157_498)">
<path d="M-4.52051 46.1094H89.522V68.2813H-4.52051V46.1094Z" fill="#9132A2"/>
</g>
<mask id="mask1_157_498" style="mask-type:luminance" maskUnits="userSpaceOnUse" x="33" y="0" width="19" height="19">
<path d="M42.4996 18.6244L51.5421 13.6579V0H33.457V13.6579L42.4996 18.6244ZM44.3081 6.97085C44.2938 6.60366 44.388 6.24025 44.5794 5.92433C44.8266 5.59772 45.1572 5.34077 45.5379 5.17936L45.7549 5.09067C46.1256 4.91329 46.2161 4.76252 46.2161 4.58515C46.2161 4.40777 46.0171 4.22153 45.7006 4.22153C45.51 4.20768 45.3198 4.25343 45.1573 4.35222C44.9949 4.45102 44.8685 4.59776 44.7964 4.77139L44.3081 4.30135C44.4297 4.06959 44.6185 3.87828 44.8506 3.75149C45.0951 3.61314 45.3733 3.54263 45.6554 3.5475C45.9967 3.53654 46.3325 3.63287 46.6139 3.82244C46.7422 3.90522 46.8469 4.01868 46.9181 4.15213C46.9893 4.28557 47.0246 4.43459 47.0209 4.58515C47.0209 5.09954 46.7134 5.40994 46.1166 5.69374L45.782 5.84451C45.4384 6.01302 45.2666 6.15492 45.2123 6.41211H47.0209V7.09501H44.3081V6.97085ZM46.5687 7.98188L47.9251 10.1991L46.5687 12.4163L45.2123 10.1902H42.4996L43.856 7.98188H46.5687ZM42.7618 3.5475C43.1382 3.54691 43.5138 3.58255 43.8831 3.65393L42.7618 5.81791C41.9191 5.80126 41.1041 6.1131 40.4955 6.68504C39.887 7.25698 39.5345 8.04231 39.5155 8.86876C39.5369 9.69366 39.8903 10.4767 40.4987 11.0468C41.107 11.6168 41.9207 11.9274 42.7618 11.9107C43.5359 11.9153 44.2873 11.6549 44.8868 11.1746L46.1166 13.1612C45.1315 13.8318 43.9609 14.1907 42.7618 14.19C41.289 14.221 39.8637 13.6785 38.7977 12.6812C37.7317 11.6839 37.112 10.3131 37.0741 8.86876C37.112 7.4244 37.7317 6.05359 38.7977 5.05632C39.8637 4.05905 41.289 3.51653 42.7618 3.5475Z" fill="white"/>
</mask>
<g mask="url(#mask1_157_498)">
<path d="M28.9365 -4.44141H56.0642V23.0518H28.9365V-4.44141Z" fill="#9132A2"/>
</g>
<path d="M15.643 36.8848C16.2398 36.8848 16.7643 37.003 17.2164 37.2395C17.6686 37.476 18.0182 37.816 18.2654 38.2594C18.5125 38.6969 18.6361 39.1995 18.6361 39.7671C18.6361 40.3288 18.5095 40.8225 18.2563 41.2482C17.9971 41.668 17.6354 41.9961 17.1712 42.2326C16.707 42.4691 16.1705 42.5874 15.5617 42.5874H13.6356C13.5934 42.5874 13.5723 42.611 13.5723 42.6583V46.0462C13.5723 46.0935 13.5542 46.1319 13.518 46.1615C13.4879 46.1911 13.4487 46.2058 13.4005 46.2058H11.818C11.7698 46.2058 11.7306 46.1911 11.7005 46.1615C11.6703 46.1319 11.6553 46.0935 11.6553 46.0462V37.0444C11.6553 36.9971 11.6703 36.9587 11.7005 36.9291C11.7306 36.8995 11.7698 36.8848 11.818 36.8848H15.643ZM15.3537 41.0886C15.7757 41.0886 16.1102 40.9703 16.3574 40.7338C16.6106 40.4973 16.7372 40.1899 16.7372 39.8115C16.7372 39.4153 16.6106 39.099 16.3574 38.8625C16.1102 38.6201 15.7757 38.4989 15.3537 38.4989H13.6356C13.5934 38.4989 13.5723 38.5225 13.5723 38.5698V41.0176C13.5723 41.0649 13.5934 41.0886 13.6356 41.0886H15.3537ZM25.4813 42.0819C25.5296 42.4189 25.5446 42.7943 25.5266 43.2082C25.5205 43.3205 25.4633 43.3767 25.3547 43.3767H21.168C21.1138 43.3767 21.0927 43.3974 21.1047 43.4388C21.1349 43.6162 21.1861 43.7935 21.2585 43.9709C21.4936 44.4676 21.9728 44.7159 22.6962 44.7159C23.275 44.71 23.7301 44.4794 24.0617 44.0241C24.1039 43.9709 24.1461 43.9443 24.1883 43.9443C24.2124 43.9443 24.2425 43.962 24.2787 43.9975L25.2553 44.9376C25.3035 44.9849 25.3276 45.0263 25.3276 45.0618C25.3276 45.0795 25.3095 45.115 25.2734 45.1682C24.9719 45.5348 24.5891 45.8156 24.125 46.0107C23.6487 46.2117 23.1303 46.3123 22.5696 46.3123C21.798 46.3123 21.1409 46.1408 20.5984 45.7979C20.0618 45.449 19.676 44.9642 19.4409 44.3434C19.248 43.9 19.1516 43.3205 19.1516 42.6051C19.1516 42.1144 19.2209 41.6828 19.3595 41.3103C19.5705 40.6836 19.9352 40.1839 20.4537 39.8115C20.9721 39.439 21.587 39.2527 22.2984 39.2527C23.2026 39.2527 23.929 39.5099 24.4776 40.0243C25.0262 40.5387 25.3608 41.2245 25.4813 42.0819ZM22.3164 40.8757C21.7437 40.8757 21.367 41.1359 21.1861 41.6562C21.15 41.7744 21.1198 41.9163 21.0957 42.0819C21.0957 42.1232 21.1198 42.1439 21.168 42.1439H23.5101C23.5643 42.1439 23.5824 42.1232 23.5643 42.0819C23.5161 41.8276 23.492 41.7035 23.492 41.7094C23.4136 41.4433 23.2719 41.2364 23.067 41.0886C22.868 40.9467 22.6179 40.8757 22.3164 40.8757ZM30.1835 39.2793C30.509 39.2793 30.7682 39.3414 30.9611 39.4656C31.0274 39.5011 31.0515 39.5661 31.0335 39.6607L30.7531 41.1772C30.7471 41.2837 30.6838 41.3162 30.5633 41.2748C30.4246 41.2275 30.2679 41.2039 30.093 41.2039C30.0207 41.2039 29.9182 41.2127 29.7856 41.2305C29.4661 41.26 29.1918 41.3783 28.9627 41.5852C28.7397 41.7921 28.6281 42.07 28.6281 42.4189V46.0462C28.6281 46.0935 28.6101 46.1319 28.5739 46.1615C28.5437 46.1911 28.5076 46.2058 28.4654 46.2058H26.8739C26.8317 46.2058 26.7925 46.1911 26.7563 46.1615C26.7262 46.1319 26.7111 46.0935 26.7111 46.0462V39.5277C26.7111 39.4863 26.7262 39.4478 26.7563 39.4124C26.7925 39.3828 26.8317 39.368 26.8739 39.368H28.4654C28.5076 39.368 28.5437 39.3828 28.5739 39.4124C28.6101 39.4478 28.6281 39.4863 28.6281 39.5277V40.0332C28.6281 40.0568 28.6372 40.0746 28.6553 40.0864C28.6673 40.0982 28.6794 40.0923 28.6914 40.0687C29.0652 39.5424 29.5625 39.2793 30.1835 39.2793ZM35.9617 39.3592C36.0099 39.3592 36.0491 39.3739 36.0792 39.4035C36.1094 39.4331 36.1244 39.4715 36.1244 39.5188V40.7782C36.1244 40.8255 36.1094 40.8639 36.0792 40.8934C36.0491 40.923 36.0099 40.9378 35.9617 40.9378H34.6505C34.6023 40.9378 34.5781 40.9585 34.5781 40.9999V46.0462C34.5781 46.0935 34.5631 46.1319 34.5329 46.1615C34.5028 46.1911 34.4636 46.2058 34.4154 46.2058H32.8329C32.7847 46.2058 32.7455 46.1911 32.7154 46.1615C32.6852 46.1319 32.6702 46.0935 32.6702 46.0462V40.9999C32.6702 40.9585 32.6461 40.9378 32.5978 40.9378H31.8021C31.7539 40.9378 31.7147 40.923 31.6845 40.8934C31.6544 40.8639 31.6393 40.8255 31.6393 40.7782V39.5188C31.6393 39.4715 31.6544 39.4331 31.6845 39.4035C31.7147 39.3739 31.7539 39.3592 31.8021 39.3592H32.5978C32.6461 39.3592 32.6702 39.3355 32.6702 39.2882V38.9955C32.6702 38.4457 32.7546 38.017 32.9234 37.7096C33.0982 37.408 33.3755 37.1922 33.7553 37.0621C34.1411 36.9321 34.6746 36.8759 35.3558 36.8936H35.8712C35.9134 36.8936 35.9496 36.9084 35.9797 36.938C36.0159 36.9735 36.034 37.0119 36.034 37.0533V38.1264C36.034 38.1737 36.0159 38.2121 35.9797 38.2417C35.9496 38.2772 35.9134 38.2949 35.8712 38.2949H35.4191C35.1056 38.3008 34.8856 38.3629 34.759 38.4811C34.6384 38.6053 34.5781 38.827 34.5781 39.1463V39.2882C34.5781 39.3355 34.6023 39.3592 34.6505 39.3592H35.9617ZM39.8952 46.3123C39.1356 46.3123 38.4845 46.1171 37.942 45.7269C37.3994 45.3367 37.0287 44.8046 36.8297 44.1305C36.7031 43.7167 36.6398 43.2644 36.6398 42.7736C36.6398 42.2533 36.7031 41.7833 36.8297 41.3635C37.0407 40.7072 37.4175 40.1928 37.9601 39.8203C38.5026 39.4478 39.1537 39.2616 39.9133 39.2616C40.6487 39.2616 41.2817 39.4449 41.8122 39.8115C42.3306 40.1839 42.6984 40.6983 42.9154 41.3546C43.0661 41.7981 43.1414 42.2622 43.1414 42.747C43.1414 43.2259 43.0781 43.6753 42.9516 44.0951C42.7526 44.7868 42.3819 45.3278 41.8393 45.7181C41.3028 46.1142 40.6547 46.3123 39.8952 46.3123ZM39.8952 44.707C40.1906 44.707 40.4437 44.6183 40.6547 44.441C40.8657 44.2636 41.0164 44.0182 41.1069 43.7048C41.1732 43.421 41.2063 43.1106 41.2063 42.7736C41.2063 42.4011 41.1732 42.0878 41.1069 41.8335C41.0044 41.532 40.8507 41.2955 40.6457 41.124C40.4347 40.9585 40.1785 40.8757 39.8771 40.8757C39.5757 40.8757 39.3225 40.9585 39.1175 41.124C38.9125 41.2955 38.7648 41.532 38.6744 41.8335C38.6021 42.0405 38.5659 42.3538 38.5659 42.7736C38.5659 43.1757 38.5991 43.4861 38.6654 43.7048C38.7558 44.0182 38.9065 44.2636 39.1175 44.441C39.3285 44.6183 39.5877 44.707 39.8952 44.707ZM47.8436 39.2793C48.1691 39.2793 48.4283 39.3414 48.6212 39.4656C48.6936 39.5011 48.7177 39.5661 48.6936 39.6607L48.4133 41.1772C48.4072 41.2837 48.3439 41.3162 48.2234 41.2748C48.0847 41.2275 47.928 41.2039 47.7531 41.2039C47.6808 41.2039 47.5813 41.2127 47.4547 41.2305C47.1292 41.26 46.8519 41.3783 46.6228 41.5852C46.3998 41.7921 46.2883 42.07 46.2883 42.4189V46.0462C46.2883 46.0935 46.2702 46.1319 46.234 46.1615C46.2039 46.1911 46.1647 46.2058 46.1164 46.2058H44.534C44.4918 46.2058 44.4526 46.1911 44.4164 46.1615C44.3863 46.1319 44.3712 46.0935 44.3712 46.0462V39.5277C44.3712 39.4863 44.3863 39.4478 44.4164 39.4124C44.4526 39.3828 44.4918 39.368 44.534 39.368H46.1164C46.1647 39.368 46.2039 39.3828 46.234 39.4124C46.2702 39.4478 46.2883 39.4863 46.2883 39.5277V40.0332C46.2883 40.0568 46.2943 40.0746 46.3063 40.0864C46.3305 40.0982 46.3455 40.0923 46.3516 40.0687C46.7253 39.5424 47.2226 39.2793 47.8436 39.2793ZM57.293 39.2616C57.9984 39.2616 58.55 39.4685 58.9478 39.8824C59.3457 40.3022 59.5446 40.8905 59.5446 41.6473V46.0462C59.5446 46.0935 59.5296 46.1319 59.4994 46.1615C59.4693 46.1911 59.4331 46.2058 59.3909 46.2058H57.7994C57.7572 46.2058 57.718 46.1911 57.6819 46.1615C57.6517 46.1319 57.6367 46.0935 57.6367 46.0462V42.0553C57.6367 41.6946 57.5432 41.4078 57.3563 41.195C57.1634 40.9821 56.9072 40.8757 56.5877 40.8757C56.2742 40.8757 56.018 40.9821 55.8191 41.195C55.6202 41.4078 55.5207 41.6916 55.5207 42.0464V46.0462C55.5207 46.0935 55.5056 46.1319 55.4755 46.1615C55.4393 46.1911 55.4001 46.2058 55.3579 46.2058H53.7845C53.7363 46.2058 53.6971 46.1911 53.667 46.1615C53.6368 46.1319 53.6218 46.0935 53.6218 46.0462V42.0553C53.6218 41.7005 53.5223 41.4137 53.3234 41.195C53.1244 40.9821 52.8652 40.8757 52.5457 40.8757C52.2624 40.8757 52.0212 40.9585 51.8223 41.124C51.6294 41.2955 51.5149 41.532 51.4787 41.8335V46.0462C51.4787 46.0935 51.4636 46.1319 51.4335 46.1615C51.3973 46.1911 51.3581 46.2058 51.3159 46.2058H49.7335C49.6852 46.2058 49.6461 46.1911 49.6159 46.1615C49.5858 46.1319 49.5707 46.0935 49.5707 46.0462V39.5277C49.5707 39.4863 49.5858 39.4478 49.6159 39.4124C49.6461 39.3828 49.6852 39.368 49.7335 39.368H51.3159C51.3581 39.368 51.3973 39.3828 51.4335 39.4124C51.4636 39.4478 51.4787 39.4863 51.4787 39.5277V40.0509C51.4787 40.0746 51.4877 40.0923 51.5058 40.1041C51.5239 40.11 51.542 40.0982 51.5601 40.0687C51.9338 39.5306 52.5095 39.2616 53.2872 39.2616C53.7393 39.2616 54.1342 39.3562 54.4718 39.5454C54.8093 39.7287 55.0686 39.9947 55.2494 40.3436C55.2735 40.3968 55.3067 40.3968 55.3489 40.3436C55.5418 39.977 55.8101 39.705 56.1537 39.5277C56.4913 39.3503 56.8711 39.2616 57.293 39.2616ZM67.0228 42.0819C67.0771 42.4189 67.0952 42.7943 67.0771 43.2082C67.065 43.3205 67.0047 43.3767 66.8962 43.3767H62.7095C62.6553 43.3767 62.6372 43.3974 62.6553 43.4388C62.6794 43.6162 62.7276 43.7935 62.8 43.9709C63.0351 44.4676 63.5143 44.7159 64.2377 44.7159C64.8164 44.71 65.2746 44.4794 65.6122 44.0241C65.6484 43.9709 65.6875 43.9443 65.7297 43.9443C65.7599 43.9443 65.793 43.962 65.8292 43.9975L66.8058 44.9376C66.848 44.9849 66.8691 45.0263 66.8691 45.0618C66.8691 45.0795 66.851 45.115 66.8148 45.1682C66.5195 45.5348 66.1367 45.8156 65.6664 46.0107C65.1962 46.2117 64.6808 46.3123 64.1202 46.3123C63.3425 46.3123 62.6854 46.1408 62.1489 45.7979C61.6063 45.449 61.2175 44.9642 60.9824 44.3434C60.7955 43.9 60.7021 43.3205 60.7021 42.6051C60.7021 42.1144 60.7684 41.6828 60.901 41.3103C61.112 40.6836 61.4767 40.1839 61.9952 39.8115C62.5136 39.439 63.1315 39.2527 63.8489 39.2527C64.7531 39.2527 65.4796 39.5099 66.0281 40.0243C66.5767 40.5387 66.9083 41.2245 67.0228 42.0819ZM63.8579 40.8757C63.2913 40.8757 62.9175 41.1359 62.7367 41.6562C62.7005 41.7744 62.6673 41.9163 62.6372 42.0819C62.6372 42.1232 62.6613 42.1439 62.7095 42.1439H65.0516C65.1058 42.1439 65.1239 42.1232 65.1058 42.0819C65.0636 41.8276 65.0425 41.7035 65.0425 41.7094C64.9581 41.4433 64.8164 41.2364 64.6175 41.0886C64.4125 40.9467 64.1594 40.8757 63.8579 40.8757ZM71.725 39.2793C72.0505 39.2793 72.3097 39.3414 72.5026 39.4656C72.575 39.5011 72.6021 39.5661 72.584 39.6607L72.3037 41.1772C72.2916 41.2837 72.2253 41.3162 72.1047 41.2748C71.9721 41.2275 71.8154 41.2039 71.6345 41.2039C71.5622 41.2039 71.4627 41.2127 71.3361 41.2305C71.0106 41.26 70.7333 41.3783 70.5042 41.5852C70.2812 41.7921 70.1696 42.07 70.1696 42.4189V46.0462C70.1696 46.0935 70.1546 46.1319 70.1244 46.1615C70.0883 46.1911 70.0491 46.2058 70.0069 46.2058H68.4154C68.3732 46.2058 68.337 46.1911 68.3069 46.1615C68.2707 46.1319 68.2526 46.0935 68.2526 46.0462V39.5277C68.2526 39.4863 68.2707 39.4478 68.3069 39.4124C68.337 39.3828 68.3732 39.368 68.4154 39.368H70.0069C70.0491 39.368 70.0883 39.3828 70.1244 39.4124C70.1546 39.4478 70.1696 39.4863 70.1696 39.5277V40.0332C70.1696 40.0568 70.1787 40.0746 70.1968 40.0864C70.2149 40.0982 70.2299 40.0923 70.242 40.0687C70.6097 39.5424 71.104 39.2793 71.725 39.2793Z" fill="#252530"/>
<path d="M34.4151 23.7501C34.4151 23.7088 34.4302 23.6703 34.4604 23.6348C34.4905 23.6053 34.5267 23.5905 34.5689 23.5905H36.1604C36.2026 23.5905 36.2417 23.6053 36.2779 23.6348C36.308 23.6703 36.3231 23.7088 36.3231 23.7501V32.7431C36.3231 32.7904 36.308 32.8288 36.2779 32.8584C36.2417 32.8879 36.2026 32.9027 36.1604 32.9027H34.5689C34.5267 32.9027 34.4905 32.8879 34.4604 32.8584C34.4302 32.8288 34.4151 32.7904 34.4151 32.7431V29.0714C34.4151 29.03 34.391 29.0093 34.3428 29.0093H31.3407C31.2985 29.0093 31.2774 29.03 31.2774 29.0714V32.7431C31.2774 32.7904 31.2623 32.8288 31.2322 32.8584C31.196 32.8879 31.1568 32.9027 31.1146 32.9027H29.5231C29.4809 32.9027 29.4447 32.8879 29.4146 32.8584C29.3784 32.8288 29.3604 32.7904 29.3604 32.7431V23.7501C29.3604 23.7088 29.3784 23.6703 29.4146 23.6348C29.4447 23.6053 29.4809 23.5905 29.5231 23.5905H31.1146C31.1568 23.5905 31.196 23.6053 31.2322 23.6348C31.2623 23.6703 31.2774 23.7088 31.2774 23.7501V27.3242C31.2774 27.3715 31.2985 27.3952 31.3407 27.3952H34.3428C34.391 27.3952 34.4151 27.3715 34.4151 27.3242V23.7501ZM38.7917 25.2933C38.4843 25.2933 38.2281 25.1928 38.0231 24.9918C37.8182 24.7967 37.7157 24.5483 37.7157 24.2468C37.7157 23.9334 37.8151 23.6792 38.0141 23.4841C38.213 23.289 38.4722 23.1914 38.7917 23.1914C39.1112 23.1914 39.3705 23.289 39.5694 23.4841C39.7683 23.6792 39.8678 23.9334 39.8678 24.2468C39.8678 24.5483 39.7653 24.7967 39.5604 24.9918C39.3554 25.1928 39.0992 25.2933 38.7917 25.2933ZM37.9779 32.9027C37.9357 32.9027 37.8965 32.8879 37.8604 32.8584C37.8302 32.8288 37.8151 32.7904 37.8151 32.7431V26.2157C37.8151 26.1684 37.8302 26.1299 37.8604 26.1004C37.8965 26.0708 37.9357 26.056 37.9779 26.056H39.5694C39.6116 26.056 39.6478 26.0708 39.6779 26.1004C39.7141 26.1299 39.7322 26.1684 39.7322 26.2157V32.7431C39.7322 32.7904 39.7141 32.8288 39.6779 32.8584C39.6478 32.8879 39.6116 32.9027 39.5694 32.9027H37.9779ZM45.4742 26.2245C45.4742 26.1831 45.4923 26.1447 45.5284 26.1092C45.5586 26.0797 45.5948 26.0649 45.6369 26.0649H47.2284C47.2706 26.0649 47.3098 26.0797 47.346 26.1092C47.3761 26.1447 47.3912 26.1831 47.3912 26.2245V32.2908C47.3912 33.4496 47.0506 34.2774 46.3694 34.774C45.6882 35.2766 44.808 35.5279 43.729 35.5279C43.4095 35.5279 43.0568 35.5042 42.671 35.4569C42.5806 35.4451 42.5354 35.3889 42.5354 35.2884L42.5896 33.9137C42.5896 33.7955 42.6529 33.7452 42.7795 33.763C43.105 33.8162 43.4034 33.8428 43.6747 33.8428C44.2534 33.8428 44.6995 33.7216 45.013 33.4792C45.3205 33.2249 45.4742 32.8258 45.4742 32.2819C45.4742 32.2523 45.4651 32.2346 45.4471 32.2287C45.429 32.2228 45.4109 32.2316 45.3928 32.2553C45.0492 32.6159 44.5488 32.7963 43.8917 32.7963C43.301 32.7963 42.7614 32.6573 42.2731 32.3794C41.7788 32.1016 41.4261 31.6522 41.2151 31.0314C41.0825 30.6234 41.0162 30.0943 41.0162 29.4439C41.0162 28.7521 41.0976 28.1904 41.2604 27.7588C41.4472 27.2149 41.7667 26.7803 42.2189 26.4551C42.671 26.124 43.1985 25.9585 43.8013 25.9585C44.4946 25.9585 45.0251 26.1624 45.3928 26.5704C45.4109 26.5881 45.429 26.5941 45.4471 26.5881C45.4651 26.5822 45.4742 26.5674 45.4742 26.5438V26.2245ZM45.3657 30.517C45.438 30.2569 45.4742 29.8932 45.4742 29.4261C45.4742 29.1542 45.4651 28.9443 45.4471 28.7965C45.429 28.6427 45.3988 28.4979 45.3566 28.3619C45.2722 28.1254 45.1366 27.9332 44.9497 27.7854C44.7628 27.6435 44.5277 27.5726 44.2444 27.5726C43.9731 27.5726 43.744 27.6435 43.5572 27.7854C43.3643 27.9332 43.2226 28.1254 43.1322 28.3619C43.0056 28.628 42.9423 28.9886 42.9423 29.4439C42.9423 29.9405 42.9965 30.2953 43.105 30.5081C43.1834 30.7505 43.3251 30.9427 43.53 31.0846C43.735 31.2324 43.9761 31.3063 44.2534 31.3063C44.5428 31.3063 44.7839 31.2324 44.9768 31.0846C45.1637 30.9427 45.2933 30.7535 45.3657 30.517ZM52.4008 25.9585C53.1242 25.9585 53.7059 26.1772 54.146 26.6147C54.5861 27.0464 54.8061 27.6347 54.8061 28.3796V32.7431C54.8061 32.7904 54.791 32.8288 54.7609 32.8584C54.7307 32.8879 54.6946 32.9027 54.6524 32.9027H53.0609C53.0187 32.9027 52.9795 32.8879 52.9433 32.8584C52.9132 32.8288 52.8981 32.7904 52.8981 32.7431V28.761C52.8981 28.4121 52.7956 28.1254 52.5907 27.9007C52.3917 27.682 52.1235 27.5726 51.7859 27.5726C51.4543 27.5726 51.1861 27.682 50.9811 27.9007C50.7761 28.1254 50.6737 28.4121 50.6737 28.761V32.7431C50.6737 32.7904 50.6586 32.8288 50.6284 32.8584C50.5983 32.8879 50.5591 32.9027 50.5109 32.9027H48.9284C48.8802 32.9027 48.841 32.8879 48.8109 32.8584C48.7807 32.8288 48.7657 32.7904 48.7657 32.7431V23.7501C48.7657 23.7088 48.7807 23.6703 48.8109 23.6348C48.841 23.6053 48.8802 23.5905 48.9284 23.5905H50.5109C50.5591 23.5905 50.5983 23.6053 50.6284 23.6348C50.6586 23.6703 50.6737 23.7088 50.6737 23.7501V26.6946C50.6737 26.7182 50.6827 26.736 50.7008 26.7478C50.7189 26.7537 50.7309 26.7478 50.7369 26.73C51.1107 26.2157 51.6653 25.9585 52.4008 25.9585Z" fill="#252530"/>
<path d="M28.0224 60.5723C27.9621 60.5723 27.923 60.5427 27.9049 60.4836L27.6065 59.5346C27.5944 59.511 27.5793 59.4992 27.5613 59.4992H25.174C25.1559 59.4992 25.1409 59.511 25.1288 59.5346L24.8304 60.4836C24.8123 60.5427 24.7731 60.5723 24.7129 60.5723H23.8086C23.7724 60.5723 23.7453 60.5604 23.7272 60.5368C23.7091 60.5191 23.7061 60.4895 23.7182 60.4481L25.6804 54.4528C25.6985 54.3937 25.7377 54.3641 25.798 54.3641H26.9283C26.9886 54.3641 27.0277 54.3937 27.0458 54.4528L29.0171 60.4481C29.0231 60.4599 29.0262 60.4747 29.0262 60.4925C29.0262 60.5457 28.993 60.5723 28.9267 60.5723H28.0224ZM25.4091 58.6389C25.4031 58.6744 25.4152 58.6921 25.4453 58.6921H27.2809C27.3171 58.6921 27.3292 58.6744 27.3171 58.6389L26.3857 55.6678C26.3797 55.6442 26.3707 55.6324 26.3586 55.6324C26.3465 55.6324 26.3375 55.6442 26.3315 55.6678L25.4091 58.6389ZM34.8043 55.9694C35.2685 55.9694 35.6332 56.1054 35.8985 56.3773C36.1577 56.6552 36.2873 57.0395 36.2873 57.5303V60.4658C36.2873 60.4954 36.2783 60.5191 36.2602 60.5368C36.2361 60.5604 36.209 60.5723 36.1788 60.5723H35.3559C35.3258 60.5723 35.3017 60.5604 35.2836 60.5368C35.2595 60.5191 35.2474 60.4954 35.2474 60.4658V57.7431C35.2474 57.4712 35.1751 57.2554 35.0304 57.0957C34.8797 56.9361 34.6808 56.8563 34.4336 56.8563C34.1864 56.8563 33.9845 56.9361 33.8277 57.0957C33.671 57.2554 33.5926 57.4682 33.5926 57.7343V60.4658C33.5926 60.4954 33.5836 60.5191 33.5655 60.5368C33.5414 60.5604 33.5143 60.5723 33.4841 60.5723H32.6613C32.6311 60.5723 32.607 60.5604 32.5889 60.5368C32.5648 60.5191 32.5527 60.4954 32.5527 60.4658V57.7431C32.5527 57.4712 32.4774 57.2554 32.3267 57.0957C32.176 56.9361 31.977 56.8563 31.7299 56.8563C31.5008 56.8563 31.3109 56.9213 31.1602 57.0514C31.0155 57.1814 30.9311 57.3588 30.907 57.5835V60.4658C30.907 60.4954 30.898 60.5191 30.8799 60.5368C30.8558 60.5604 30.8286 60.5723 30.7985 60.5723H29.9666C29.9364 60.5723 29.9123 60.5604 29.8942 60.5368C29.8701 60.5191 29.8581 60.4954 29.8581 60.4658V56.1468C29.8581 56.1172 29.8701 56.0906 29.8942 56.0669C29.9123 56.0492 29.9364 56.0403 29.9666 56.0403H30.7985C30.8286 56.0403 30.8558 56.0492 30.8799 56.0669C30.898 56.0906 30.907 56.1172 30.907 56.1468V56.4394C30.907 56.4572 30.913 56.469 30.9251 56.4749C30.9371 56.4808 30.9492 56.4749 30.9613 56.4572C31.0939 56.2916 31.2597 56.1704 31.4586 56.0935C31.6515 56.0108 31.8685 55.9694 32.1097 55.9694C32.4051 55.9694 32.6643 56.0285 32.8873 56.1468C33.1104 56.265 33.2822 56.4365 33.4027 56.6611C33.4208 56.6848 33.4419 56.6848 33.466 56.6611C33.5987 56.4246 33.7825 56.2502 34.0176 56.1379C34.2527 56.0256 34.515 55.9694 34.8043 55.9694ZM41.2155 57.7963C41.2396 57.9442 41.2517 58.1097 41.2517 58.293L41.2426 58.5679C41.2426 58.6389 41.2065 58.6744 41.1341 58.6744H38.3038C38.2737 58.6744 38.2586 58.6891 38.2586 58.7187C38.2767 58.9138 38.3038 59.0468 38.34 59.1178C38.4847 59.5435 38.8373 59.7593 39.398 59.7652C39.8079 59.7652 40.1334 59.5997 40.3746 59.2686C40.3987 59.2331 40.4288 59.2154 40.465 59.2154C40.4891 59.2154 40.5102 59.2242 40.5283 59.242L41.0889 59.6943C41.1432 59.7357 41.1522 59.783 41.116 59.8362C40.9292 60.0963 40.682 60.2973 40.3746 60.4392C40.0611 60.5811 39.7144 60.6521 39.3347 60.6521C38.8644 60.6521 38.4666 60.5486 38.141 60.3417C37.8095 60.1347 37.5683 59.845 37.4176 59.4725C37.279 59.1533 37.2097 58.7098 37.2097 58.1422C37.2097 57.7993 37.2458 57.5214 37.3182 57.3086C37.4387 56.8947 37.6678 56.5665 38.0054 56.3241C38.337 56.0876 38.7379 55.9694 39.2081 55.9694C40.3957 55.9694 41.0648 56.5784 41.2155 57.7963ZM39.2081 56.8563C38.985 56.8563 38.8012 56.9124 38.6565 57.0248C38.5058 57.1312 38.4003 57.282 38.34 57.4771C38.3038 57.5776 38.2797 57.7077 38.2676 57.8673C38.2556 57.8969 38.2676 57.9116 38.3038 57.9116H40.1394C40.1696 57.9116 40.1847 57.8969 40.1847 57.8673C40.1726 57.7195 40.1545 57.6071 40.1304 57.5303C40.0761 57.3174 39.9707 57.1519 39.8139 57.0336C39.6512 56.9154 39.4492 56.8563 39.2081 56.8563ZM44.3623 55.9871C44.5552 55.9871 44.724 56.0256 44.8687 56.1024C44.9169 56.1261 44.935 56.1704 44.923 56.2354L44.7692 57.0336C44.7632 57.1046 44.721 57.1253 44.6426 57.0957C44.5522 57.0662 44.4467 57.0514 44.3262 57.0514C44.2478 57.0514 44.1875 57.0543 44.1453 57.0602C43.8921 57.0721 43.6811 57.1578 43.5123 57.3174C43.3435 57.483 43.2591 57.6958 43.2591 57.956V60.4658C43.2591 60.4954 43.2501 60.5191 43.232 60.5368C43.2079 60.5604 43.1808 60.5723 43.1506 60.5723H42.3187C42.2886 60.5723 42.2644 60.5604 42.2464 60.5368C42.2222 60.5191 42.2102 60.4954 42.2102 60.4658V56.1468C42.2102 56.1172 42.2222 56.0906 42.2464 56.0669C42.2644 56.0492 42.2886 56.0403 42.3187 56.0403H43.1506C43.1808 56.0403 43.2079 56.0492 43.232 56.0669C43.2501 56.0906 43.2591 56.1172 43.2591 56.1468V56.5459C43.2591 56.5695 43.2652 56.5813 43.2772 56.5813C43.2832 56.5872 43.2923 56.5813 43.3043 56.5636C43.5575 56.1793 43.9102 55.9871 44.3623 55.9871ZM46.207 55.4195C46.0201 55.4195 45.8664 55.3604 45.7458 55.2421C45.6253 55.1239 45.565 54.9731 45.565 54.7898C45.565 54.6066 45.6253 54.4558 45.7458 54.3375C45.8664 54.2193 46.0201 54.1602 46.207 54.1602C46.3939 54.1602 46.5476 54.2193 46.6682 54.3375C46.7887 54.4558 46.849 54.6066 46.849 54.7898C46.849 54.9731 46.7887 55.1239 46.6682 55.2421C46.5476 55.3604 46.3939 55.4195 46.207 55.4195ZM45.773 60.5723C45.7428 60.5723 45.7187 60.5604 45.7006 60.5368C45.6765 60.5191 45.6644 60.4954 45.6644 60.4658V56.1379C45.6644 56.1083 45.6765 56.0847 45.7006 56.0669C45.7187 56.0433 45.7428 56.0315 45.773 56.0315H46.6049C46.635 56.0315 46.6621 56.0433 46.6863 56.0669C46.7043 56.0847 46.7134 56.1083 46.7134 56.1379V60.4658C46.7134 60.4954 46.7043 60.5191 46.6863 60.5368C46.6621 60.5604 46.635 60.5723 46.6049 60.5723H45.773ZM49.8421 60.6432C49.3779 60.6432 48.977 60.525 48.6395 60.2885C48.3019 60.0579 48.0668 59.7445 47.9341 59.3484C47.8377 59.0823 47.7894 58.7276 47.7894 58.2841C47.7894 57.8584 47.8377 57.5096 47.9341 57.2376C48.0607 56.8474 48.2958 56.5399 48.6395 56.3153C48.977 56.0847 49.3779 55.9694 49.8421 55.9694C50.3123 55.9694 50.7222 56.0847 51.0719 56.3153C51.4215 56.5459 51.6536 56.8356 51.7682 57.1844C51.7983 57.279 51.8194 57.3736 51.8315 57.4682V57.4859C51.8315 57.5451 51.7983 57.5805 51.732 57.5924L50.9182 57.7077H50.9001C50.8458 57.7077 50.8097 57.6781 50.7916 57.619C50.7916 57.5894 50.7886 57.5658 50.7825 57.548C50.7705 57.5007 50.7584 57.4593 50.7464 57.4239C50.6921 57.2583 50.5836 57.1223 50.4208 57.0159C50.2581 56.9095 50.0652 56.8563 49.8421 56.8563C49.613 56.8563 49.4201 56.9124 49.2634 57.0248C49.1006 57.143 48.9921 57.3027 48.9379 57.5037C48.8776 57.6929 48.8474 57.956 48.8474 58.293C48.8474 58.6182 48.8746 58.8813 48.9288 59.0823C48.9891 59.2893 49.0976 59.4519 49.2543 59.5701C49.4111 59.6943 49.607 59.7563 49.8421 59.7563C50.0712 59.7563 50.2701 59.7002 50.4389 59.5878C50.6017 59.4696 50.7072 59.3129 50.7554 59.1178C50.7614 59.106 50.7644 59.0912 50.7644 59.0735C50.7705 59.0675 50.7735 59.0587 50.7735 59.0468C50.7916 58.9759 50.8338 58.9463 50.9001 58.9582L51.7139 59.0823C51.7441 59.0882 51.7712 59.1001 51.7953 59.1178C51.8134 59.1414 51.8194 59.171 51.8134 59.2065C51.7953 59.3011 51.7802 59.3691 51.7682 59.4105C51.6536 59.7889 51.4215 60.0904 51.0719 60.3151C50.7222 60.5338 50.3123 60.6432 49.8421 60.6432ZM54.4809 55.9694C54.8607 55.9694 55.1953 56.0344 55.4847 56.1645C55.774 56.2946 55.9971 56.4719 56.1538 56.6966C56.3106 56.9272 56.3889 57.1874 56.3889 57.4771V60.4658C56.3889 60.4954 56.3799 60.5191 56.3618 60.5368C56.3377 60.5604 56.3106 60.5723 56.2804 60.5723H55.4485C55.4184 60.5723 55.3942 60.5604 55.3762 60.5368C55.352 60.5191 55.34 60.4954 55.34 60.4658V60.182C55.34 60.1643 55.334 60.1525 55.3219 60.1466C55.3098 60.1466 55.2978 60.1525 55.2857 60.1643C54.9903 60.4836 54.5623 60.6432 54.0017 60.6432C53.5496 60.6432 53.1788 60.5309 52.8895 60.3062C52.5941 60.0815 52.4464 59.7475 52.4464 59.304C52.4464 58.8429 52.6121 58.4822 52.9437 58.222C53.2692 57.9678 53.7304 57.8407 54.3272 57.8407H55.2948C55.3249 57.8407 55.34 57.8259 55.34 57.7963V57.5835C55.34 57.3529 55.2707 57.1726 55.132 57.0425C54.9934 56.9183 54.7854 56.8563 54.5081 56.8563C54.279 56.8563 54.0951 56.8976 53.9565 56.9804C53.8118 57.0573 53.7214 57.1667 53.6852 57.3086C53.6671 57.3795 53.6249 57.4091 53.5586 57.3973L52.6815 57.2908C52.6513 57.2849 52.6272 57.276 52.6091 57.2642C52.585 57.2465 52.576 57.2258 52.582 57.2021C52.6302 56.8415 52.8292 56.5459 53.1788 56.3153C53.5224 56.0847 53.9565 55.9694 54.4809 55.9694ZM54.2639 59.8273C54.5593 59.8273 54.8125 59.7504 55.0235 59.5967C55.2345 59.443 55.34 59.2479 55.34 59.0114V58.5945C55.34 58.565 55.3249 58.5502 55.2948 58.5502H54.5352C54.2157 58.5502 53.9655 58.6093 53.7847 58.7276C53.5978 58.8458 53.5043 59.0143 53.5043 59.2331C53.5043 59.4223 53.5767 59.5671 53.7214 59.6677C53.86 59.7741 54.0409 59.8273 54.2639 59.8273ZM59.1559 60.6255C58.7762 60.6255 58.4446 60.5693 58.1613 60.457C57.8719 60.3506 57.6488 60.1998 57.4921 60.0047C57.3354 59.8155 57.257 59.6026 57.257 59.3661V59.2863C57.257 59.2567 57.2691 59.2301 57.2932 59.2065C57.3113 59.1887 57.3354 59.1799 57.3655 59.1799H58.1613C58.1914 59.1799 58.2185 59.1887 58.2426 59.2065C58.2607 59.2301 58.2698 59.2567 58.2698 59.2863V59.304C58.2698 59.4519 58.3542 59.5819 58.523 59.6943C58.6857 59.8007 58.8937 59.8539 59.1469 59.8539C59.388 59.8539 59.584 59.8066 59.7347 59.712C59.8854 59.6115 59.9607 59.4873 59.9607 59.3395C59.9607 59.2035 59.9004 59.1001 59.7799 59.0291C59.6533 58.9641 59.4513 58.8931 59.174 58.8163L58.8304 58.7098C58.523 58.6211 58.2637 58.5265 58.0527 58.426C57.8418 58.3255 57.6639 58.1866 57.5192 58.0092C57.3746 57.8377 57.3022 57.616 57.3022 57.344C57.3022 56.9302 57.468 56.602 57.7996 56.3596C58.1311 56.1113 58.5682 55.9871 59.1107 55.9871C59.4785 55.9871 59.801 56.0433 60.0783 56.1556C60.3556 56.2739 60.5696 56.4335 60.7203 56.6345C60.871 56.8415 60.9464 57.075 60.9464 57.3352C60.9464 57.3647 60.9373 57.3913 60.9192 57.415C60.8951 57.4327 60.868 57.4416 60.8379 57.4416H60.0692C60.0391 57.4416 60.015 57.4327 59.9969 57.415C59.9728 57.3913 59.9607 57.3647 59.9607 57.3352C59.9607 57.1814 59.8854 57.0543 59.7347 56.9538C59.5779 56.8474 59.3669 56.7942 59.1017 56.7942C58.8666 56.7942 58.6767 56.8356 58.532 56.9183C58.3813 57.007 58.3059 57.1282 58.3059 57.282C58.3059 57.4239 58.3783 57.5303 58.523 57.6012C58.6616 57.6781 58.8967 57.7609 59.2283 57.8496L59.4272 57.9028C59.7467 57.9974 60.015 58.092 60.232 58.1866C60.449 58.2871 60.6329 58.4231 60.7836 58.5945C60.9343 58.7719 61.0097 58.9995 61.0097 59.2774C61.0097 59.6972 60.8409 60.0254 60.5033 60.2619C60.1657 60.5043 59.7166 60.6255 59.1559 60.6255Z" fill="white"/>
<path d="M28.1776 73.0792C28.1113 73.0792 28.0691 73.0497 28.051 72.9905L26.4504 66.9864L26.4414 66.9509C26.4414 66.8977 26.4746 66.8711 26.5409 66.8711H27.6622C27.7224 66.8711 27.7616 66.9007 27.7797 66.9598L28.6387 70.5694C28.6448 70.593 28.6538 70.6048 28.6659 70.6048C28.6779 70.6048 28.687 70.593 28.693 70.5694L29.5249 66.9687C29.543 66.9036 29.5822 66.8711 29.6425 66.8711H30.7366C30.8029 66.8711 30.8451 66.9007 30.8632 66.9598L31.7675 70.5694C31.7735 70.5871 31.7825 70.5989 31.7946 70.6048C31.8067 70.6048 31.8157 70.593 31.8217 70.5694L32.6536 66.9687C32.6717 66.9036 32.7109 66.8711 32.7712 66.8711H33.8382C33.9226 66.8711 33.9558 66.9095 33.9377 66.9864L32.4547 72.9905C32.4366 73.0497 32.3944 73.0792 32.3281 73.0792H31.252C31.1918 73.0792 31.1526 73.0497 31.1345 72.9905L30.2122 69.1504C30.2061 69.1267 30.1971 69.1149 30.185 69.1149C30.173 69.1149 30.1639 69.1267 30.1579 69.1504L29.2989 72.9817C29.2868 73.0467 29.2476 73.0792 29.1813 73.0792H28.1776ZM34.8148 73.0792C34.7847 73.0792 34.7575 73.0674 34.7334 73.0438C34.7153 73.026 34.7063 73.0024 34.7063 72.9728V66.9775C34.7063 66.948 34.7153 66.9243 34.7334 66.9066C34.7575 66.8829 34.7847 66.8711 34.8148 66.8711H35.8728C35.9029 66.8711 35.927 66.8829 35.9451 66.9066C35.9692 66.9243 35.9813 66.948 35.9813 66.9775V72.9728C35.9813 73.0024 35.9692 73.026 35.9451 73.0438C35.927 73.0674 35.9029 73.0792 35.8728 73.0792H34.8148ZM40.7196 66.9775C40.7196 66.948 40.7286 66.9243 40.7467 66.9066C40.7708 66.8829 40.798 66.8711 40.8281 66.8711H41.8861C41.9162 66.8711 41.9403 66.8829 41.9584 66.9066C41.9825 66.9243 41.9946 66.948 41.9946 66.9775V72.9728C41.9946 73.0024 41.9825 73.026 41.9584 73.0438C41.9403 73.0674 41.9162 73.0792 41.8861 73.0792H40.8643C40.804 73.0792 40.7618 73.0556 40.7377 73.0083L38.3957 69.2124C38.3836 69.1947 38.3715 69.1888 38.3595 69.1947C38.3474 69.1947 38.3414 69.2065 38.3414 69.2302L38.3595 72.9728C38.3595 73.0024 38.3474 73.026 38.3233 73.0438C38.3052 73.0674 38.2811 73.0792 38.251 73.0792H37.193C37.1629 73.0792 37.1357 73.0674 37.1116 73.0438C37.0935 73.026 37.0845 73.0024 37.0845 72.9728V66.9775C37.0845 66.948 37.0935 66.9243 37.1116 66.9066C37.1357 66.8829 37.1629 66.8711 37.193 66.8711H38.2148C38.2751 66.8711 38.3173 66.8947 38.3414 66.942L40.6744 70.7201C40.6864 70.7379 40.6985 70.7438 40.7106 70.7379C40.7226 70.7379 40.7286 70.726 40.7286 70.7024L40.7196 66.9775ZM47.4653 66.8711C47.4955 66.8711 47.5196 66.8829 47.5377 66.9066C47.5618 66.9243 47.5739 66.948 47.5739 66.9775V67.8467C47.5739 67.8762 47.5618 67.8999 47.5377 67.9176C47.5196 67.9413 47.4955 67.9531 47.4653 67.9531H45.8467C45.8166 67.9531 45.8015 67.9679 45.8015 67.9974V72.9728C45.8015 73.0024 45.7895 73.026 45.7653 73.0438C45.7473 73.0674 45.7231 73.0792 45.693 73.0792H44.635C44.6049 73.0792 44.5778 73.0674 44.5536 73.0438C44.5356 73.026 44.5265 73.0024 44.5265 72.9728V67.9974C44.5265 67.9679 44.5114 67.9531 44.4813 67.9531H42.9079C42.8778 67.9531 42.8506 67.9413 42.8265 67.9176C42.8084 67.8999 42.7994 67.8762 42.7994 67.8467V66.9775C42.7994 66.948 42.8084 66.9243 42.8265 66.9066C42.8506 66.8829 42.8778 66.8711 42.9079 66.8711H47.4653ZM52.7824 67.8378C52.7824 67.8674 52.7733 67.891 52.7552 67.9087C52.7311 67.9324 52.704 67.9442 52.6739 67.9442H49.7079C49.6778 67.9442 49.6627 67.959 49.6627 67.9886V69.3632C49.6627 69.3928 49.6778 69.4076 49.7079 69.4076H51.652C51.6822 69.4076 51.7063 69.4164 51.7244 69.4342C51.7485 69.4578 51.7606 69.4844 51.7606 69.514V70.3743C51.7606 70.4038 51.7485 70.4304 51.7244 70.4541C51.7063 70.4718 51.6822 70.4807 51.652 70.4807H49.7079C49.6778 70.4807 49.6627 70.4955 49.6627 70.525V71.9618C49.6627 71.9913 49.6778 72.0061 49.7079 72.0061H52.6739C52.704 72.0061 52.7311 72.015 52.7552 72.0327C52.7733 72.0564 52.7824 72.083 52.7824 72.1125V72.9728C52.7824 73.0024 52.7733 73.026 52.7552 73.0438C52.7311 73.0674 52.704 73.0792 52.6739 73.0792H48.4962C48.4661 73.0792 48.4389 73.0674 48.4148 73.0438C48.3967 73.026 48.3877 73.0024 48.3877 72.9728V66.9775C48.3877 66.948 48.3967 66.9243 48.4148 66.9066C48.4389 66.8829 48.4661 66.8711 48.4962 66.8711H52.6739C52.704 66.8711 52.7311 66.8829 52.7552 66.9066C52.7733 66.9243 52.7824 66.948 52.7824 66.9775V67.8378ZM57.1409 73.0792C57.0806 73.0792 57.0384 73.0526 57.0143 72.9994L55.884 70.5428C55.8719 70.5191 55.8538 70.5073 55.8297 70.5073H54.9887C54.9586 70.5073 54.9435 70.5221 54.9435 70.5516V72.9728C54.9435 73.0024 54.9315 73.026 54.9074 73.0438C54.8893 73.0674 54.8652 73.0792 54.835 73.0792H53.777C53.7469 73.0792 53.7198 73.0674 53.6957 73.0438C53.6776 73.026 53.6685 73.0024 53.6685 72.9728V66.9775C53.6685 66.948 53.6776 66.9243 53.6957 66.9066C53.7198 66.8829 53.7469 66.8711 53.777 66.8711H56.3632C56.749 66.8711 57.0866 66.948 57.376 67.1017C57.6714 67.2554 57.8974 67.4742 58.0542 67.758C58.2169 68.0418 58.2983 68.3699 58.2983 68.7424C58.2983 69.1445 58.1958 69.4874 57.9909 69.7712C57.7859 70.0609 57.4996 70.2649 57.1318 70.3831C57.1017 70.3949 57.0926 70.4156 57.1047 70.4452L58.3345 72.9551C58.3465 72.9787 58.3526 72.9965 58.3526 73.0083C58.3526 73.0556 58.3194 73.0792 58.2531 73.0792H57.1409ZM54.9887 67.9442C54.9586 67.9442 54.9435 67.959 54.9435 67.9886V69.5051C54.9435 69.5347 54.9586 69.5495 54.9887 69.5495H56.1733C56.4265 69.5495 56.6315 69.4756 56.7882 69.3277C56.951 69.1799 57.0324 68.9878 57.0324 68.7513C57.0324 68.5148 56.951 68.3197 56.7882 68.1659C56.6315 68.0181 56.4265 67.9442 56.1733 67.9442H54.9887Z" fill="#252530"/>
<path d="M34.0721 80.2895C34.0601 80.3013 34.057 80.3131 34.0631 80.3249C34.0691 80.3368 34.0812 80.3427 34.0992 80.3427H36.5498C36.5799 80.3427 36.607 80.3516 36.6312 80.3693C36.6492 80.3929 36.6583 80.4195 36.6583 80.4491V81.3094C36.6583 81.3389 36.6492 81.3626 36.6312 81.3803C36.607 81.404 36.5799 81.4158 36.5498 81.4158H32.4806C32.4505 81.4158 32.4233 81.404 32.3992 81.3803C32.3812 81.3626 32.3721 81.3389 32.3721 81.3094V80.4935C32.3721 80.4402 32.3902 80.3959 32.4264 80.3604C32.7218 80.0766 33.0232 79.7692 33.3306 79.4381C33.6381 79.1011 33.831 78.8912 33.9093 78.8084C34.0781 78.6133 34.2499 78.427 34.4248 78.2497C34.9733 77.6525 35.2476 77.2091 35.2476 76.9193C35.2476 76.7124 35.1723 76.5409 35.0216 76.405C34.8709 76.2749 34.6749 76.2098 34.4338 76.2098C34.1927 76.2098 33.9968 76.2749 33.846 76.405C33.6953 76.5409 33.62 76.7183 33.62 76.9371V77.1588C33.62 77.1884 33.6079 77.215 33.5838 77.2386C33.5657 77.2564 33.5416 77.2652 33.5115 77.2652H32.4444C32.4143 77.2652 32.3902 77.2564 32.3721 77.2386C32.348 77.215 32.3359 77.1884 32.3359 77.1588V76.742C32.354 76.4227 32.4565 76.1389 32.6434 75.8906C32.8303 75.6482 33.0774 75.4619 33.3849 75.3318C33.6983 75.2018 34.048 75.1367 34.4338 75.1367C34.8618 75.1367 35.2356 75.2136 35.5551 75.3673C35.8686 75.5269 36.1127 75.7398 36.2875 76.0059C36.4563 76.2719 36.5407 76.5675 36.5407 76.8927C36.5407 77.1411 36.4774 77.3953 36.3508 77.6554C36.2242 77.9156 36.0343 78.1964 35.7812 78.498C35.5943 78.7286 35.3923 78.9562 35.1753 79.1809C34.9583 79.4055 34.6358 79.7307 34.2077 80.1564L34.0721 80.2895ZM39.5971 81.5134C38.934 81.5134 38.4095 81.3301 38.0237 80.9635C37.6379 80.6028 37.445 80.1091 37.445 79.4824V77.1411C37.445 76.5262 37.6379 76.0384 38.0237 75.6777C38.4095 75.3171 38.934 75.1367 39.5971 75.1367C40.2602 75.1367 40.7877 75.3171 41.1796 75.6777C41.5654 76.0384 41.7583 76.5262 41.7583 77.1411V79.4824C41.7583 80.1091 41.5654 80.6028 41.1796 80.9635C40.7877 81.3301 40.2602 81.5134 39.5971 81.5134ZM39.5971 80.4402C39.8684 80.4402 40.0854 80.3575 40.2482 80.1919C40.4049 80.0323 40.4833 79.8165 40.4833 79.5445V77.1056C40.4833 76.8336 40.4049 76.6178 40.2482 76.4582C40.0854 76.2926 39.8684 76.2098 39.5971 76.2098C39.3319 76.2098 39.1209 76.2926 38.9641 76.4582C38.8014 76.6178 38.72 76.8336 38.72 77.1056V79.5445C38.72 79.8165 38.8014 80.0323 38.9641 80.1919C39.1209 80.3575 39.3319 80.4402 39.5971 80.4402ZM44.2902 80.2895C44.2781 80.3013 44.2751 80.3131 44.2812 80.3249C44.2872 80.3368 44.2992 80.3427 44.3173 80.3427H46.7679C46.798 80.3427 46.8251 80.3516 46.8492 80.3693C46.8673 80.3929 46.8764 80.4195 46.8764 80.4491V81.3094C46.8764 81.3389 46.8673 81.3626 46.8492 81.3803C46.8251 81.404 46.798 81.4158 46.7679 81.4158H42.6987C42.6686 81.4158 42.6444 81.404 42.6264 81.3803C42.6023 81.3626 42.5902 81.3389 42.5902 81.3094V80.4935C42.5902 80.4402 42.6083 80.3959 42.6444 80.3604C42.9398 80.0766 43.2413 79.7692 43.5487 79.4381C43.8562 79.1011 44.0491 78.8912 44.1274 78.8084C44.2962 78.6133 44.468 78.427 44.6429 78.2497C45.1914 77.6525 45.4657 77.2091 45.4657 76.9193C45.4657 76.7124 45.3904 76.5409 45.2397 76.405C45.089 76.2749 44.893 76.2098 44.6519 76.2098C44.4108 76.2098 44.2148 76.2749 44.0641 76.405C43.9134 76.5409 43.8381 76.7183 43.8381 76.9371V77.1588C43.8381 77.1884 43.829 77.215 43.8109 77.2386C43.7868 77.2564 43.7597 77.2652 43.7296 77.2652H42.6625C42.6324 77.2652 42.6083 77.2564 42.5902 77.2386C42.5661 77.215 42.554 77.1884 42.554 77.1588V76.742C42.5721 76.4227 42.6746 76.1389 42.8615 75.8906C43.0483 75.6482 43.2985 75.4619 43.612 75.3318C43.9194 75.2018 44.2661 75.1367 44.6519 75.1367C45.0799 75.1367 45.4537 75.2136 45.7732 75.3673C46.0866 75.5269 46.3308 75.7398 46.5056 76.0059C46.6744 76.2719 46.7588 76.5675 46.7588 76.8927C46.7588 77.1411 46.6955 77.3953 46.5689 77.6554C46.4423 77.9156 46.2524 78.1964 45.9992 78.498C45.8124 78.7286 45.6104 78.9562 45.3934 79.1809C45.1764 79.4055 44.8538 79.7307 44.4258 80.1564L44.2902 80.2895ZM52.1843 78.7108C52.2145 78.7108 52.2416 78.7197 52.2657 78.7374C52.2838 78.7611 52.2929 78.7877 52.2929 78.8173V79.713C52.2929 79.7426 52.2838 79.7692 52.2657 79.7928C52.2416 79.8106 52.2145 79.8194 52.1843 79.8194H51.7955C51.7654 79.8194 51.7503 79.8342 51.7503 79.8638V81.3094C51.7503 81.3389 51.7413 81.3626 51.7232 81.3803C51.6991 81.404 51.6719 81.4158 51.6418 81.4158H50.5838C50.5537 81.4158 50.5296 81.404 50.5115 81.3803C50.4874 81.3626 50.4753 81.3389 50.4753 81.3094V79.8638C50.4753 79.8342 50.4602 79.8194 50.4301 79.8194H47.654C47.6239 79.8194 47.5998 79.8106 47.5817 79.7928C47.5576 79.7692 47.5455 79.7426 47.5455 79.713V79.0035C47.5455 78.968 47.5546 78.9237 47.5726 78.8705L49.2003 75.2875C49.2244 75.2343 49.2666 75.2077 49.3269 75.2077H50.4572C50.4994 75.2077 50.5296 75.2195 50.5476 75.2431C50.5597 75.2609 50.5567 75.2904 50.5386 75.3318L49.0285 78.6576C49.0225 78.6694 49.0225 78.6813 49.0285 78.6931C49.0345 78.7049 49.0436 78.7108 49.0556 78.7108H50.4301C50.4602 78.7108 50.4753 78.696 50.4753 78.6665V77.5668C50.4753 77.5372 50.4874 77.5135 50.5115 77.4958C50.5296 77.4722 50.5537 77.4603 50.5838 77.4603H51.6418C51.6719 77.4603 51.6991 77.4722 51.7232 77.4958C51.7413 77.5135 51.7503 77.5372 51.7503 77.5668V78.6665C51.7503 78.696 51.7654 78.7108 51.7955 78.7108H52.1843Z" fill="#252530"/>
</g>
<defs>
<clipPath id="clip0_157_498">
<rect width="85" height="94" fill="white"/>
</clipPath>
</defs>
</svg>
