<svg width="81" height="80" viewBox="0 0 81 80" fill="none" xmlns="http://www.w3.org/2000/svg">
<circle cx="40.75" cy="40" r="40" fill="#44D3E7"/>
<rect x="21" y="52" width="7" height="8" rx="1" stroke="white" stroke-width="2" stroke-linejoin="round"/>
<rect x="32" y="47" width="7" height="13" rx="1" stroke="white" stroke-width="2" stroke-linejoin="round"/>
<path d="M43 56V59C43 59.5523 43.4477 60 44 60H49C49.5523 60 50 59.5523 50 59V42C50 41.4477 49.5523 41 49 41H44C43.4477 41 43 41.4477 43 42V52.5" stroke="white" stroke-width="2" stroke-linecap="round" stroke-linejoin="round"/>
<path d="M61 41V36C61 35.4477 60.5523 35 60 35H55C54.4477 35 54 35.4477 54 36V59C54 59.5523 54.4477 60 55 60H60C60.5523 60 61 59.5523 61 59V44.5" stroke="white" stroke-width="2" stroke-linecap="round" stroke-linejoin="round"/>
<circle cx="57.5" cy="24.5" r="4.5" stroke="white" stroke-width="2"/>
<path d="M57.0673 27.3312V26.8461C56.6557 26.7999 56.326 26.655 56.0782 26.4114C55.8304 26.1678 55.7044 25.8486 55.7002 25.4538H56.4058C56.41 25.6512 56.4688 25.8255 56.5822 25.9767C56.6956 26.1237 56.8573 26.2224 57.0673 26.2728V24.7545C57.0337 24.7461 56.998 24.7356 56.9602 24.723C56.9266 24.7104 56.8909 24.6978 56.8531 24.6852C56.5129 24.5718 56.2567 24.4248 56.0845 24.2442C55.9165 24.0636 55.8325 23.8263 55.8325 23.5323C55.8283 23.1879 55.9396 22.9065 56.1664 22.6881C56.3932 22.4697 56.6935 22.3416 57.0673 22.3038V21.7998H57.4957V22.3101C57.8611 22.3521 58.1551 22.4844 58.3777 22.707C58.6003 22.9296 58.7137 23.2089 58.7179 23.5449H58.0123C58.0081 23.4063 57.9619 23.2761 57.8737 23.1543C57.7897 23.0283 57.6637 22.9422 57.4957 22.896V24.2442C57.5293 24.2568 57.5629 24.2694 57.5965 24.282C57.6301 24.2904 57.6637 24.3009 57.6973 24.3135C57.9157 24.3849 58.111 24.471 58.2832 24.5718C58.4554 24.6726 58.5919 24.8049 58.6927 24.9687C58.7977 25.1325 58.8502 25.3404 58.8502 25.5924C58.8502 25.8024 58.7998 25.9998 58.699 26.1846C58.5982 26.3652 58.447 26.5164 58.2454 26.6382C58.0438 26.76 57.7939 26.8314 57.4957 26.8524V27.3312H57.0673ZM56.5255 23.4756C56.5255 23.6436 56.5738 23.7738 56.6704 23.8662C56.767 23.9544 56.8993 24.0321 57.0673 24.0993V22.8771C56.9077 22.9065 56.7775 22.9737 56.6767 23.0787C56.5759 23.1795 56.5255 23.3118 56.5255 23.4756ZM58.1446 25.6365C58.1446 25.4307 58.0837 25.2753 57.9619 25.1703C57.8401 25.0611 57.6847 24.9708 57.4957 24.8994V26.2854C57.7015 26.2602 57.8611 26.1888 57.9745 26.0712C58.0879 25.9536 58.1446 25.8087 58.1446 25.6365Z" fill="white"/>
<path d="M21 44C30.5 42 41.5 37.5 51 29M51 29V34M51 29H46" stroke="white" stroke-width="2" stroke-linecap="round" stroke-linejoin="round"/>
</svg>
