<svg width="76" height="96" viewBox="0 0 76 96" fill="none" xmlns="http://www.w3.org/2000/svg">
<g clip-path="url(#clip0_157_528)">
<path d="M74.7874 1.23047H1.21289V94.7689H74.7874V1.23047Z" fill="white" stroke="#DCDEDC" stroke-width="3"/>
<path d="M52.8858 13.1653V16.8348C53.1445 16.5847 53.4259 16.3954 53.7283 16.2696C53.945 16.1806 54.1738 16.1226 54.4115 16.0972V17.4904C54.4074 17.4904 54.4018 17.4904 54.3977 17.4904C53.5819 17.4904 52.9214 18.1701 52.9214 19.008C52.9214 19.8459 53.5827 20.5255 54.3977 20.5255C55.2135 20.5255 55.8733 19.8459 55.8733 19.008C55.8733 18.9952 55.8733 18.9825 55.8733 18.9698V18.9628C55.8733 18.9514 55.8733 18.9415 55.8724 18.9303V18.9217C55.8724 18.9119 55.8708 18.902 55.8708 18.8906C55.8708 18.8836 55.8692 18.8779 55.8692 18.8709C55.8692 18.8652 55.8676 18.8596 55.8676 18.8525C55.8668 18.8454 55.8668 18.8384 55.8652 18.8299C55.8652 18.8243 55.8636 18.8186 55.8636 18.8143C55.8619 18.8087 55.8619 18.8031 55.8611 18.7974C55.8595 18.7904 55.8595 18.7833 55.8579 18.7763C55.8571 18.7706 55.8571 18.7649 55.8555 18.7593C55.8538 18.7522 55.8522 18.7452 55.8522 18.7395C55.8514 18.7338 55.8498 18.7268 55.8498 18.7211C55.8482 18.7141 55.8474 18.7084 55.8458 18.7013C55.8441 18.6957 55.8425 18.6914 55.8425 18.6858C55.8417 18.6787 55.8401 18.6716 55.8385 18.6646C55.8369 18.6589 55.8361 18.6519 55.8344 18.6462C55.8328 18.6405 55.832 18.6349 55.8304 18.6293C55.8288 18.6222 55.8264 18.6151 55.8247 18.608C55.8231 18.6024 55.8223 18.5982 55.8207 18.5925C55.8191 18.5855 55.8167 18.5784 55.815 18.5714C55.8134 18.5671 55.8118 18.5614 55.811 18.5572C55.8094 18.5501 55.807 18.5431 55.8037 18.5374C55.8021 18.5317 55.8013 18.5276 55.7997 18.5219C55.7973 18.5148 55.7956 18.5092 55.7924 18.5021C55.7916 18.4965 55.7884 18.4922 55.7867 18.4865C55.7843 18.4795 55.7827 18.4738 55.7803 18.4668C55.7787 18.4611 55.7762 18.4569 55.7746 18.4513C55.7722 18.4456 55.769 18.4385 55.7673 18.4329C55.7665 18.4272 55.7633 18.4229 55.7617 18.4173C55.7593 18.4117 55.7568 18.4046 55.7552 18.399C55.752 18.3933 55.7512 18.3891 55.7479 18.3834C55.7455 18.3777 55.7423 18.3721 55.7398 18.365C55.7366 18.3594 55.7358 18.3552 55.7326 18.3495C55.7301 18.3438 55.7269 18.3382 55.7245 18.3325C55.7221 18.3269 55.7188 18.3227 55.7172 18.317C55.7148 18.3114 55.7116 18.3043 55.7075 18.2986C55.7051 18.2944 55.7035 18.2902 55.701 18.2845C55.6978 18.2789 55.6938 18.2718 55.6913 18.2661L55.6841 18.252C55.6816 18.2464 55.6768 18.2393 55.6744 18.2336L55.6671 18.2209C55.663 18.2153 55.6606 18.2082 55.6566 18.2026L55.6493 18.1898C55.6453 18.1842 55.642 18.1785 55.638 18.1715L55.6299 18.1587C55.6258 18.1531 55.6218 18.146 55.617 18.1404L55.6089 18.129C55.6048 18.1235 55.6008 18.1178 55.5967 18.1121L55.5878 18.0994C55.5838 18.0938 55.5798 18.0881 55.5757 18.0824L55.5668 18.0711C55.5628 18.0655 55.5571 18.0584 55.5531 18.0528L55.545 18.0429C55.541 18.0372 55.5353 18.0302 55.5296 18.0245L55.5224 18.0147C55.5167 18.009 55.5127 18.0033 55.507 17.9963L55.4989 17.9863C55.4933 17.9807 55.4892 17.975 55.4836 17.9694L55.4755 17.9609C55.4698 17.9552 55.4641 17.9496 55.4585 17.944L55.4504 17.9355C55.4447 17.9298 55.4391 17.9242 55.4334 17.9186L55.4237 17.9086C55.4181 17.903 55.4124 17.8973 55.4067 17.8931L55.3987 17.8846C55.393 17.8789 55.3873 17.8733 55.3809 17.8691L55.372 17.8606C55.3663 17.855 55.3598 17.8493 55.3542 17.8451L55.3461 17.838C55.3404 17.8323 55.3332 17.8267 55.3259 17.8225L55.3178 17.8154C55.3113 17.8098 55.3057 17.8041 55.2984 17.7998L55.2911 17.7942C55.2847 17.7885 55.2774 17.7843 55.2709 17.7787L55.262 17.773C55.2555 17.7674 55.2483 17.7631 55.241 17.7574L55.2329 17.7518C55.2256 17.7476 55.2192 17.7419 55.2119 17.7376L55.2038 17.732C55.1965 17.7278 55.1901 17.7221 55.1828 17.7179L55.1747 17.7122C55.1674 17.708 55.1593 17.7024 55.1521 17.6981L55.1456 17.6938C55.1383 17.6896 55.1302 17.6854 55.123 17.6797L55.1149 17.6755C55.106 17.6713 55.0995 17.667 55.0906 17.6628L55.0841 17.6586C55.0753 17.6543 55.0688 17.6501 55.0607 17.6458L55.0518 17.6416C55.0437 17.6374 55.0356 17.6331 55.0267 17.6288L55.0203 17.6261C55.0114 17.6218 55.0033 17.6176 54.9936 17.6133L54.9879 17.6105C54.9798 17.6063 54.9701 17.602 54.9613 17.5992L54.9556 17.5964C54.9459 17.5922 54.9378 17.5893 54.9281 17.585L54.9224 17.5836C54.9127 17.5795 54.9047 17.5766 54.895 17.5738L54.8877 17.5709C54.878 17.5681 54.8699 17.5639 54.8602 17.5611L54.8529 17.5597C54.8432 17.5568 54.8351 17.554 54.8254 17.5511L54.8181 17.5484C54.8084 17.5455 54.8004 17.5427 54.7898 17.5398L54.785 17.5384C54.7753 17.5356 54.7648 17.5328 54.7551 17.53L54.7502 17.5286C54.7397 17.5257 54.73 17.5243 54.7203 17.5215L54.7147 17.52C54.705 17.5173 54.6944 17.5159 54.6847 17.513L54.6791 17.5116C54.6694 17.5102 54.6581 17.5073 54.6484 17.5059L54.6427 17.5045C54.633 17.5031 54.6217 17.5017 54.612 17.4989H54.6079C54.5966 17.4975 54.5869 17.4961 54.5756 17.4946H54.5699C54.5594 17.4932 54.5497 17.4918 54.5384 17.4904H54.5352C54.5247 17.489 54.5133 17.489 54.502 17.4876H54.4996C54.4883 17.4862 54.4753 17.4862 54.4648 17.4862H54.4632C54.4519 17.4862 54.4268 17.4848 54.4155 17.4848V16.0915C54.5061 16.0817 54.6095 16.076 54.7025 16.076C55.4504 16.076 56.0851 16.3502 56.6082 16.8983C57.1321 17.448 57.3941 18.1517 57.3941 19.0108C57.3941 19.8387 57.124 20.5312 56.5823 21.0879C56.0422 21.646 55.4011 21.9243 54.6597 21.9243C54.329 21.9243 54.0218 21.8664 53.738 21.7533C53.4534 21.6389 53.1712 21.4538 52.8898 21.1952V21.7887H51.4531V13.1582H52.8898L52.8858 13.1653Z" fill="#323231"/>
<path d="M46.46 13.1653V16.8348C46.7196 16.5847 47.0009 16.3954 47.3025 16.2696C47.52 16.1806 47.748 16.1226 47.9865 16.0972V17.4904C47.9824 17.4904 47.9768 17.4904 47.9727 17.4904C47.1562 17.4904 46.4964 18.1701 46.4964 19.008C46.4964 19.8459 47.1578 20.5255 47.9727 20.5255C48.7885 20.5255 49.4483 19.8459 49.4483 19.008C49.4483 18.9952 49.4483 18.9825 49.4483 18.9698V18.9628C49.4483 18.9514 49.4483 18.9415 49.4467 18.9303V18.9217C49.4467 18.9119 49.4459 18.902 49.4459 18.8906C49.4459 18.8836 49.4442 18.8779 49.4442 18.8709C49.4442 18.8652 49.4426 18.8596 49.4426 18.8525C49.441 18.8454 49.441 18.8384 49.4402 18.8299C49.4402 18.8243 49.4386 18.8186 49.4386 18.8143C49.437 18.8087 49.437 18.8031 49.4353 18.7974C49.4345 18.7904 49.4345 18.7833 49.4329 18.7763C49.4313 18.7706 49.4313 18.7649 49.4305 18.7593C49.4289 18.7522 49.4273 18.7452 49.4273 18.7395C49.4256 18.7338 49.4248 18.7268 49.4248 18.7211C49.4232 18.7141 49.4216 18.7084 49.4208 18.7013C49.4192 18.6957 49.4176 18.6914 49.4176 18.6858C49.4159 18.6787 49.4151 18.6716 49.4135 18.6646C49.4119 18.6589 49.4103 18.6519 49.4095 18.6462C49.4079 18.6405 49.4062 18.6349 49.4054 18.6293C49.4038 18.6222 49.4006 18.6151 49.3998 18.608C49.3981 18.6024 49.3965 18.5982 49.3957 18.5925C49.3941 18.5855 49.3909 18.5784 49.3901 18.5714C49.3884 18.5671 49.3868 18.5614 49.3852 18.5572C49.3844 18.5501 49.3812 18.5431 49.3787 18.5374C49.3771 18.5317 49.3755 18.5276 49.3747 18.5219C49.3715 18.5148 49.3707 18.5092 49.3674 18.5021C49.3658 18.4965 49.3634 18.4922 49.3618 18.4865C49.3593 18.4795 49.3577 18.4738 49.3553 18.4668C49.3537 18.4611 49.3504 18.4569 49.3496 18.4513C49.3464 18.4456 49.344 18.4385 49.3424 18.4329C49.3407 18.4272 49.3383 18.4229 49.3367 18.4173C49.3343 18.4117 49.331 18.4046 49.3302 18.399C49.327 18.3933 49.3254 18.3891 49.323 18.3834C49.3205 18.3777 49.3173 18.3721 49.3149 18.365C49.3116 18.3594 49.31 18.3552 49.3076 18.3495C49.3052 18.3438 49.3019 18.3382 49.2995 18.3325C49.2963 18.3269 49.2939 18.3227 49.2922 18.317C49.2898 18.3114 49.2866 18.3043 49.2825 18.2986C49.2801 18.2944 49.2785 18.2902 49.2753 18.2845C49.2728 18.2789 49.2688 18.2718 49.2656 18.2661L49.2591 18.252C49.2559 18.2464 49.2518 18.2393 49.2494 18.2336L49.2421 18.2209C49.2381 18.2153 49.2348 18.2082 49.2308 18.2026L49.2243 18.1898C49.2203 18.1842 49.217 18.1785 49.213 18.1715L49.2049 18.1587C49.2001 18.1531 49.196 18.146 49.192 18.1404L49.1839 18.129C49.1799 18.1235 49.175 18.1178 49.171 18.1121L49.1629 18.0994C49.1588 18.0938 49.1548 18.0881 49.1499 18.0824L49.1419 18.0711C49.1378 18.0655 49.1322 18.0584 49.1281 18.0528L49.12 18.0429C49.1152 18.0372 49.1103 18.0302 49.1047 18.0245L49.0974 18.0147C49.0917 18.009 49.0877 18.0033 49.082 17.9963L49.0739 17.9863C49.0683 17.9807 49.0642 17.975 49.0586 17.9694L49.0497 17.9609C49.0448 17.9552 49.0392 17.9496 49.0335 17.944L49.0246 17.9355C49.0198 17.9298 49.0141 17.9242 49.0084 17.9186L48.9987 17.9086C48.9931 17.903 48.9874 17.8973 48.9818 17.8931L48.9737 17.8846C48.968 17.8789 48.9624 17.8733 48.9551 17.8691L48.947 17.8606C48.9413 17.855 48.9349 17.8493 48.9292 17.8451L48.9203 17.838C48.9147 17.8323 48.9082 17.8267 48.9009 17.8225L48.8928 17.8154C48.8856 17.8098 48.8799 17.8041 48.8734 17.7998L48.8661 17.7942C48.8597 17.7885 48.8524 17.7843 48.8451 17.7787L48.837 17.773C48.8298 17.7674 48.8233 17.7631 48.816 17.7574L48.8079 17.7518C48.8007 17.7476 48.7942 17.7419 48.7869 17.7376L48.7788 17.732C48.7716 17.7278 48.7643 17.7221 48.7578 17.7179L48.7489 17.7122C48.7424 17.708 48.7344 17.7024 48.7271 17.6981L48.7198 17.6938C48.7133 17.6896 48.7044 17.6854 48.698 17.6797L48.6891 17.6755C48.681 17.6713 48.6745 17.667 48.6656 17.6628L48.6592 17.6586C48.6503 17.6543 48.6438 17.6501 48.6349 17.6458L48.6268 17.6416C48.6187 17.6374 48.6099 17.6331 48.6018 17.6288L48.5945 17.6261C48.5864 17.6218 48.5783 17.6176 48.5686 17.6133L48.563 17.6105C48.5541 17.6063 48.5444 17.602 48.5363 17.5992L48.5306 17.5964C48.5209 17.5922 48.5128 17.5893 48.5031 17.585L48.4975 17.5836C48.4878 17.5795 48.4789 17.5766 48.4692 17.5738L48.4627 17.5709C48.453 17.5681 48.4441 17.5639 48.4344 17.5611L48.4279 17.5597C48.4182 17.5568 48.4093 17.554 48.3996 17.5511L48.3932 17.5484C48.3835 17.5455 48.3746 17.5427 48.3649 17.5398L48.3592 17.5384C48.3495 17.5356 48.3398 17.5328 48.3301 17.53L48.3244 17.5286C48.3147 17.5257 48.305 17.5243 48.2953 17.5215L48.2897 17.52C48.28 17.5173 48.2687 17.5159 48.259 17.513L48.2533 17.5116C48.2436 17.5102 48.2331 17.5073 48.2234 17.5059L48.2177 17.5045C48.208 17.5031 48.1967 17.5017 48.187 17.4989H48.183C48.1716 17.4975 48.1619 17.4961 48.1506 17.4946H48.145C48.1336 17.4932 48.1239 17.4918 48.1134 17.4904H48.1102C48.0989 17.489 48.0884 17.489 48.077 17.4876H48.0738C48.0633 17.4862 48.0504 17.4862 48.039 17.4862C48.0277 17.4862 48.0019 17.4848 47.9905 17.4848V16.0915C48.0811 16.0817 48.1838 16.076 48.2776 16.076C49.0246 16.076 49.6601 16.3502 50.1832 16.8983C50.7071 17.448 50.9683 18.1517 50.9683 19.0108C50.9683 19.8387 50.6982 20.5312 50.1573 21.0879C49.6164 21.646 48.9761 21.9243 48.2339 21.9243C47.904 21.9243 47.5968 21.8664 47.3122 21.7533C47.0284 21.6389 46.7454 21.4538 46.4649 21.1952V21.7887H45.0273V13.1582H46.4649L46.46 13.1653Z" fill="#323231"/>
<path d="M7.80762 17.2718C7.80762 18.3781 8.0057 19.3842 8.72366 20.2446C10.3156 22.1508 11.7289 21.8964 13.9329 21.8964C15.0713 21.8964 16.2121 21.8964 17.3505 21.8964L15.63 20.126C16.3358 19.0662 16.4482 18.5011 16.4482 17.2238C16.4482 16.6444 16.2371 16.0199 16.0374 15.6172C15.9024 15.3445 15.8289 15.2215 15.6704 14.9785C15.5701 14.8245 15.5515 14.8089 15.4408 14.6818C14.6694 13.7888 13.6224 13.1289 12.3652 13.1289C11.5308 13.1289 11.0085 13.1628 10.2598 13.5457C10.0011 13.6786 9.85881 13.752 9.63162 13.9202C8.59591 14.6789 7.80762 15.9153 7.80762 17.2718Z" fill="#EF6A22"/>
<path d="M38.2373 18.9592C38.2373 19.7123 38.513 20.4273 38.9625 20.9684C39.2884 21.3599 40.1179 21.8982 40.8003 21.8982C41.6233 21.8982 42.1901 21.8318 42.7941 21.1267V21.8007H44.2664V16.1643H42.7941V16.7903C42.5531 16.6263 42.5006 16.4738 42.1788 16.307C40.7785 15.5808 38.6691 16.4441 38.3182 18.3177C38.2988 18.4209 38.2373 18.8321 38.2373 18.9578V18.9592Z" fill="#323231"/>
<path d="M19.1519 17.8004C19.1519 18.6496 19.6556 19.065 20.2773 19.308C21.0915 19.6288 22.0957 19.6217 22.0957 20.1601C22.0957 20.9189 20.4609 20.9189 20.3857 20.016H19.0088C19.0088 20.5939 19.2522 21.087 19.6799 21.4063C19.9273 21.5928 20.0041 21.638 20.3226 21.7652C21.5984 22.2725 23.5179 21.6296 23.5179 20.2081C23.5179 18.7654 22.2946 18.5464 21.4295 18.3288C20.9533 18.2087 20.5749 18.1451 20.5749 17.7509C20.5749 17.1928 21.4618 17.1645 21.7901 17.433C22.2986 17.8484 21.2193 17.847 23.3764 17.847C23.3764 17.262 23.1508 16.8494 22.8274 16.5725C22.0173 15.8759 20.608 15.8802 19.7397 16.5655C19.4373 16.8042 19.1503 17.2762 19.1503 17.7989L19.1519 17.8004Z" fill="#323231"/>
<path d="M36.1491 22.3303C36.1491 23.3646 35.3454 23.2459 34.6299 23.2459V24.5952H35.7788C36.2922 24.5627 36.7546 24.4384 37.1112 24.0301C37.3893 23.7093 37.6206 23.1555 37.6206 22.5719V16.1641H36.1491V22.3303Z" fill="#323231"/>
<path d="M27.1294 16.1644H26.084V17.3696H27.1294V21.8021H28.554V17.3696H29.7401V16.1644H28.554V14.0449H27.1294V16.1644Z" fill="#323231"/>
<path d="M65.7254 17.368V16.1641H64.2539V21.8006H65.7254C65.7254 20.8425 65.6405 19.1131 65.9469 18.3161C66.2695 17.474 66.6972 17.4641 67.3392 17.4641C67.6658 17.4641 67.8971 17.6196 67.9561 17.5602C67.9973 17.474 68.1922 16.4157 68.1922 16.2588C67.3586 15.8109 66.4037 16.0751 65.9397 16.9116L65.7238 17.3666L65.7254 17.368Z" fill="#323231"/>
<path d="M24.1367 21.8019H25.5605V16.1641H24.1367V21.8019Z" fill="#323231"/>
<path d="M23.9014 13.9964C23.9014 15.1382 25.6591 15.2625 25.7812 14.077C25.8345 13.5684 25.3357 13.1289 24.9937 13.1289C24.4075 13.1289 23.9014 13.3719 23.9014 13.9964Z" fill="#323231"/>
<path d="M35.959 13.995C35.959 15.196 37.8105 15.1777 37.8105 14.0911V13.8509C37.8105 13.5203 37.3634 13.1289 37.0505 13.1289C36.4991 13.1289 35.959 13.3225 35.959 13.9964V13.995Z" fill="#323231"/>
<path d="M11.9825 14.9217C12.0157 14.8524 12.0852 14.8086 12.162 14.8086C12.2388 14.8086 12.3084 14.8524 12.3415 14.9217L12.9851 16.247C13.0142 16.3064 13.0716 16.3488 13.1355 16.3586L14.5762 16.5706C14.6514 16.5819 14.7145 16.6356 14.7379 16.7091C14.7614 16.7826 14.742 16.8631 14.6878 16.9182L13.6464 17.9497C13.5987 17.9963 13.5777 18.0641 13.5882 18.1291L13.8332 19.5859C13.8453 19.6622 13.8146 19.7385 13.7532 19.7852C13.6925 19.8304 13.6101 19.836 13.5421 19.8007L12.2542 19.1125C12.1952 19.0815 12.1256 19.0815 12.0674 19.1125L10.7778 19.7993C10.7115 19.836 10.6291 19.8304 10.5668 19.7852C10.5054 19.7385 10.4747 19.6622 10.4868 19.5859L10.7326 18.1291C10.7431 18.0627 10.7229 17.9963 10.6752 17.9497L9.63219 16.9182C9.57802 16.8645 9.55861 16.7826 9.58206 16.7091C9.60551 16.6356 9.66857 16.5819 9.74376 16.5706L11.1845 16.3586C11.25 16.3488 11.3074 16.3078 11.3349 16.247L11.9801 14.9217H11.9825Z" fill="white"/>
<path d="M41.2954 20.5234C42.1378 20.5234 42.8202 19.8439 42.8202 19.0058C42.8202 18.1677 42.1378 17.4883 41.2954 17.4883C40.4537 17.4883 39.7705 18.1677 39.7705 19.0058C39.7705 19.8439 40.4537 20.5234 41.2954 20.5234Z" fill="white"/>
<path d="M63.6568 19.4016H59.2335C59.2973 19.7987 59.4671 20.1152 59.7444 20.3525C60.0201 20.5871 60.3735 20.7044 60.8012 20.7044C61.3154 20.7044 61.7552 20.5207 62.1239 20.1533L63.2792 20.7086C62.9914 21.1255 62.6446 21.4335 62.2435 21.6341C61.8401 21.8334 61.3623 21.9337 60.8084 21.9337C59.949 21.9337 59.2488 21.6595 58.7103 21.1071C58.1695 20.5574 57.8994 19.8679 57.8994 19.0399C57.8994 18.1907 58.1695 17.4857 58.7103 16.9261C59.2504 16.3637 59.9255 16.084 60.7413 16.084C61.6056 16.084 62.309 16.3637 62.8507 16.9218C63.3924 17.4814 63.6625 18.219 63.6625 19.1374L63.6568 19.4016ZM62.2856 18.3094C62.1934 18.0042 62.0155 17.7569 61.7479 17.5662C61.4795 17.3754 61.169 17.2808 60.8141 17.2808C60.4292 17.2808 60.0929 17.3881 59.8018 17.6029C59.6207 17.7358 59.4518 17.9717 59.2965 18.3094H62.2872H62.2856Z" fill="#323231"/>
<path d="M35.4976 19.4036H31.0743C31.1382 19.8006 31.3079 20.1172 31.5853 20.3546C31.861 20.5891 32.2143 20.7064 32.642 20.7064C33.1554 20.7064 33.596 20.5227 33.9647 20.1554L35.1201 20.7106C34.8322 21.1275 34.4854 21.4355 34.0844 21.6361C33.6809 21.8354 33.2031 21.9357 32.6493 21.9357C31.7898 21.9357 31.0896 21.6616 30.5504 21.1091C30.0103 20.5595 29.7402 19.8699 29.7402 19.0419C29.7402 18.1927 30.0103 17.4876 30.5504 16.9281C31.0913 16.3657 31.7664 16.0859 32.5821 16.0859C33.4464 16.0859 34.1499 16.3657 34.6916 16.9238C35.2333 17.4834 35.5033 18.221 35.5033 19.1394L35.4976 19.4036ZM34.1264 18.3114C34.0342 18.0062 33.8564 17.7589 33.5887 17.5682C33.3203 17.3774 33.0099 17.2827 32.6541 17.2827C32.2701 17.2827 31.9329 17.3901 31.6427 17.6049C31.4616 17.7377 31.2926 17.9737 31.1365 18.3114H34.1264Z" fill="#323231"/>
<path d="M11.785 32.8203H11.785C8.40235 32.8203 5.66016 35.6032 5.66016 39.0361V39.3548C5.66016 42.7877 8.40235 45.5706 11.785 45.5706H11.785C15.1677 45.5706 17.9099 42.7877 17.9099 39.3548V39.0361C17.9099 35.6032 15.1677 32.8203 11.785 32.8203Z" fill="#EF6A22"/>
<path d="M9.48982 43.2586C9.22543 43.4269 9.0605 43.3259 9.12599 42.9891L9.78654 40.2953L7.70705 38.5107C7.44267 38.3087 7.50896 38.1066 7.83884 38.0729L10.5457 37.8709L11.5693 35.2781C11.7019 34.975 11.9 34.975 11.9986 35.2781L13.0222 37.8709L15.7291 38.0729C16.0598 38.1066 16.1253 38.2749 15.8617 38.5107L13.8145 40.2953L14.4751 42.9891C14.5406 43.3259 14.4088 43.4269 14.1113 43.2586L11.8005 41.777L9.48982 43.2586Z" fill="white"/>
<path d="M25.0155 32.8203H25.0155C21.6328 32.8203 18.8906 35.6032 18.8906 39.0361V39.3548C18.8906 42.7877 21.6328 45.5706 25.0155 45.5706H25.0155C28.3982 45.5706 31.1404 42.7877 31.1404 39.3548V39.0361C31.1404 35.6032 28.3982 32.8203 25.0155 32.8203Z" fill="#EF6A22"/>
<path d="M22.7213 43.2586C22.4569 43.4269 22.2919 43.3259 22.3582 42.9891L23.018 40.2953L20.9385 38.5107C20.6741 38.3087 20.7404 38.1066 21.0703 38.0729L23.778 37.8709L24.8008 35.2781C24.9333 34.975 25.1314 34.975 25.2301 35.2781L26.2536 37.8709L28.9613 38.0729C29.2912 38.1066 29.3575 38.2749 29.0931 38.5107L27.046 40.2953L27.7065 42.9891C27.7728 43.3259 27.6402 43.4269 27.3435 43.2586L25.032 41.777L22.7213 43.2586Z" fill="white"/>
<path d="M38.245 32.8203H38.245C34.8623 32.8203 32.1201 35.6032 32.1201 39.0361V39.3548C32.1201 42.7877 34.8623 45.5706 38.245 45.5706H38.245C41.6277 45.5706 44.3699 42.7877 44.3699 39.3548V39.0361C44.3699 35.6032 41.6277 32.8203 38.245 32.8203Z" fill="#EF6A22"/>
<path d="M35.9517 43.2586C35.6882 43.4269 35.5224 43.3259 35.5887 42.9891L36.2493 40.2953L34.169 38.5107C33.9046 38.3087 33.9709 38.1066 34.3007 38.0729L37.0085 37.8709L38.032 35.2781C38.1638 34.975 38.3619 34.975 38.4613 35.2781L39.4841 37.8709L42.1918 38.0729C42.5217 38.1066 42.588 38.2749 42.3236 38.5107L40.2765 40.2953L40.937 42.9891C41.0033 43.3259 40.8707 43.4269 40.574 43.2586L38.2633 41.777L35.9517 43.2586Z" fill="white"/>
<path d="M51.4765 32.8203H51.4764C48.0938 32.8203 45.3516 35.6032 45.3516 39.0361V39.3548C45.3516 42.7877 48.0938 45.5706 51.4764 45.5706H51.4765C54.8591 45.5706 57.6013 42.7877 57.6013 39.3548V39.0361C57.6013 35.6032 54.8591 32.8203 51.4765 32.8203Z" fill="#EF6A22"/>
<path d="M49.1818 43.2586C48.9182 43.4269 48.7533 43.3259 48.8188 42.9891L49.4793 40.2953L47.399 38.5107C47.1355 38.3087 47.2009 38.1066 47.5316 38.0729L50.2385 37.8709L51.2621 35.2781C51.3939 34.975 51.592 34.975 51.6914 35.2781L52.715 37.8709L55.4219 38.0729C55.7517 38.1066 55.818 38.2749 55.5537 38.5107L53.5073 40.2953L54.1671 42.9891C54.2334 43.3259 54.1016 43.4269 53.804 43.2586L51.4933 41.777L49.1818 43.2586Z" fill="white"/>
<path d="M64.7079 32.8203H64.7079C61.3252 32.8203 58.583 35.6032 58.583 39.0361V39.3548C58.583 42.7877 61.3252 45.5706 64.7079 45.5706H64.7079C68.0906 45.5706 70.8328 42.7877 70.8328 39.3548V39.0361C70.8328 35.6032 68.0906 32.8203 64.7079 32.8203Z" fill="#EF6A22"/>
<path d="M62.4127 43.2586C62.1483 43.4269 61.9834 43.3259 62.0496 42.9891L62.7094 40.2953L60.6299 38.5107C60.3655 38.3087 60.4318 38.1066 60.7617 38.0729L63.4686 37.8709L64.4922 35.2781C64.6248 34.975 64.8228 34.975 64.9215 35.2781L65.9451 37.8709L68.6519 38.0729C68.9826 38.1066 69.0481 38.2749 68.7845 38.5107L66.7374 40.2953L67.3979 42.9891C67.4634 43.3259 67.3316 43.4269 67.0341 43.2586L64.7234 41.777L62.4127 43.2586Z" fill="white"/>
</g>
<defs>
<clipPath id="clip0_157_528">
<rect width="76" height="96" fill="white"/>
</clipPath>
</defs>
</svg>
