<svg width="36" height="36" viewBox="0 0 36 36" fill="none" xmlns="http://www.w3.org/2000/svg">
<path d="M29.685 6.32998C25.245 1.90498 18.045 1.90498 13.635 6.32998C10.53 9.40498 9.59997 13.83 10.8 17.73L3.74998 24.78C3.25498 25.29 2.90998 26.295 3.01498 27.015L3.46498 30.285C3.62998 31.365 4.63497 32.385 5.71497 32.535L8.98497 32.985C9.70497 33.09 10.71 32.76 11.22 32.235L12.45 31.005C12.75 30.72 12.75 30.24 12.45 29.94L9.53998 27.03C9.10498 26.595 9.10498 25.875 9.53998 25.44C9.97498 25.005 10.695 25.005 11.13 25.44L14.055 28.365C14.34 28.65 14.82 28.65 15.105 28.365L18.285 25.2C22.17 26.415 26.595 25.47 29.685 22.395C34.11 17.97 34.11 10.755 29.685 6.32998ZM21.75 18C19.68 18 18 16.32 18 14.25C18 12.18 19.68 10.5 21.75 10.5C23.82 10.5 25.5 12.18 25.5 14.25C25.5 16.32 23.82 18 21.75 18Z" fill="#17B4CA"/>
</svg>
