<svg width="217" height="32" viewBox="0 0 217 32" fill="none" xmlns="http://www.w3.org/2000/svg">
<g clip-path="url(#clip0_93_151)">
<path d="M41.2637 20.811L44.4981 20.5224C44.4981 20.6907 44.5101 20.8591 44.534 21.0275C44.558 21.1718 44.582 21.3402 44.6059 21.5326C44.6538 21.725 44.7018 21.9295 44.7497 22.1459C44.7976 22.3384 44.8575 22.5308 44.9294 22.7232C44.9294 22.7473 44.9294 22.7713 44.9294 22.7954C44.9533 22.8194 44.9773 22.8314 45.0012 22.8314C45.0012 22.8555 45.0012 22.8795 45.0012 22.9036C45.0252 22.9276 45.0372 22.9517 45.0372 22.9758C45.0372 22.9998 45.0372 23.0239 45.0372 23.0479C45.0611 23.072 45.0851 23.084 45.1091 23.084C45.1091 23.108 45.1091 23.1321 45.1091 23.1561C45.133 23.1802 45.157 23.2043 45.1809 23.2283C45.3726 23.6132 45.6002 23.9619 45.8638 24.2746C46.1513 24.5873 46.4627 24.8519 46.7981 25.0683C47.1336 25.3089 47.481 25.5133 47.8403 25.6817C48.1997 25.826 48.5711 25.9583 48.9544 26.0786C49.0982 26.1267 49.2419 26.1748 49.3857 26.2229C49.5294 26.271 49.6732 26.3071 49.8169 26.3311C49.9367 26.3552 50.0685 26.3792 50.2123 26.4033C50.356 26.4273 50.4998 26.4514 50.6435 26.4754C50.9071 26.4995 51.1586 26.5235 51.3982 26.5476C51.6378 26.5476 51.8654 26.5476 52.081 26.5476C52.9675 26.5476 53.7821 26.4634 54.5248 26.295C55.2915 26.1026 55.9863 25.814 56.6092 25.4291C57.2322 25.0683 57.6994 24.6113 58.0108 24.0581C58.3223 23.5049 58.478 22.8675 58.478 22.1459C58.478 21.5446 58.3702 21.0275 58.1546 20.5945C57.9629 20.1375 57.6634 19.7647 57.2561 19.4761C56.8488 19.1874 56.3337 18.9229 55.7108 18.6823C55.1118 18.4178 54.3931 18.1652 53.5545 17.9247C53.3389 17.8766 53.1113 17.8285 52.8717 17.7804C52.6561 17.7082 52.4284 17.636 52.1889 17.5639C51.9493 17.5158 51.6977 17.4677 51.4342 17.4196C51.1946 17.3474 50.943 17.2753 50.6795 17.2031C50.4638 17.155 50.2362 17.1069 49.9966 17.0588C49.781 17.0107 49.5534 16.9505 49.3138 16.8784C49.0742 16.8303 48.8346 16.7701 48.595 16.698C48.3794 16.6258 48.1518 16.5416 47.9122 16.4454C47.1935 16.229 46.5106 15.9403 45.8638 15.5795C45.2169 15.2187 44.6059 14.8098 44.0309 14.3528C43.4319 13.8718 42.9887 13.2825 42.7012 12.585C42.4137 11.8634 42.2699 11.0215 42.2699 10.0594C42.2699 9.07327 42.4616 8.15927 42.8449 7.31742C43.2522 6.45152 43.8512 5.68183 44.6419 5.00836C45.4325 4.31083 46.3789 3.7937 47.481 3.45696C48.5831 3.09617 49.8529 2.91577 51.2904 2.91577C52.68 2.91577 53.9378 3.08414 55.0639 3.42088C56.2139 3.75762 57.2322 4.2507 58.1186 4.90012C59.0291 5.54955 59.7119 6.35531 60.1671 7.31742C60.6463 8.27953 60.9098 9.39798 60.9578 10.6728L57.6874 10.8532C57.6634 10.757 57.6395 10.6487 57.6155 10.5285C57.6155 10.3841 57.5916 10.2398 57.5436 10.0955C57.5197 9.9512 57.4837 9.80688 57.4358 9.66256C57.4119 9.4942 57.3759 9.32583 57.328 9.15746C57.1603 8.74856 56.9327 8.36372 56.6452 8.00292C56.3577 7.64213 55.9983 7.3054 55.567 6.99271C55.1358 6.65597 54.5728 6.40342 53.8779 6.23505C53.2071 6.06668 52.3925 5.98249 51.4342 5.98249C51.3623 5.98249 51.2784 5.98249 51.1826 5.98249C51.1107 5.98249 51.0269 5.98249 50.931 5.98249C50.8352 6.00655 50.7394 6.01857 50.6435 6.01857C50.5716 6.01857 50.4878 6.01857 50.392 6.01857C50.2961 6.01857 50.2003 6.0306 50.1044 6.05465C50.0086 6.05465 49.9248 6.06668 49.8529 6.09073C49.757 6.11479 49.6612 6.13884 49.5654 6.16289C49.4695 6.16289 49.3737 6.17492 49.2779 6.19897C48.8227 6.29518 48.3794 6.4395 47.9482 6.63192C47.5169 6.80029 47.0976 7.01676 46.6903 7.28134C46.307 7.56998 46.0075 7.93077 45.7919 8.36371C45.6002 8.77261 45.5044 9.26569 45.5044 9.84296C45.5044 10.324 45.5762 10.757 45.72 11.1418C45.8877 11.5026 46.1273 11.8153 46.4388 12.0799C46.7742 12.3444 47.2294 12.609 47.8044 12.8736C48.3794 13.1141 49.0862 13.3426 49.9248 13.5591C49.9966 13.5832 50.0565 13.6072 50.1044 13.6313C50.1763 13.6313 50.2482 13.6313 50.3201 13.6313C50.392 13.6553 50.4638 13.6794 50.5357 13.7034C50.6076 13.7034 50.6795 13.7155 50.7513 13.7395C50.8951 13.7636 51.0388 13.7996 51.1826 13.8477C51.3263 13.8718 51.4821 13.9079 51.6498 13.956C51.7217 13.98 51.7816 14.0041 51.8295 14.0281C51.9014 14.0281 51.9732 14.0281 52.0451 14.0281C52.093 14.0522 52.1529 14.0762 52.2248 14.1003C52.2967 14.1003 52.3685 14.1123 52.4404 14.1364C52.5123 14.1604 52.5722 14.1845 52.6201 14.2085C52.692 14.2085 52.7639 14.2085 52.8357 14.2085C52.9076 14.2326 52.9795 14.2566 53.0514 14.2807C53.1232 14.2807 53.1951 14.2927 53.267 14.3168C54.3212 14.5573 55.3275 14.87 56.2858 15.2548C57.2681 15.6397 58.2025 16.0846 59.089 16.5898C59.9754 17.0949 60.6343 17.7924 61.0656 18.6823C61.5208 19.5482 61.7484 20.6186 61.7484 21.8934C61.7484 22.9758 61.5328 23.9739 61.1015 24.8879C60.6703 25.7779 60.0234 26.5957 59.1609 27.3413C58.2983 28.087 57.2921 28.6402 56.1421 29.001C54.992 29.3618 53.6863 29.5422 52.2248 29.5422C50.6914 29.5422 49.3378 29.4219 48.1638 29.1814C46.9898 28.9408 46.0195 28.556 45.2528 28.0268C44.4622 27.4977 43.7913 26.9084 43.2403 26.259C42.6892 25.5855 42.246 24.8519 41.9106 24.0581C41.7668 23.7214 41.647 23.3967 41.5512 23.084C41.4793 22.7713 41.4194 22.4827 41.3715 22.2181C41.3475 21.9535 41.3236 21.713 41.2996 21.4965C41.2757 21.256 41.2637 21.0515 41.2637 20.8832V20.811Z" fill="white"/>
<path d="M78.8548 23.084L82.0892 23.4809C81.8496 24.3949 81.5022 25.2247 81.047 25.9703C80.6157 26.6919 80.0647 27.3293 79.3938 27.8825C78.723 28.4598 77.9323 28.8807 77.0219 29.1453C76.1115 29.4099 75.0813 29.5422 73.9312 29.5422C72.4698 29.5422 71.188 29.3377 70.0859 28.9288C68.9838 28.4959 68.0494 27.8344 67.2827 26.9445C66.54 26.0786 65.9769 25.0683 65.5936 23.9138C65.2103 22.7352 65.0186 21.4244 65.0186 19.9812C65.0186 18.5621 65.1983 17.2632 65.5577 16.0846C65.941 14.882 66.504 13.8117 67.2467 12.8736C67.9895 11.9355 68.8999 11.238 69.978 10.781C71.0562 10.3 72.2901 10.0594 73.6797 10.0594C73.8474 10.0594 74.0151 10.0715 74.1828 10.0955C74.3745 10.0955 74.5542 10.1075 74.7219 10.1316C74.9135 10.1556 75.0932 10.1797 75.2609 10.2037C75.4526 10.2037 75.6322 10.2278 75.7999 10.2759C76.5906 10.4443 77.3573 10.769 78.1001 11.25C78.8428 11.707 79.5496 12.2963 80.2204 13.0179C80.8912 13.7636 81.3824 14.7257 81.6939 15.9042C82.0293 17.0828 82.197 18.4899 82.197 20.1255C82.197 20.1496 82.197 20.1736 82.197 20.1977C82.197 20.2217 82.197 20.2458 82.197 20.2698C82.197 20.2939 82.197 20.3179 82.197 20.342C82.197 20.342 82.197 20.354 82.197 20.3781C82.197 20.4021 82.197 20.4262 82.197 20.4502C82.197 20.4743 82.197 20.4983 82.197 20.5224C82.197 20.5464 82.197 20.5705 82.197 20.5945C82.197 20.5945 82.197 20.6066 82.197 20.6306L68.253 20.5585C68.3009 21.713 68.4806 22.6991 68.7921 23.5169C69.1035 24.3347 69.5468 24.9962 70.1217 25.5013C70.6967 26.0064 71.2958 26.3912 71.9187 26.6558C72.5656 26.8964 73.2364 27.0166 73.9312 27.0166C74.4823 27.0166 74.9734 26.9685 75.4047 26.8723C75.8599 26.752 76.2433 26.5837 76.5547 26.3672C76.8901 26.1507 77.1776 25.9222 77.4172 25.6817C77.6808 25.4171 77.8964 25.1525 78.0641 24.8879C78.16 24.7196 78.2438 24.5632 78.3157 24.4189C78.3876 24.2505 78.4593 24.0942 78.5312 23.9499C78.6032 23.8056 78.6631 23.6613 78.711 23.5169C78.7829 23.3726 78.8308 23.2524 78.8548 23.1561V23.084ZM68.4327 17.9608H78.9626C78.9386 17.5759 78.8907 17.2031 78.8188 16.8423C78.7469 16.4815 78.651 16.1448 78.5312 15.8321C78.4115 15.4954 78.2558 15.1947 78.0641 14.9301C77.8964 14.6655 77.7047 14.413 77.4891 14.1725C77.2735 13.956 77.0339 13.7636 76.7703 13.5952C76.5068 13.4028 76.2073 13.2344 75.8719 13.0901C75.5365 12.9458 75.1891 12.8375 74.8297 12.7654C74.4703 12.6932 74.0989 12.6571 73.7156 12.6571C72.9729 12.6571 72.302 12.7774 71.7031 13.0179C71.1041 13.2344 70.601 13.5711 70.1937 14.0281C69.7624 14.4851 69.415 14.9542 69.1515 15.4352C68.8879 15.9163 68.6962 16.4334 68.5765 16.9866C68.5525 17.0828 68.5285 17.179 68.5046 17.2753C68.4806 17.3715 68.4686 17.4557 68.4686 17.5278C68.4447 17.624 68.4327 17.7202 68.4327 17.8164C68.4327 17.8886 68.4327 17.9608 68.4327 18.0329V17.9608Z" fill="white"/>
<path d="M85.9941 29.1092V3.27656H89.1566V29.1092H85.9941Z" fill="white"/>
<path d="M93.9609 29.1092V3.27656H97.1235V29.1092H93.9609Z" fill="white"/>
<path d="M107.067 29.1092L99.9873 10.4202H103.329L107.318 21.6047C107.486 22.0858 107.63 22.5188 107.75 22.9036C107.87 23.2884 107.977 23.6252 108.073 23.9138C108.145 24.2265 108.217 24.5151 108.289 24.7797C108.361 25.0202 108.421 25.2487 108.469 25.4652L108.54 25.3931C108.588 25.2728 108.624 25.1405 108.648 24.9962C108.696 24.8519 108.732 24.7076 108.756 24.5632C108.804 24.4189 108.852 24.2746 108.9 24.1303C108.948 23.986 108.996 23.8417 109.044 23.6973C109.091 23.529 109.139 23.3726 109.187 23.2283C109.259 23.0599 109.319 22.8916 109.367 22.7232C109.415 22.5789 109.463 22.4346 109.511 22.2903C109.583 22.1459 109.642 22.0136 109.69 21.8934L113.823 10.4202H117.058L110.014 29.1092H107.067Z" fill="white"/>
<path d="M119.897 29.1092V10.4202H123.059V29.1092H119.897ZM119.897 6.88447V3.27656H123.059V6.88447H119.897Z" fill="white"/>
<path d="M130.451 16.1568L127.36 15.7599C127.408 15.6397 127.444 15.4954 127.468 15.327C127.516 15.1346 127.576 14.9181 127.648 14.6776C127.696 14.4611 127.768 14.2326 127.864 13.9921C127.983 13.7515 128.127 13.511 128.295 13.2705C128.534 12.8616 128.846 12.4767 129.229 12.1159C129.637 11.7552 130.128 11.4064 130.703 11.0696C131.254 10.7329 131.949 10.4804 132.787 10.312C133.65 10.1436 134.644 10.0594 135.77 10.0594C137.351 10.0594 138.633 10.2158 139.615 10.5285C140.622 10.8171 141.316 11.2621 141.7 11.8634C142.107 12.4647 142.419 13.1021 142.634 13.7756C142.85 14.4491 142.97 15.1466 142.994 15.8682C142.994 15.9163 142.994 15.9644 142.994 16.0125C142.994 16.0606 142.994 16.1087 142.994 16.1568C142.994 16.229 142.994 16.2891 142.994 16.3372C142.994 16.3853 142.994 16.4334 142.994 16.4815C142.994 16.5777 142.994 16.686 142.994 16.8062C142.994 16.9024 142.994 16.9986 142.994 17.0949V21.28C142.994 22.3384 142.994 23.2524 142.994 24.022C143.017 24.7917 143.041 25.4171 143.065 25.8982C143.089 26.3792 143.149 26.8362 143.245 27.2692C143.341 27.7021 143.473 28.099 143.64 28.4598C143.664 28.5319 143.688 28.6041 143.712 28.6763C143.736 28.7244 143.76 28.7725 143.784 28.8206C143.832 28.8927 143.868 28.9529 143.892 29.001C143.94 29.0491 143.976 29.0851 144 29.1092H140.693C140.574 28.9168 140.478 28.7123 140.406 28.4959C140.334 28.2794 140.274 28.0629 140.226 27.8464C140.202 27.654 140.166 27.4736 140.118 27.3052C140.095 27.1369 140.071 26.9926 140.047 26.8723C139.376 27.4496 138.729 27.9186 138.106 28.2794C137.507 28.6402 136.932 28.9048 136.381 29.0731C135.806 29.2174 135.255 29.3257 134.728 29.3978C134.201 29.494 133.686 29.5422 133.182 29.5422C132.152 29.5422 131.242 29.4219 130.451 29.1814C129.684 28.9408 129.026 28.568 128.475 28.0629C127.923 27.5578 127.504 26.9926 127.217 26.3672C126.953 25.7178 126.821 25.0082 126.821 24.2385C126.821 23.4688 126.917 22.7954 127.109 22.2181C127.324 21.6408 127.648 21.1598 128.079 20.7749C128.51 20.366 128.954 20.0173 129.409 19.7286C129.888 19.44 130.379 19.2115 130.882 19.0431C131.194 18.9469 131.493 18.8627 131.781 18.7906C132.092 18.7184 132.392 18.6583 132.679 18.6102C132.967 18.5621 133.23 18.526 133.47 18.5019C133.733 18.4538 133.961 18.4178 134.153 18.3937C134.225 18.3937 134.356 18.3817 134.548 18.3576C134.764 18.3095 135.039 18.2734 135.375 18.2494C135.71 18.2013 136.057 18.1532 136.417 18.1051C136.776 18.0329 137.148 17.9608 137.531 17.8886C137.723 17.8405 137.914 17.8044 138.106 17.7804C138.322 17.7323 138.537 17.6842 138.753 17.636C138.944 17.5879 139.124 17.5398 139.292 17.4917C139.484 17.4436 139.663 17.3835 139.831 17.3113C139.831 17.2632 139.831 17.2151 139.831 17.167C139.831 17.0949 139.831 17.0227 139.831 16.9505C139.831 16.9024 139.831 16.8664 139.831 16.8423C139.831 16.8183 139.831 16.7822 139.831 16.7341C139.831 16.71 139.831 16.686 139.831 16.6619C139.831 16.6138 139.831 16.5777 139.831 16.5537C139.831 16.5296 139.831 16.5176 139.831 16.5176C139.831 16.4935 139.831 16.4695 139.831 16.4454C139.831 16.4214 139.831 16.3973 139.831 16.3733C139.831 16.3492 139.831 16.3372 139.831 16.3372C139.831 16.3131 139.831 16.2891 139.831 16.265C139.831 16.241 139.831 16.2169 139.831 16.1929C139.807 15.7599 139.711 15.339 139.543 14.9301C139.4 14.5212 139.196 14.1364 138.933 13.7756C138.669 13.4148 138.226 13.1382 137.603 12.9458C137.004 12.7533 136.237 12.6571 135.303 12.6571C134.488 12.6571 133.805 12.7293 133.254 12.8736C132.703 13.0179 132.272 13.2224 131.961 13.4869C131.649 13.7756 131.386 14.0762 131.17 14.3889C130.978 14.6776 130.822 14.9902 130.703 15.327C130.679 15.351 130.655 15.3871 130.631 15.4352C130.631 15.4833 130.631 15.5194 130.631 15.5435C130.607 15.5916 130.583 15.6397 130.559 15.6878C130.559 15.7118 130.559 15.7479 130.559 15.796C130.535 15.8682 130.511 15.9403 130.487 16.0125C130.487 16.0846 130.475 16.1568 130.451 16.229V16.1568ZM139.831 20.8832V19.7286C139.639 19.8489 139.424 19.9451 139.184 20.0173C138.944 20.0894 138.693 20.1616 138.429 20.2337C138.142 20.3059 137.854 20.3781 137.567 20.4502C137.279 20.5224 136.992 20.5825 136.704 20.6306C136.537 20.6547 136.357 20.6907 136.165 20.7389C135.998 20.7629 135.818 20.799 135.626 20.8471C135.458 20.8711 135.279 20.8952 135.087 20.9192C134.919 20.9433 134.764 20.9674 134.62 20.9914C134.524 21.0155 134.428 21.0395 134.332 21.0636C134.261 21.0636 134.177 21.0636 134.081 21.0636C133.985 21.0876 133.889 21.1117 133.793 21.1357C133.721 21.1357 133.638 21.1477 133.542 21.1718C133.111 21.244 132.703 21.3522 132.32 21.4965C131.937 21.6408 131.577 21.8092 131.242 22.0016C130.882 22.2181 130.619 22.5067 130.451 22.8675C130.283 23.2283 130.2 23.6613 130.2 24.1664C130.2 24.2145 130.2 24.2746 130.2 24.3468C130.2 24.3949 130.2 24.443 130.2 24.4911C130.2 24.5392 130.2 24.5873 130.2 24.6354C130.224 24.6835 130.247 24.7316 130.271 24.7797C130.319 25.0683 130.427 25.3449 130.595 25.6095C130.763 25.8741 130.99 26.1387 131.278 26.4033C131.565 26.6438 131.925 26.8242 132.356 26.9445C132.811 27.0647 133.338 27.1249 133.937 27.1249C134.081 27.1249 134.249 27.1128 134.44 27.0888C134.656 27.0647 134.883 27.0407 135.123 27.0166C135.387 26.9685 135.65 26.9084 135.914 26.8362C136.177 26.7641 136.453 26.6679 136.74 26.5476C136.884 26.4995 137.028 26.4393 137.172 26.3672C137.315 26.271 137.459 26.1748 137.603 26.0786C137.675 26.0305 137.747 25.9823 137.818 25.9342C137.89 25.8621 137.962 25.802 138.034 25.7538C138.082 25.6817 138.142 25.6216 138.214 25.5735C138.286 25.5013 138.357 25.4291 138.429 25.357C138.741 25.0202 138.992 24.6715 139.184 24.3107C139.376 23.9499 139.508 23.5891 139.579 23.2283C139.651 22.8675 139.711 22.4947 139.759 22.1099C139.807 21.725 139.831 21.3402 139.831 20.9553V20.8832Z" fill="white"/>
<path fill-rule="evenodd" clip-rule="evenodd" d="M5.16913 2.96537C3.94563 2.96537 2.95378 3.96111 2.95378 5.18942V26.8106C2.95378 28.0389 3.94563 29.0346 5.16913 29.0346H12.3623C13.1779 29.0346 13.8392 29.6985 13.8392 30.5173C13.8392 31.3362 13.1779 32 12.3623 32H5.16913C2.3143 32 0 29.6766 0 26.8106V5.18942C0 2.32338 2.3143 0 5.16913 0H26.2539C29.1088 0 31.4231 2.32338 31.4231 5.18941V26.8106C31.4231 29.6766 29.1088 32 26.2539 32H20.5447C19.2977 32 18.0836 31.5499 17.1394 30.7079C14.8967 28.7077 12.1848 26.153 10.027 23.397C7.90608 20.6882 6.12228 17.54 6.12228 14.3745C6.12228 11.9277 6.86127 9.52598 8.50565 7.7194C10.1711 5.88968 12.6307 4.8193 15.7622 4.8193C18.9259 4.8193 21.3157 5.96845 22.889 7.84769C24.4281 9.68598 25.062 12.0726 25.062 14.3745C25.062 16.647 24.1411 18.7476 23.0635 20.5379C22.2238 21.933 21.2081 23.2626 20.341 24.3976C20.1021 24.7104 19.8744 25.0085 19.6647 25.289C19.1753 25.9441 18.2496 26.0769 17.5971 25.5856C16.9446 25.0943 16.8123 24.1649 17.3017 23.5098C17.5484 23.1796 17.8016 22.8479 18.0571 22.5132C18.9104 21.3953 19.7892 20.244 20.5354 19.0043C21.4986 17.4041 22.1082 15.8581 22.1082 14.3745C22.1082 12.5789 21.6104 10.9292 20.6279 9.75566C19.6796 8.62302 18.158 7.78467 15.7622 7.78467C13.3343 7.78467 11.7124 8.59233 10.6862 9.71976C9.63888 10.8703 9.07606 12.5049 9.07606 14.3745C9.07606 16.5013 10.324 18.9778 12.3492 21.5645C14.3375 24.1039 16.8862 26.5155 19.1012 28.491C19.4929 28.8403 20.0049 29.0346 20.5447 29.0346H26.2539C27.4774 29.0346 28.4693 28.0389 28.4693 26.8106V5.18941C28.4693 3.96111 27.4774 2.96537 26.2539 2.96537H5.16913Z" fill="white"/>
<path d="M15.7109 16.3846C17.2238 16.3846 18.4502 15.1534 18.4502 13.6346C18.4502 12.1158 17.2238 10.8846 15.7109 10.8846C14.1981 10.8846 12.9717 12.1158 12.9717 13.6346C12.9717 15.1534 14.1981 16.3846 15.7109 16.3846Z" fill="#44D3E7"/>
</g>
<path d="M151.136 28V16.8H155.36C156.523 16.8 157.403 17.072 158 17.616C158.597 18.16 158.896 18.8427 158.896 19.664C158.896 20.3787 158.704 20.9493 158.32 21.376C157.936 21.792 157.472 22.0747 156.928 22.224C157.355 22.3093 157.733 22.48 158.064 22.736C158.405 22.992 158.672 23.312 158.864 23.696C159.056 24.08 159.152 24.496 159.152 24.944C159.152 25.52 159.008 26.0427 158.72 26.512C158.443 26.9707 158.032 27.3333 157.488 27.6C156.944 27.8667 156.277 28 155.488 28H151.136ZM152.832 21.6H155.152C155.803 21.6 156.299 21.4507 156.64 21.152C156.981 20.8427 157.152 20.4213 157.152 19.888C157.152 19.3653 156.981 18.9493 156.64 18.64C156.309 18.3307 155.803 18.176 155.12 18.176H152.832V21.6ZM152.832 26.608H155.264C155.947 26.608 156.475 26.448 156.848 26.128C157.232 25.808 157.424 25.36 157.424 24.784C157.424 24.208 157.227 23.7547 156.832 23.424C156.437 23.0827 155.904 22.912 155.232 22.912H152.832V26.608ZM163.875 28.192C162.915 28.192 162.158 27.8933 161.603 27.296C161.059 26.6987 160.787 25.808 160.787 24.624V20.064H162.483V24.448C162.483 25.984 163.112 26.752 164.371 26.752C165 26.752 165.518 26.528 165.923 26.08C166.328 25.632 166.531 24.992 166.531 24.16V20.064H168.227V28H166.723L166.595 26.608C166.35 27.0987 165.987 27.488 165.507 27.776C165.038 28.0533 164.494 28.192 163.875 28.192ZM173.553 28.192C172.55 28.192 171.723 27.9467 171.073 27.456C170.422 26.9653 170.049 26.3147 169.953 25.504H171.664C171.75 25.8667 171.953 26.1813 172.273 26.448C172.593 26.704 173.014 26.832 173.536 26.832C174.049 26.832 174.422 26.7253 174.657 26.512C174.891 26.2987 175.009 26.0533 175.009 25.776C175.009 25.3707 174.843 25.0987 174.513 24.96C174.193 24.8107 173.745 24.6773 173.169 24.56C172.721 24.464 172.273 24.336 171.825 24.176C171.387 24.016 171.019 23.792 170.721 23.504C170.433 23.2053 170.289 22.8053 170.289 22.304C170.289 21.6107 170.555 21.0347 171.089 20.576C171.622 20.1067 172.369 19.872 173.329 19.872C174.214 19.872 174.929 20.0853 175.473 20.512C176.027 20.9387 176.353 21.5413 176.449 22.32H174.817C174.763 21.9787 174.603 21.712 174.337 21.52C174.081 21.328 173.734 21.232 173.297 21.232C172.87 21.232 172.539 21.3227 172.305 21.504C172.07 21.6747 171.953 21.8987 171.953 22.176C171.953 22.4533 172.113 22.672 172.433 22.832C172.763 22.992 173.195 23.136 173.729 23.264C174.262 23.3813 174.753 23.52 175.201 23.68C175.659 23.8293 176.027 24.0533 176.305 24.352C176.582 24.6507 176.721 25.088 176.721 25.664C176.731 26.3893 176.449 26.992 175.873 27.472C175.307 27.952 174.534 28.192 173.553 28.192ZM179.532 18.56C179.212 18.56 178.945 18.464 178.732 18.272C178.529 18.0693 178.428 17.8187 178.428 17.52C178.428 17.2213 178.529 16.976 178.732 16.784C178.945 16.5813 179.212 16.48 179.532 16.48C179.852 16.48 180.113 16.5813 180.316 16.784C180.529 16.976 180.636 17.2213 180.636 17.52C180.636 17.8187 180.529 18.0693 180.316 18.272C180.113 18.464 179.852 18.56 179.532 18.56ZM178.684 28V20.064H180.38V28H178.684ZM182.619 28V20.064H184.123L184.251 21.456C184.496 20.9653 184.854 20.5813 185.323 20.304C185.803 20.016 186.352 19.872 186.971 19.872C187.931 19.872 188.683 20.1707 189.227 20.768C189.782 21.3653 190.059 22.256 190.059 23.44V28H188.379V23.616C188.379 22.08 187.75 21.312 186.491 21.312C185.862 21.312 185.339 21.536 184.923 21.984C184.518 22.432 184.315 23.072 184.315 23.904V28H182.619ZM195.768 28.192C194.99 28.192 194.296 28.0213 193.688 27.68C193.091 27.328 192.622 26.8427 192.28 26.224C191.939 25.6053 191.768 24.8853 191.768 24.064C191.768 23.232 191.934 22.5013 192.264 21.872C192.606 21.2427 193.075 20.752 193.672 20.4C194.28 20.048 194.984 19.872 195.784 19.872C196.563 19.872 197.24 20.048 197.816 20.4C198.392 20.7413 198.84 21.2 199.16 21.776C199.48 22.352 199.64 22.9867 199.64 23.68C199.64 23.7867 199.635 23.904 199.624 24.032C199.624 24.1493 199.619 24.2827 199.608 24.432H193.432C193.486 25.2 193.736 25.7867 194.184 26.192C194.643 26.5867 195.171 26.784 195.768 26.784C196.248 26.784 196.648 26.6773 196.968 26.464C197.299 26.24 197.544 25.9413 197.704 25.568H199.4C199.187 26.3147 198.76 26.9387 198.12 27.44C197.491 27.9413 196.707 28.192 195.768 28.192ZM195.768 21.264C195.203 21.264 194.702 21.4347 194.264 21.776C193.827 22.1067 193.56 22.608 193.464 23.28H197.944C197.912 22.6613 197.694 22.1707 197.288 21.808C196.883 21.4453 196.376 21.264 195.768 21.264ZM204.568 28.192C203.565 28.192 202.739 27.9467 202.088 27.456C201.437 26.9653 201.064 26.3147 200.968 25.504H202.68C202.765 25.8667 202.968 26.1813 203.288 26.448C203.608 26.704 204.029 26.832 204.552 26.832C205.064 26.832 205.437 26.7253 205.672 26.512C205.907 26.2987 206.024 26.0533 206.024 25.776C206.024 25.3707 205.859 25.0987 205.528 24.96C205.208 24.8107 204.76 24.6773 204.184 24.56C203.736 24.464 203.288 24.336 202.84 24.176C202.403 24.016 202.035 23.792 201.736 23.504C201.448 23.2053 201.304 22.8053 201.304 22.304C201.304 21.6107 201.571 21.0347 202.104 20.576C202.637 20.1067 203.384 19.872 204.344 19.872C205.229 19.872 205.944 20.0853 206.488 20.512C207.043 20.9387 207.368 21.5413 207.464 22.32H205.832C205.779 21.9787 205.619 21.712 205.352 21.52C205.096 21.328 204.749 21.232 204.312 21.232C203.885 21.232 203.555 21.3227 203.32 21.504C203.085 21.6747 202.968 21.8987 202.968 22.176C202.968 22.4533 203.128 22.672 203.448 22.832C203.779 22.992 204.211 23.136 204.744 23.264C205.277 23.3813 205.768 23.52 206.216 23.68C206.675 23.8293 207.043 24.0533 207.32 24.352C207.597 24.6507 207.736 25.088 207.736 25.664C207.747 26.3893 207.464 26.992 206.888 27.472C206.323 27.952 205.549 28.192 204.568 28.192ZM212.756 28.192C211.753 28.192 210.926 27.9467 210.276 27.456C209.625 26.9653 209.252 26.3147 209.156 25.504H210.868C210.953 25.8667 211.156 26.1813 211.476 26.448C211.796 26.704 212.217 26.832 212.74 26.832C213.252 26.832 213.625 26.7253 213.86 26.512C214.094 26.2987 214.212 26.0533 214.212 25.776C214.212 25.3707 214.046 25.0987 213.716 24.96C213.396 24.8107 212.948 24.6773 212.372 24.56C211.924 24.464 211.476 24.336 211.028 24.176C210.59 24.016 210.222 23.792 209.924 23.504C209.636 23.2053 209.492 22.8053 209.492 22.304C209.492 21.6107 209.758 21.0347 210.292 20.576C210.825 20.1067 211.572 19.872 212.532 19.872C213.417 19.872 214.132 20.0853 214.676 20.512C215.23 20.9387 215.556 21.5413 215.652 22.32H214.02C213.966 21.9787 213.806 21.712 213.54 21.52C213.284 21.328 212.937 21.232 212.5 21.232C212.073 21.232 211.742 21.3227 211.508 21.504C211.273 21.6747 211.156 21.8987 211.156 22.176C211.156 22.4533 211.316 22.672 211.636 22.832C211.966 22.992 212.398 23.136 212.932 23.264C213.465 23.3813 213.956 23.52 214.404 23.68C214.862 23.8293 215.23 24.0533 215.508 24.352C215.785 24.6507 215.924 25.088 215.924 25.664C215.934 26.3893 215.652 26.992 215.076 27.472C214.51 27.952 213.737 28.192 212.756 28.192Z" fill="#44D3E7"/>
<defs>
<clipPath id="clip0_93_151">
<rect width="144" height="32" fill="white"/>
</clipPath>
</defs>
</svg>
