<svg width="82" height="82" viewBox="0 0 82 82" fill="none" xmlns="http://www.w3.org/2000/svg">
<circle cx="41" cy="41" r="40" fill="#047AFF" stroke="white" stroke-width="2"/>
<path d="M57.1 38.4L55.4666 45.3666C54.0666 51.3833 51.3 53.8166 46.1 53.3166C45.2666 53.25 44.3666 53.1 43.4 52.8666L40.6 52.2C33.65 50.55 31.5 47.1166 33.1333 40.15L34.7666 33.1666C35.1 31.75 35.5 30.5166 36 29.5C37.95 25.4666 41.2666 24.3833 46.8333 25.7L49.6166 26.35C56.6 27.9833 58.7333 31.4333 57.1 38.4Z" stroke="white" stroke-width="2" stroke-linecap="round" stroke-linejoin="round"/>
<path d="M46.0996 53.3167C45.0663 54.0167 43.7663 54.6 42.1829 55.1167L39.5496 55.9833C32.9329 58.1167 29.4496 56.3333 27.2996 49.7167L25.1663 43.1333C23.0329 36.5167 24.7996 33.0167 31.4163 30.8833L34.0496 30.0167C34.7329 29.8 35.3829 29.6167 35.9996 29.5C35.4996 30.5167 35.0996 31.75 34.7663 33.1667L33.1329 40.15C31.4996 47.1167 33.6496 50.55 40.5996 52.2L43.3996 52.8667C44.3663 53.1 45.2663 53.25 46.0996 53.3167Z" stroke="white" stroke-width="2" stroke-linecap="round" stroke-linejoin="round"/>
<path d="M42.0664 35.2167L50.1497 37.2667" stroke="white" stroke-width="2" stroke-linecap="round" stroke-linejoin="round"/>
<path d="M40.4336 41.6667L45.2669 42.9" stroke="white" stroke-width="2" stroke-linecap="round" stroke-linejoin="round"/>
</svg>
