<svg width="195" height="40" viewBox="0 0 195 40" fill="none" xmlns="http://www.w3.org/2000/svg">
<mask id="mask0_147_1330" style="mask-type:luminance" maskUnits="userSpaceOnUse" x="6" y="7" width="27" height="26">
<path d="M33 7H6V33H33V7Z" fill="white"/>
</mask>
<g mask="url(#mask0_147_1330)">
<path d="M12.1948 32.7491C11.354 33.2773 10.8284 32.9604 11.0386 31.904L13.1408 23.453L6.51887 17.8543C5.67798 17.2204 5.8882 16.5866 6.93931 16.481L15.5584 15.8472L18.8168 7.71306C19.2372 6.76232 19.8679 6.76232 20.1832 7.71306L23.4417 15.8472L32.0607 16.481C33.1118 16.5866 33.322 17.1148 32.4812 17.8543L25.9643 23.453L28.0665 31.904C28.2767 32.9604 27.8563 33.2773 26.9103 32.7491L19.5526 28.1011L12.1948 32.7491Z" fill="#EF6A22"/>
</g>
<mask id="mask1_147_1330" style="mask-type:luminance" maskUnits="userSpaceOnUse" x="45" y="7" width="27" height="26">
<path d="M72 7H45V33H72V7Z" fill="white"/>
</mask>
<g mask="url(#mask1_147_1330)">
<path d="M51.1948 32.7491C50.3539 33.2773 49.8284 32.9604 50.0386 31.904L52.1408 23.453L45.5188 17.8543C44.678 17.2204 44.8882 16.5866 45.9393 16.481L54.5583 15.8472L57.8168 7.71306C58.2372 6.76232 58.8679 6.76232 59.1832 7.71306L62.4416 15.8472L71.0607 16.481C72.1118 16.5866 72.322 17.1148 71.4811 17.8543L64.9643 23.453L67.0665 31.904C67.2767 32.9604 66.8563 33.2773 65.9103 32.7491L58.5525 28.1011L51.1948 32.7491Z" fill="#EF6A22"/>
</g>
<mask id="mask2_147_1330" style="mask-type:luminance" maskUnits="userSpaceOnUse" x="84" y="7" width="27" height="26">
<path d="M111 7H84V33H111V7Z" fill="white"/>
</mask>
<g mask="url(#mask2_147_1330)">
<path d="M90.1949 32.7491C89.354 33.2773 88.8284 32.9604 89.0386 31.904L91.1409 23.453L84.5189 17.8543C83.678 17.2204 83.8882 16.5866 84.9393 16.481L93.5585 15.8472L96.8165 7.71306C97.2375 6.76232 97.8675 6.76232 98.1835 7.71306L101.441 15.8472L110.06 16.481C111.111 16.5866 111.322 17.1148 110.481 17.8543L103.964 23.453L106.066 31.904C106.276 32.9604 105.856 33.2773 104.91 32.7491L97.5525 28.1011L90.1949 32.7491Z" fill="#EF6A22"/>
</g>
<mask id="mask3_147_1330" style="mask-type:luminance" maskUnits="userSpaceOnUse" x="123" y="7" width="27" height="26">
<path d="M150 7H123V33H150V7Z" fill="white"/>
</mask>
<g mask="url(#mask3_147_1330)">
<path d="M129.194 32.7491C128.353 33.2773 127.828 32.9604 128.038 31.904L130.14 23.453L123.518 17.8543C122.678 17.2204 122.888 16.5866 123.939 16.481L132.558 15.8472L135.816 7.71306C136.237 6.76232 136.867 6.76232 137.183 7.71306L140.441 15.8472L149.06 16.481C150.111 16.5866 150.322 17.1148 149.481 17.8543L142.964 23.453L145.066 31.904C145.276 32.9604 144.856 33.2773 143.91 32.7491L136.552 28.1011L129.194 32.7491Z" fill="#EF6A22"/>
</g>
<mask id="mask4_147_1330" style="mask-type:luminance" maskUnits="userSpaceOnUse" x="162" y="7" width="27" height="26">
<path d="M189 7H162V33H189V7Z" fill="white"/>
</mask>
<g mask="url(#mask4_147_1330)">
<path d="M168.195 32.7491C167.354 33.2773 166.829 32.9604 167.039 31.904L169.141 23.453L162.519 17.8543C161.678 17.2204 161.888 16.5866 162.94 16.481L171.559 15.8472L174.817 7.71306C175.238 6.76232 175.868 6.76232 176.184 7.71306L179.442 15.8472L188.061 16.481C189.112 16.5866 189.322 17.1148 188.481 17.8543L181.965 23.453L184.067 31.904C184.277 32.9604 183.857 33.2773 182.911 32.7491L175.553 28.1011L168.195 32.7491Z" fill="#EF6A22"/>
</g>
</svg>
