<svg width="80" height="80" viewBox="0 0 80 80" fill="none" xmlns="http://www.w3.org/2000/svg">
<circle cx="40" cy="40" r="40" fill="#44D3E7"/>
<path d="M48 37V45M41.5 23H31C29.3431 23 28 24.3431 28 26V31M48 48.5V58C48 59.6569 46.6569 61 45 61H31C29.3431 61 28 59.6569 28 58V34.2497" stroke="white" stroke-width="2" stroke-linecap="round"/>
<path d="M28 55H48" stroke="white" stroke-width="2"/>
<path d="M37.9727 58.0166H38.0273" stroke="white" stroke-width="2" stroke-linecap="round"/>
<circle cx="51" cy="27" r="10" stroke="white" stroke-width="2"/>
<path d="M50.038 33.292V32.214C49.1233 32.1113 48.3907 31.7893 47.84 31.248C47.2893 30.7067 47.0093 29.9973 47 29.12H48.568C48.5773 29.5587 48.708 29.946 48.96 30.282C49.212 30.6087 49.5713 30.828 50.038 30.94V27.566C49.9633 27.5473 49.884 27.524 49.8 27.496C49.7253 27.468 49.646 27.44 49.562 27.412C48.806 27.16 48.2367 26.8333 47.854 26.432C47.4807 26.0307 47.294 25.5033 47.294 24.85C47.2847 24.0847 47.532 23.4593 48.036 22.974C48.54 22.4887 49.2073 22.204 50.038 22.12V21H50.99V22.134C51.802 22.2273 52.4553 22.5213 52.95 23.016C53.4447 23.5107 53.6967 24.1313 53.706 24.878H52.138C52.1287 24.57 52.026 24.2807 51.83 24.01C51.6433 23.73 51.3633 23.5387 50.99 23.436V26.432C51.0647 26.46 51.1393 26.488 51.214 26.516C51.2887 26.5347 51.3633 26.558 51.438 26.586C51.9233 26.7447 52.3573 26.936 52.74 27.16C53.1227 27.384 53.426 27.678 53.65 28.042C53.8833 28.406 54 28.868 54 29.428C54 29.8947 53.888 30.3333 53.664 30.744C53.44 31.1453 53.104 31.4813 52.656 31.752C52.208 32.0227 51.6527 32.1813 50.99 32.228V33.292H50.038ZM48.834 24.724C48.834 25.0973 48.9413 25.3867 49.156 25.592C49.3707 25.788 49.6647 25.9607 50.038 26.11V23.394C49.6833 23.4593 49.394 23.6087 49.17 23.842C48.946 24.066 48.834 24.36 48.834 24.724ZM52.432 29.526C52.432 29.0687 52.2967 28.7233 52.026 28.49C51.7553 28.2473 51.41 28.0467 50.99 27.888V30.968C51.4473 30.912 51.802 30.7533 52.054 30.492C52.306 30.2307 52.432 29.9087 52.432 29.526Z" fill="white"/>
<path d="M32 37H37" stroke="white" stroke-width="2" stroke-linecap="round"/>
<path d="M32 41H43.5" stroke="white" stroke-width="2" stroke-linecap="round"/>
</svg>
