<svg width="80" height="80" viewBox="0 0 80 80" fill="none" xmlns="http://www.w3.org/2000/svg">
<circle cx="40" cy="40" r="40" fill="#44D3E7"/>
<circle cx="52" cy="28" r="9" stroke="white" stroke-width="2"/>
<path d="M51.1346 33.6624V32.6922C50.3114 32.5998 49.652 32.31 49.1564 31.8228C48.6608 31.3356 48.4088 30.6972 48.4004 29.9076H49.8116C49.82 30.3024 49.9376 30.651 50.1644 30.9534C50.3912 31.2474 50.7146 31.4448 51.1346 31.5456V28.509C51.0674 28.4922 50.996 28.4712 50.9204 28.446C50.8532 28.4208 50.7818 28.3956 50.7062 28.3704C50.0258 28.1436 49.5134 27.8496 49.169 27.4884C48.833 27.1272 48.665 26.6526 48.665 26.0646C48.6566 25.3758 48.8792 24.813 49.3328 24.3762C49.7864 23.9394 50.387 23.6832 51.1346 23.6076V22.5996H51.9914V23.6202C52.7222 23.7042 53.3102 23.9688 53.7554 24.414C54.2006 24.8592 54.4274 25.4178 54.4358 26.0898H53.0246C53.0162 25.8126 52.9238 25.5522 52.7474 25.3086C52.5794 25.0566 52.3274 24.8844 51.9914 24.792V27.4884C52.0586 27.5136 52.1258 27.5388 52.193 27.564C52.2602 27.5808 52.3274 27.6018 52.3946 27.627C52.8314 27.7698 53.222 27.942 53.5664 28.1436C53.9108 28.3452 54.1838 28.6098 54.3854 28.9374C54.5954 29.265 54.7004 29.6808 54.7004 30.1848C54.7004 30.6048 54.5996 30.9996 54.398 31.3692C54.1964 31.7304 53.894 32.0328 53.4908 32.2764C53.0876 32.52 52.5878 32.6628 51.9914 32.7048V33.6624H51.1346ZM50.051 25.9512C50.051 26.2872 50.1476 26.5476 50.3408 26.7324C50.534 26.9088 50.7986 27.0642 51.1346 27.1986V24.7542C50.8154 24.813 50.555 24.9474 50.3534 25.1574C50.1518 25.359 50.051 25.6236 50.051 25.9512ZM53.2892 30.273C53.2892 29.8614 53.1674 29.5506 52.9238 29.3406C52.6802 29.1222 52.3694 28.9416 51.9914 28.7988V31.5708C52.403 31.5204 52.7222 31.3776 52.949 31.1424C53.1758 30.9072 53.2892 30.6174 53.2892 30.273Z" fill="white"/>
<circle cx="28" cy="52" r="9" stroke="white" stroke-width="2"/>
<path d="M24.8918 56.4712V55.6648C25.211 55.3204 25.463 54.9802 25.6478 54.6442C25.841 54.2998 25.9376 53.8504 25.9376 53.296C25.9376 53.1868 25.9292 53.0776 25.9124 52.9684C25.8956 52.8592 25.8704 52.75 25.8368 52.6408H24.4004V51.7084H25.5344C25.4504 51.4732 25.3748 51.2296 25.3076 50.9776C25.2404 50.7172 25.2068 50.4358 25.2068 50.1334C25.2068 49.5958 25.3244 49.1296 25.5596 48.7348C25.7948 48.34 26.1182 48.0376 26.5298 47.8276C26.9498 47.6092 27.4328 47.5 27.9788 47.5C28.6004 47.5 29.1128 47.6218 29.516 47.8654C29.9276 48.1006 30.2384 48.4198 30.4484 48.823C30.6584 49.2262 30.7802 49.6714 30.8138 50.1586H29.579C29.5538 49.7134 29.4068 49.3438 29.138 49.0498C28.8776 48.7558 28.4996 48.6088 28.004 48.6088C27.5924 48.6088 27.2354 48.7348 26.933 48.9868C26.6306 49.2388 26.4794 49.6378 26.4794 50.1838C26.4794 50.4358 26.513 50.692 26.5802 50.9524C26.6558 51.2044 26.7398 51.4564 26.8322 51.7084H29.2262V52.6408H27.122C27.1472 52.7416 27.164 52.8466 27.1724 52.9558C27.1892 53.065 27.1976 53.1784 27.1976 53.296C27.1976 53.674 27.1262 54.0394 26.9834 54.3922C26.8406 54.745 26.6096 55.081 26.2904 55.4002H30.839V56.4838L24.8918 56.4712Z" fill="white"/>
<path d="M36.4912 37.1504H42.2579C42.9496 37.1504 43.5079 37.7087 43.5079 38.4004V39.7837" stroke="white" stroke-width="1.5" stroke-miterlimit="10" stroke-linecap="round" stroke-linejoin="round"/>
<path d="M37.8079 35.833L36.4912 37.1497L37.8079 38.4663" stroke="white" stroke-width="1.5" stroke-miterlimit="10" stroke-linecap="round" stroke-linejoin="round"/>
<path d="M43.5079 42.8501H37.7412C37.0495 42.8501 36.4912 42.2918 36.4912 41.6001V40.2168" stroke="white" stroke-width="1.5" stroke-miterlimit="10" stroke-linecap="round" stroke-linejoin="round"/>
<path d="M42.1904 44.1656L43.5071 42.8489L42.1904 41.5322" stroke="white" stroke-width="1.5" stroke-miterlimit="10" stroke-linecap="round" stroke-linejoin="round"/>
</svg>
