<svg width="80" height="80" viewBox="0 0 80 80" fill="none" xmlns="http://www.w3.org/2000/svg">
<circle cx="40" cy="40" r="40" fill="#44D3E7"/>
<path d="M40.0001 19.6484C31.774 19.6484 25.1055 26.317 25.1055 34.5431C25.1055 42.7692 31.774 49.4377 40.0001 49.4377C48.2262 49.4377 54.8947 42.7692 54.8947 34.5431C54.8947 28.8184 51.6651 23.848 46.9284 21.3545C46.4328 21.0936 45.9206 20.8598 45.3938 20.6551" stroke="white" stroke-width="2" stroke-linecap="round"/>
<circle cx="40.0006" cy="34.5436" r="10.9303" stroke="white" stroke-width="2"/>
<path d="M39.602 49.4531L34.3084 58.6218C33.8966 59.3352 32.8471 59.2726 32.523 58.5153L31.0565 55.0884L27.3555 55.5317C26.5376 55.6297 25.9586 54.7522 26.3705 54.0388L30.8848 46.2199" stroke="white" stroke-width="2" stroke-linejoin="round"/>
<path d="M40.3438 49.1367L45.8027 58.5919C46.2177 59.3108 47.2774 59.2402 47.5934 58.4726L49.0222 55.0023L52.742 55.5001C53.5647 55.6102 54.1557 54.7278 53.7406 54.0089L49.2222 46.1827" stroke="white" stroke-width="2" stroke-linejoin="round"/>
<path d="M40.0003 29.5586L41.4175 33.0187L44.9851 33.3666L42.2933 35.8529L43.0811 39.528L40.0003 37.6046L36.9196 39.528L37.7074 35.8529L35.0156 33.3666L38.5832 33.0187L40.0003 29.5586Z" stroke="white" stroke-width="2" stroke-linejoin="round"/>
</svg>
