<svg width="80" height="80" viewBox="0 0 80 80" fill="none" xmlns="http://www.w3.org/2000/svg">
<circle cx="40" cy="40" r="40" fill="white" fill-opacity="0.2"/>
<path d="M49.9998 31.9333C49.8998 31.9167 49.7831 31.9167 49.6831 31.9333C47.3831 31.85 45.5498 29.9666 45.5498 27.6333C45.5498 25.25 47.4665 23.3333 49.8498 23.3333C52.2331 23.3333 54.1498 25.2666 54.1498 27.6333C54.1331 29.9666 52.2998 31.85 49.9998 31.9333Z" stroke="white" stroke-width="2" stroke-linecap="round" stroke-linejoin="round"/>
<path d="M48.2834 44.0667C50.5667 44.45 53.0834 44.05 54.8501 42.8667C57.2001 41.3 57.2001 38.7333 54.8501 37.1667C53.0667 35.9833 50.5167 35.5833 48.2334 35.9833" stroke="white" stroke-width="2" stroke-linecap="round" stroke-linejoin="round"/>
<path d="M29.9508 31.9333C30.0508 31.9167 30.1674 31.9167 30.2674 31.9333C32.5674 31.85 34.4008 29.9666 34.4008 27.6333C34.4008 25.25 32.4841 23.3333 30.1008 23.3333C27.7175 23.3333 25.8008 25.2666 25.8008 27.6333C25.8174 29.9666 27.6508 31.85 29.9508 31.9333Z" stroke="white" stroke-width="2" stroke-linecap="round" stroke-linejoin="round"/>
<path d="M31.6671 44.0667C29.3837 44.45 26.8671 44.05 25.1004 42.8667C22.7504 41.3 22.7504 38.7333 25.1004 37.1667C26.8837 35.9833 29.4337 35.5833 31.7171 35.9833" stroke="white" stroke-width="2" stroke-linecap="round" stroke-linejoin="round"/>
<path d="M39.9998 44.3833C39.8998 44.3667 39.7831 44.3667 39.6831 44.3833C37.3831 44.3 35.5498 42.4167 35.5498 40.0833C35.5498 37.7 37.4665 35.7833 39.8498 35.7833C42.2331 35.7833 44.1498 37.7167 44.1498 40.0833C44.1331 42.4167 42.2998 44.3167 39.9998 44.3833Z" stroke="white" stroke-width="2" stroke-linecap="round" stroke-linejoin="round"/>
<path d="M35.1502 49.6333C32.8002 51.2 32.8002 53.7667 35.1502 55.3333C37.8169 57.1167 42.1835 57.1167 44.8502 55.3333C47.2002 53.7667 47.2002 51.2 44.8502 49.6333C42.2002 47.8667 37.8169 47.8667 35.1502 49.6333Z" stroke="white" stroke-width="2" stroke-linecap="round" stroke-linejoin="round"/>
</svg>
