<svg width="81" height="80" viewBox="0 0 81 80" fill="none" xmlns="http://www.w3.org/2000/svg">
<circle cx="40.25" cy="40" r="40" fill="#44D3E7"/>
<path d="M40.2501 19.6479C32.024 19.6479 25.3555 26.3165 25.3555 34.5426C25.3555 42.7687 32.024 49.4372 40.2501 49.4372C48.4762 49.4372 55.1447 42.7687 55.1447 34.5426C55.1447 28.8179 51.9151 23.8475 47.1784 21.354C46.6828 21.0931 46.1706 20.8593 45.6438 20.6546" stroke="white" stroke-width="2" stroke-linecap="round"/>
<circle cx="40.2506" cy="34.5426" r="10.9303" stroke="white" stroke-width="2"/>
<path d="M39.852 49.4526L34.5584 58.6213C34.1466 59.3347 33.0971 59.2721 32.773 58.5148L31.3065 55.0879L27.6055 55.5313C26.7876 55.6292 26.2086 54.7517 26.6205 54.0384L31.1348 46.2194" stroke="white" stroke-width="2" stroke-linejoin="round"/>
<path d="M40.5938 49.136L46.0527 58.5911C46.4677 59.31 47.5274 59.2394 47.8434 58.4719L49.2722 55.0016L52.992 55.4993C53.8147 55.6094 54.4057 54.7271 53.9906 54.0082L49.4722 46.182" stroke="white" stroke-width="2" stroke-linejoin="round"/>
<path d="M40.2503 29.5579L41.6675 33.0179L45.2351 33.3659L42.5433 35.8522L43.3311 39.5273L40.2503 37.6039L37.1696 39.5273L37.9574 35.8522L35.2656 33.3659L38.8332 33.0179L40.2503 29.5579Z" stroke="white" stroke-width="2" stroke-linejoin="round"/>
</svg>
