<svg width="86" height="86" viewBox="0 0 86 86" fill="none" xmlns="http://www.w3.org/2000/svg">
<path d="M72.7739 63.4533C79.5357 56.1147 78.8549 46.6905 78.8334 46.583V17.9163C78.8334 16.966 78.4558 16.0545 77.7838 15.3825C77.1118 14.7105 76.2004 14.333 75.25 14.333H53.75C49.7976 14.333 46.5834 17.5473 46.5834 21.4997V46.583C46.5834 47.5334 46.9609 48.4448 47.6329 49.1168C48.3049 49.7888 49.2163 50.1663 50.1667 50.1663H61.1962C61.1205 51.9379 60.5912 53.6603 59.6589 55.1687C57.8386 58.0389 54.4094 59.999 49.4608 60.988L46.5834 61.5613V71.6663H50.1667C60.1391 71.6663 67.7465 68.9036 72.7739 63.4533ZM33.3322 63.4533C40.0975 56.1147 39.4131 46.6905 39.3916 46.583V17.9163C39.3916 16.966 39.0141 16.0545 38.3421 15.3825C37.6701 14.7105 36.7586 14.333 35.8083 14.333H14.3083C10.3559 14.333 7.1416 17.5473 7.1416 21.4997V46.583C7.1416 47.5334 7.51913 48.4448 8.19114 49.1168C8.86314 49.7888 9.77458 50.1663 10.7249 50.1663H21.7544C21.6787 51.9379 21.1494 53.6603 20.2172 55.1687C18.3969 58.0389 14.9676 59.999 10.019 60.988L7.1416 61.5613V71.6663H10.7249C20.6974 71.6663 28.3048 68.9036 33.3322 63.4533Z" fill="#44D3E7"/>
</svg>
