<svg width="80" height="80" viewBox="0 0 80 80" fill="none" xmlns="http://www.w3.org/2000/svg">
<circle cx="40" cy="40" r="40" fill="#44D3E7"/>
<path d="M38.9427 30.0437C40.8695 28.117 43.3946 26.9033 46.1028 26.6024L53.4047 25.7911C54.0417 25.7203 54.5798 26.2585 54.5091 26.8954L53.6977 34.1974C53.3968 36.9055 52.1832 39.4307 50.2564 41.3575L37.6765 53.9373C36.8955 54.7184 35.6292 54.7184 34.8481 53.9373L26.3628 45.452C25.5818 44.671 25.5818 43.4047 26.3628 42.6236L38.9427 30.0437Z" stroke="white" stroke-width="2" stroke-linejoin="round"/>
<path d="M28.4844 40.5023L39.7981 51.816" stroke="white" stroke-width="2"/>
<path d="M47.5769 36.9667C47.9675 37.3573 48.6006 37.3573 48.9911 36.9667C49.3817 36.5762 49.3817 35.943 48.9911 35.5525L47.5769 36.9667ZM39.7988 29.1886L47.5769 36.9667L48.9911 35.5525L41.213 27.7743L39.7988 29.1886Z" fill="white"/>
<circle cx="40.5059" cy="39.7953" r="3" transform="rotate(45 40.5059 39.7953)" stroke="white" stroke-width="2"/>
<path d="M27.7775 46.8662L33.4343 52.5231L32.0201 56.7657L23.5349 48.2805L27.7775 46.8662Z" stroke="white" stroke-width="2" stroke-linejoin="round"/>
<path d="M26.79 35.1264C28.2803 33.6361 30.4432 33.037 32.4879 33.5482L34.849 34.1384L27.0708 41.9166L21.414 40.5024L25.3031 36.6133L26.79 35.1264Z" stroke="white" stroke-width="2" stroke-linejoin="round"/>
<path d="M45.1748 53.511C46.6651 52.0207 47.2642 49.8578 46.753 47.8132L46.1627 45.452L38.3845 53.2302L39.7987 58.887L43.6878 54.998L45.1748 53.511Z" stroke="white" stroke-width="2" stroke-linejoin="round"/>
</svg>
