<svg width="145" height="28" viewBox="0 0 145 28" fill="none" xmlns="http://www.w3.org/2000/svg">
<g clip-path="url(#clip0_157_2613)">
<path fill-rule="evenodd" clip-rule="evenodd" d="M108.065 0.0928056V8.73233C108.684 8.1435 109.356 7.69772 110.078 7.40164C110.597 7.19205 111.143 7.05566 111.711 6.99578V10.2759C111.701 10.2759 111.688 10.2759 111.678 10.2759C109.729 10.2759 108.152 11.8761 108.152 13.8489C108.152 15.8216 109.732 17.4218 111.678 17.4218C113.628 17.4218 115.204 15.8216 115.204 13.8489C115.204 13.8189 115.204 13.789 115.204 13.759V13.7424C115.204 13.7158 115.204 13.6925 115.201 13.6659V13.6459C115.201 13.6226 115.198 13.5993 115.198 13.5727C115.198 13.5561 115.194 13.5428 115.194 13.5262C115.194 13.5129 115.191 13.4995 115.191 13.4829C115.188 13.4663 115.188 13.4496 115.185 13.4297C115.185 13.4164 115.181 13.4031 115.181 13.3931C115.178 13.3798 115.178 13.3665 115.175 13.3532C115.171 13.3365 115.171 13.3199 115.168 13.3033C115.165 13.29 115.165 13.2767 115.161 13.2633C115.158 13.2467 115.155 13.2301 115.155 13.2168C115.151 13.2035 115.148 13.1868 115.148 13.1735C115.145 13.1569 115.141 13.1436 115.138 13.127C115.135 13.1136 115.131 13.1037 115.131 13.0904C115.128 13.0737 115.125 13.0571 115.121 13.0405C115.118 13.0272 115.115 13.0105 115.111 12.9972C115.108 12.9839 115.105 12.9706 115.101 12.9573C115.098 12.9407 115.091 12.924 115.088 12.9074C115.085 12.8941 115.081 12.8841 115.078 12.8708C115.075 12.8542 115.068 12.8375 115.065 12.8209C115.061 12.8109 115.058 12.7976 115.055 12.7876C115.051 12.771 115.045 12.7544 115.038 12.7411C115.035 12.7277 115.031 12.7178 115.028 12.7045C115.021 12.6878 115.018 12.6745 115.012 12.6579C115.008 12.6446 115.002 12.6346 114.998 12.6213C114.992 12.6047 114.988 12.5913 114.982 12.5747C114.978 12.5614 114.972 12.5514 114.968 12.5381C114.962 12.5248 114.955 12.5082 114.952 12.4949C114.948 12.4816 114.942 12.4716 114.938 12.4583C114.932 12.445 114.925 12.4283 114.922 12.415C114.915 12.4017 114.912 12.3917 114.905 12.3784C114.898 12.3651 114.892 12.3518 114.885 12.3352C114.878 12.3219 114.875 12.3119 114.868 12.2986C114.862 12.2853 114.855 12.272 114.849 12.2587C114.842 12.2454 114.835 12.2354 114.832 12.2221C114.825 12.2088 114.819 12.1921 114.809 12.1788C114.802 12.1689 114.799 12.1589 114.792 12.1456C114.785 12.1323 114.775 12.1156 114.769 12.1023L114.752 12.0691C114.745 12.0557 114.735 12.0391 114.729 12.0258L114.712 11.9959C114.702 11.9826 114.695 11.9659 114.685 11.9526L114.669 11.9227C114.659 11.9094 114.652 11.8961 114.642 11.8794L114.622 11.8495C114.612 11.8362 114.602 11.8195 114.592 11.8062L114.572 11.7796C114.562 11.7663 114.552 11.753 114.542 11.7397L114.522 11.7098C114.513 11.6965 114.503 11.6832 114.493 11.6698L114.473 11.6432C114.463 11.6299 114.449 11.6133 114.439 11.6L114.419 11.5767C114.409 11.5634 114.396 11.5468 114.383 11.5334L114.366 11.5102C114.353 11.4969 114.343 11.4835 114.33 11.4669L114.31 11.4436C114.296 11.4303 114.286 11.417 114.273 11.4037L114.253 11.3837C114.24 11.3704 114.226 11.3571 114.213 11.3438L114.193 11.3239C114.18 11.3106 114.167 11.2972 114.153 11.2839L114.13 11.2607C114.117 11.2473 114.103 11.234 114.09 11.2241L114.07 11.2041C114.057 11.1908 114.043 11.1775 114.027 11.1675L114.007 11.1475C113.994 11.1342 113.977 11.1209 113.964 11.111L113.944 11.0943C113.93 11.081 113.914 11.0677 113.897 11.0577L113.877 11.0411C113.86 11.0278 113.847 11.0145 113.831 11.0045L113.814 10.9912C113.797 10.9779 113.781 10.9679 113.764 10.9546L113.744 10.9413C113.727 10.928 113.711 10.918 113.694 10.9047L113.674 10.8914C113.658 10.8814 113.641 10.8681 113.624 10.8581L113.604 10.8448C113.588 10.8348 113.571 10.8215 113.554 10.8115L113.534 10.7982C113.518 10.7883 113.498 10.775 113.481 10.765L113.465 10.755C113.448 10.745 113.428 10.735 113.411 10.7217L113.391 10.7117C113.371 10.7018 113.355 10.6918 113.335 10.6818L113.318 10.6718C113.298 10.6618 113.282 10.6519 113.262 10.6419L113.242 10.6319C113.222 10.6219 113.202 10.6119 113.182 10.602L113.165 10.5953C113.145 10.5853 113.125 10.5753 113.102 10.5654L113.089 10.5587C113.069 10.5487 113.045 10.5388 113.025 10.5321L113.012 10.5254C112.989 10.5155 112.969 10.5088 112.946 10.4988L112.932 10.4955C112.909 10.4855 112.889 10.4789 112.866 10.4722L112.849 10.4656C112.826 10.4589 112.806 10.4489 112.783 10.4423L112.766 10.439C112.743 10.4323 112.723 10.4256 112.699 10.419L112.683 10.4123C112.66 10.4057 112.64 10.399 112.616 10.3924L112.603 10.3891C112.58 10.3824 112.556 10.3757 112.533 10.3691L112.52 10.3658C112.497 10.3591 112.473 10.3558 112.45 10.3491L112.437 10.3458C112.413 10.3392 112.387 10.3358 112.363 10.3292L112.35 10.3258C112.327 10.3225 112.3 10.3159 112.277 10.3125L112.264 10.3092C112.24 10.3059 112.214 10.3026 112.19 10.2959H112.18C112.154 10.2926 112.131 10.2893 112.104 10.2859H112.091C112.064 10.2826 112.041 10.2793 112.014 10.2759H112.007C111.981 10.2726 111.954 10.2726 111.928 10.2693H111.921C111.894 10.266 111.864 10.266 111.838 10.266H111.834C111.808 10.266 111.748 10.2626 111.721 10.2626V6.98247C111.938 6.95918 112.184 6.94587 112.407 6.94587C114.193 6.94587 115.71 7.59126 116.961 8.88203C118.212 10.1761 118.837 11.8329 118.837 13.8555C118.837 15.805 118.192 17.4351 116.898 18.7458C115.607 20.0599 114.077 20.7152 112.304 20.7152C111.515 20.7152 110.78 20.5788 110.101 20.3127C109.423 20.0432 108.747 19.6074 108.075 18.9986V20.3959H104.642V0.0761719H108.075L108.065 0.0928056Z" fill="white"/>
<path fill-rule="evenodd" clip-rule="evenodd" d="M92.7143 0.0928056V8.73233C93.333 8.1435 94.005 7.69772 94.7269 7.40164C95.2459 7.19205 95.7915 7.05566 96.3604 6.99578V10.2759C96.3504 10.2759 96.3371 10.2759 96.3271 10.2759C94.3776 10.2759 92.8008 11.8761 92.8008 13.8489C92.8008 15.8216 94.3809 17.4218 96.3271 17.4218C98.2766 17.4218 99.8534 15.8216 99.8534 13.8489C99.8534 13.8189 99.8534 13.789 99.8534 13.759V13.7424C99.8534 13.7158 99.8534 13.6925 99.8501 13.6659V13.6459C99.8501 13.6226 99.8468 13.5993 99.8468 13.5727C99.8468 13.5561 99.8434 13.5428 99.8434 13.5262C99.8434 13.5129 99.8401 13.4995 99.8401 13.4829C99.8368 13.4663 99.8368 13.4496 99.8335 13.4297C99.8335 13.4164 99.8301 13.4031 99.8301 13.3931C99.8268 13.3798 99.8268 13.3665 99.8235 13.3532C99.8202 13.3365 99.8202 13.3199 99.8168 13.3033C99.8135 13.29 99.8135 13.2767 99.8102 13.2633C99.8068 13.2467 99.8035 13.2301 99.8035 13.2168C99.8002 13.2035 99.7969 13.1868 99.7969 13.1735C99.7935 13.1569 99.7902 13.1436 99.7869 13.127C99.7836 13.1136 99.7802 13.1037 99.7802 13.0904C99.7769 13.0737 99.7736 13.0571 99.7703 13.0405C99.7669 13.0272 99.7636 13.0105 99.7603 12.9972C99.7569 12.9839 99.7536 12.9706 99.7503 12.9573C99.747 12.9407 99.7403 12.924 99.737 12.9074C99.7337 12.8941 99.7303 12.8841 99.727 12.8708C99.7237 12.8542 99.717 12.8375 99.7137 12.8209C99.7104 12.8109 99.707 12.7976 99.7037 12.7876C99.7004 12.771 99.6937 12.7544 99.6871 12.7411C99.6838 12.7277 99.6804 12.7178 99.6771 12.7045C99.6705 12.6878 99.6671 12.6745 99.6605 12.6579C99.6571 12.6446 99.6505 12.6346 99.6472 12.6213C99.6405 12.6047 99.6372 12.5913 99.6305 12.5747C99.6272 12.5614 99.6206 12.5514 99.6172 12.5381C99.6106 12.5248 99.6039 12.5082 99.6006 12.4949C99.5973 12.4816 99.5906 12.4716 99.5873 12.4583C99.5806 12.445 99.574 12.4283 99.5706 12.415C99.564 12.4017 99.5607 12.3917 99.554 12.3784C99.5474 12.3651 99.5407 12.3518 99.5341 12.3352C99.5274 12.3219 99.5241 12.3119 99.5174 12.2986C99.5108 12.2853 99.5041 12.272 99.4975 12.2587C99.4908 12.2454 99.4842 12.2354 99.4808 12.2221C99.4742 12.2088 99.4675 12.1921 99.4575 12.1788C99.4509 12.1689 99.4476 12.1589 99.4409 12.1456C99.4343 12.1323 99.4243 12.1156 99.4176 12.1023L99.401 12.0691C99.3943 12.0557 99.3844 12.0391 99.3777 12.0258L99.3611 11.9959C99.3511 11.9826 99.3444 11.9659 99.3345 11.9526L99.3178 11.9227C99.3078 11.9094 99.3012 11.8961 99.2912 11.8794L99.2712 11.8495C99.2613 11.8362 99.2513 11.8195 99.2413 11.8062L99.2213 11.7796C99.2114 11.7663 99.2014 11.753 99.1914 11.7397L99.1714 11.7098C99.1615 11.6965 99.1515 11.6832 99.1415 11.6698L99.1215 11.6432C99.1116 11.6299 99.0983 11.6133 99.0883 11.6L99.0683 11.5767C99.0583 11.5634 99.045 11.5468 99.0317 11.5334L99.0151 11.5102C99.0018 11.4969 98.9918 11.4835 98.9785 11.4669L98.9585 11.4436C98.9452 11.4303 98.9352 11.417 98.9219 11.4037L98.902 11.3837C98.8887 11.3704 98.8754 11.3571 98.8621 11.3438L98.8421 11.3239C98.8288 11.3106 98.8155 11.2972 98.8022 11.2839L98.7789 11.2607C98.7656 11.2473 98.7523 11.234 98.739 11.2241L98.719 11.2041C98.7057 11.1908 98.6924 11.1775 98.6758 11.1675L98.6558 11.1475C98.6425 11.1342 98.6259 11.1209 98.6126 11.111L98.5926 11.0943C98.5793 11.081 98.5627 11.0677 98.546 11.0577L98.5261 11.0411C98.5094 11.0278 98.4961 11.0145 98.4795 11.0045L98.4628 10.9912C98.4462 10.9779 98.4296 10.9679 98.4129 10.9546L98.393 10.9413C98.3764 10.928 98.3597 10.918 98.3431 10.9047L98.3231 10.8914C98.3065 10.8814 98.2899 10.8681 98.2732 10.8581L98.2533 10.8448C98.2366 10.8348 98.22 10.8215 98.2034 10.8115L98.1834 10.7982C98.1668 10.7883 98.1468 10.775 98.1302 10.765L98.1135 10.755C98.0969 10.745 98.0769 10.735 98.0603 10.7217L98.0404 10.7117C98.0204 10.7018 98.0038 10.6918 97.9838 10.6818L97.9672 10.6718C97.9472 10.6618 97.9306 10.6519 97.9106 10.6419L97.8907 10.6319C97.8707 10.6219 97.8507 10.6119 97.8308 10.602L97.8141 10.5953C97.7942 10.5853 97.7742 10.5753 97.7509 10.5654L97.7376 10.5587C97.7177 10.5487 97.6944 10.5388 97.6744 10.5321L97.6611 10.5254C97.6378 10.5155 97.6179 10.5088 97.5946 10.4988L97.5813 10.4955C97.558 10.4855 97.538 10.4789 97.5147 10.4722L97.4981 10.4656C97.4748 10.4589 97.4548 10.4489 97.4316 10.4423L97.4149 10.439C97.3916 10.4323 97.3717 10.4256 97.3484 10.419L97.3318 10.4123C97.3085 10.4057 97.2885 10.399 97.2652 10.3924L97.2519 10.3891C97.2286 10.3824 97.2053 10.3757 97.1821 10.3691L97.1687 10.3658C97.1455 10.3591 97.1222 10.3558 97.0989 10.3491L97.0856 10.3458C97.0623 10.3392 97.0357 10.3358 97.0124 10.3292L96.9991 10.3258C96.9758 10.3225 96.9492 10.3159 96.9259 10.3125L96.9126 10.3092C96.8893 10.3059 96.8627 10.3026 96.8394 10.2959H96.8294C96.8028 10.2926 96.7795 10.2893 96.7529 10.2859H96.7396C96.713 10.2826 96.6897 10.2793 96.6631 10.2759H96.6564C96.6298 10.2726 96.6032 10.2726 96.5766 10.2693H96.5699C96.5433 10.266 96.5134 10.266 96.4868 10.266H96.4834C96.4568 10.266 96.3969 10.2626 96.3703 10.2626V6.98247C96.5866 6.95918 96.8327 6.94587 97.0556 6.94587C98.8421 6.94587 100.359 7.59126 101.61 8.88203C102.86 10.1761 103.486 11.8329 103.486 13.8555C103.486 15.805 102.84 17.4351 101.546 18.7458C100.256 20.0599 98.7257 20.7152 96.9525 20.7152C96.1641 20.7152 95.4289 20.5788 94.7502 20.3127C94.0716 20.0432 93.3962 19.6074 92.7242 18.9986V20.3959H89.291V0.0761719H92.7242L92.7143 0.0928056Z" fill="white"/>
<path fill-rule="evenodd" clip-rule="evenodd" d="M0.358398 9.75789C0.358398 12.3627 0.830794 14.7314 2.54739 16.7573C6.34984 21.2451 9.72647 20.6463 14.9927 20.6463C17.714 20.6463 20.4385 20.6463 23.1598 20.6463L19.048 16.4779C20.7346 13.9828 21.0041 12.6522 21.0041 9.64478C21.0041 8.28082 20.4984 6.8104 20.0227 5.86228C19.7 5.22022 19.5237 4.9308 19.1444 4.3586C18.9049 3.99599 18.8617 3.95939 18.5955 3.65999C16.7525 1.55749 14.2508 0.00390625 11.2468 0.00390625C9.25408 0.00390625 8.00655 0.0837477 6.21677 0.985292C5.598 1.29801 5.25867 1.471 4.71642 1.86688C2.24133 3.65333 0.358398 6.56422 0.358398 9.75789Z" fill="#EF6A22"/>
<path fill-rule="evenodd" clip-rule="evenodd" d="M73.0664 13.7284C73.0664 15.5016 73.7251 17.1849 74.7996 18.4591C75.578 19.3806 77.5608 20.648 79.1909 20.648C81.157 20.648 82.511 20.4917 83.9548 18.8317V20.4185H87.4711V7.14817H83.9548V8.62191C83.3792 8.23601 83.2528 7.87672 82.4843 7.48417C79.1376 5.77423 74.0976 7.80686 73.2593 12.2181C73.2127 12.461 73.0664 13.429 73.0664 13.7251V13.7284Z" fill="white"/>
<path fill-rule="evenodd" clip-rule="evenodd" d="M27.4677 11.0041C27.4677 13.0035 28.672 13.9815 30.1557 14.5537C32.1018 15.3089 34.5004 15.2922 34.5004 16.5597C34.5004 18.3462 30.5948 18.3462 30.4152 16.2204H27.125C27.125 17.581 27.7072 18.7421 28.7285 19.4939C29.3207 19.933 29.5036 20.0395 30.2655 20.3389C33.3127 21.5332 37.9003 20.0195 37.9003 16.6728C37.9003 13.2762 34.9761 12.7606 32.9102 12.2483C31.7725 11.9655 30.8676 11.8158 30.8676 10.8877C30.8676 9.5736 32.9867 9.50706 33.7718 10.1391C34.9861 11.1172 32.4079 11.1139 37.561 11.1139C37.561 9.73661 37.022 8.7652 36.2502 8.11316C34.3141 6.47308 30.9474 6.48306 28.8716 8.09653C28.1497 8.65875 27.4643 9.76987 27.4643 11.0008L27.4677 11.0041Z" fill="white"/>
<path fill-rule="evenodd" clip-rule="evenodd" d="M68.0777 21.6702C68.0777 24.1054 66.1581 23.8259 64.4482 23.8259V27.003H67.1928C68.4203 26.9264 69.5248 26.6337 70.3764 25.6723C71.0418 24.9171 71.594 23.613 71.594 22.2391V7.15234H68.0777V21.6702Z" fill="white"/>
<path fill-rule="evenodd" clip-rule="evenodd" d="M46.5267 7.1483H44.0283V9.986H46.5267V20.422H49.9299V9.986H52.7643V7.1483H49.9299V2.1582H46.5267V7.1483Z" fill="white"/>
<path fill-rule="evenodd" clip-rule="evenodd" d="M138.746 9.98591V7.15154H135.229V20.4219H138.746C138.746 18.1663 138.543 14.0944 139.275 12.2182C140.046 10.2354 141.068 10.2121 142.601 10.2121C143.383 10.2121 143.935 10.5781 144.075 10.4384C144.175 10.2354 144.641 7.7437 144.641 7.37443C142.648 6.31986 140.366 6.94196 139.258 8.91138L138.742 9.98259L138.746 9.98591Z" fill="white"/>
<path fill-rule="evenodd" clip-rule="evenodd" d="M39.377 20.4221H42.7803V7.14844H39.377V20.4221Z" fill="white"/>
<path fill-rule="evenodd" clip-rule="evenodd" d="M38.8135 2.04554C38.8135 4.73354 43.0118 5.0263 43.3046 2.23517C43.431 1.03754 42.24 0.00292969 41.4217 0.00292969C40.0211 0.00292969 38.8135 0.575127 38.8135 2.04554Z" fill="white"/>
<path fill-rule="evenodd" clip-rule="evenodd" d="M67.624 2.04515C67.624 4.87287 72.0486 4.82962 72.0486 2.27136V1.70582C72.0486 0.927364 70.9807 0.00585938 70.2322 0.00585938C68.9148 0.00585938 67.624 0.461622 67.624 2.04847V2.04515Z" fill="white"/>
<path fill-rule="evenodd" clip-rule="evenodd" d="M10.3332 4.22708C10.4131 4.06407 10.5794 3.96094 10.7624 3.96094C10.9453 3.96094 11.1117 4.06407 11.1915 4.22708L12.7285 7.34755C12.7983 7.48727 12.9347 7.58708 13.0878 7.61036L16.5309 8.10937C16.7106 8.13599 16.8603 8.2624 16.9168 8.43539C16.9734 8.60838 16.9268 8.79801 16.7971 8.92775L14.3087 11.3563C14.1956 11.466 14.1457 11.6257 14.1689 11.7788L14.7545 15.2086C14.7844 15.3883 14.7112 15.5679 14.5648 15.6777C14.4185 15.7841 14.2222 15.7974 14.0592 15.7143L10.9819 14.0942C10.8422 14.021 10.6759 14.021 10.5362 14.0942L7.45557 15.711C7.29589 15.7974 7.09961 15.7841 6.94991 15.6777C6.80353 15.5679 6.73035 15.3883 6.76029 15.2086L7.34579 11.7788C7.37241 11.6224 7.3225 11.466 7.2094 11.3563L4.71767 8.92775C4.58793 8.80133 4.54136 8.60838 4.59791 8.43539C4.65447 8.2624 4.80417 8.13599 4.98381 8.10937L8.42698 7.61036C8.58334 7.58708 8.71973 7.4906 8.78627 7.34755L10.3266 4.22708H10.3332Z" fill="white"/>
<path d="M80.3723 17.4183C82.3841 17.4183 84.0151 15.8186 84.0151 13.8454C84.0151 11.8721 82.3841 10.2725 80.3723 10.2725C78.3604 10.2725 76.7295 11.8721 76.7295 13.8454C76.7295 15.8186 78.3604 17.4183 80.3723 17.4183Z" fill="white"/>
<path fill-rule="evenodd" clip-rule="evenodd" d="M133.805 14.7731H123.236C123.389 15.7079 123.795 16.4531 124.457 17.012C125.115 17.5642 125.96 17.8403 126.982 17.8403C128.209 17.8403 129.261 17.4079 130.142 16.5429L132.903 17.8503C132.215 18.8317 131.386 19.5569 130.428 20.0293C129.463 20.4984 128.322 20.7346 126.998 20.7346C124.946 20.7346 123.272 20.0892 121.985 18.7884C120.694 17.4943 120.049 15.8709 120.049 13.9214C120.049 11.9221 120.694 10.262 121.985 8.94465C123.276 7.62061 124.889 6.96191 126.839 6.96191C128.905 6.96191 130.585 7.62061 131.879 8.93467C133.173 10.2521 133.818 11.9886 133.818 14.151L133.805 14.7731ZM130.528 12.2015C130.308 11.4829 129.883 10.9008 129.244 10.4517C128.602 10.0025 127.86 9.77966 127.012 9.77966C126.093 9.77966 125.288 10.0325 124.593 10.5382C124.161 10.8509 123.758 11.4064 123.386 12.2015H130.531H130.528Z" fill="white"/>
<path fill-rule="evenodd" clip-rule="evenodd" d="M66.5226 14.7731H55.9536C56.1066 15.7079 56.5125 16.4531 57.1745 17.012C57.8332 17.5642 58.6782 17.8403 59.6995 17.8403C60.927 17.8403 61.9783 17.4079 62.8599 16.5429L65.6211 17.8503C64.9324 18.8317 64.1041 19.5569 63.146 20.0293C62.1812 20.4984 61.0401 20.7346 59.7161 20.7346C57.6635 20.7346 55.9902 20.0892 54.7027 18.7884C53.412 17.4943 52.7666 15.8709 52.7666 13.9214C52.7666 11.9221 53.412 10.262 54.7027 8.94465C55.9935 7.62061 57.607 6.96191 59.5564 6.96191C61.6223 6.96191 63.3023 7.62061 64.5964 8.93467C65.8905 10.2521 66.5359 11.9886 66.5359 14.151L66.5226 14.7731ZM63.2458 12.2015C63.0262 11.4829 62.6004 10.9008 61.9617 10.4517C61.3196 10.0025 60.5777 9.77966 59.7294 9.77966C58.8112 9.77966 58.0062 10.0325 57.3109 10.5382C56.8784 10.8509 56.4759 11.4064 56.1033 12.2015H63.2491H63.2458Z" fill="white"/>
</g>
<defs>
<clipPath id="clip0_157_2613">
<rect width="145" height="28" fill="white"/>
</clipPath>
</defs>
</svg>
