<svg width="12" height="12" viewBox="0 0 12 12" fill="none" xmlns="http://www.w3.org/2000/svg">
<path d="M6 8C7.10457 8 8 7.10457 8 6C8 4.89543 7.10457 4 6 4C4.89543 4 4 4.89543 4 6C4 7.10457 4.89543 8 6 8Z" stroke="#047AFF" stroke-width="1.5" stroke-linecap="round" stroke-linejoin="round"/>
<path d="M9.57 9.57L9.505 9.505M9.505 2.495L9.57 2.43L9.505 2.495ZM2.43 9.57L2.495 9.505L2.43 9.57ZM6 1.04V1V1.04ZM6 11V10.96V11ZM1.04 6H1H1.04ZM11 6H10.96H11ZM2.495 2.495L2.43 2.43L2.495 2.495Z" stroke="#047AFF" stroke-width="2" stroke-linecap="round" stroke-linejoin="round"/>
</svg>
